<?xml version="1.0" encoding="UTF-8"?>
<svg width="130px" height="130px" viewBox="0 0 130 130" version="1.1" xmlns="http://www.w3.org/2000/svg" xmlns:xlink="http://www.w3.org/1999/xlink">
    <!-- Generator: Sketch 53.2 (72643) - https://sketchapp.com -->
    <title>LOGO Thiện</title>
    <desc>Created with Sketch.</desc>
    <g id="LOGO-Thiện" stroke="none" stroke-width="1" fill="none" fill-rule="evenodd">
        <rect fill="#000000" x="0" y="0" width="130" height="130"></rect>
        <g id="Group-3" transform="translate(48.000000, 58.000000)">
            <g id="elephant-black---red-eye" fill-rule="nonzero" stroke="#FFFFFF" stroke-width="2">
                <g id="Group" transform="translate(38.500000, 34.500000) scale(-1, 1) rotate(-180.000000) translate(-38.500000, -34.500000) ">
                    <g id="Path">
                        <g>
                            <path d="M43.8530024,64.4934839 C43.0197122,64.4934839 42.2247341,64.4576855 41.4213049,64.4280081 C41.3935098,64.4469274 41.3721,64.4723387 41.3443049,64.4934839 C31.3143976,71.9241532 8.74119024,69.4466452 3.72830244,62.0159758 C-3.22911707,51.7108629 1.21960488,14.9542661 3.72830244,10.0031452 C6.23474634,5.04590323 13.7583976,2.57247581 16.2648415,5.04590323 C18.7756049,7.52767742 16.2648415,7.52767742 13.7583976,12.4765726 C11.9421366,16.0684677 12.7626561,24.8435242 14.3032195,30.3536935 C14.3631293,29.9992339 14.4485805,29.6740806 14.5169415,29.3279677 C15.3481659,23.2689516 18.7756049,13.6857419 18.7756049,8.76429839 C18.7756049,1.24070161 23.2650805,0.0947822581 28.8057,0.0947822581 C34.3463195,0.0947822581 38.8380488,1.24070161 38.8380488,8.76429839 C38.8380488,9.27085484 38.8209585,9.7393871 38.8123195,10.2311048 C40.4298829,10.0938468 42.0923317,10.0031452 43.8530024,10.0031452 C44.915039,10.0031452 45.9406415,10.0369032 46.9491537,10.0875403 C46.9405146,9.64645968 46.9213585,9.22021774 46.9213585,8.76429839 C46.9213585,1.24070161 51.4129,0.0947822581 56.9514537,0.0947822581 C62.492261,0.0947822581 66.9858683,1.24070161 66.9858683,8.76429839 C66.9858683,12.5630081 69.532878,18.5248306 71.3427537,23.4991371 C71.6824927,24.2462661 71.9645756,25.0440323 72.2402732,25.8564516 C72.4902415,23.0960806 72.6506268,20.1435484 72.6506268,16.9780806 C72.6506268,15.8110161 73.6058024,14.8676452 74.7874707,14.8676452 C75.969139,14.8676452 76.9243146,15.8110161 76.9243146,16.9780806 C76.9243146,27.8528145 75.2748244,36.494879 73.618761,42.446129 C71.7724512,57.8520484 61.3770756,64.4934839 43.8530024,64.4934839 Z"></path>
                        </g>
                    </g>
                </g>
            </g>
            <g id="Group-2" transform="translate(6.000000, 17.000000)">
                <path d="M33.9032535,0.999069382 L33.4799919,0.999069382 C29.6706185,3.50709034 26.8912285,6.73164034 25.1417386,10.6728161 C24.0976881,13.0154731 23.1665219,16.5707461 22.348212,21.338742 C22.0942538,21.8899554 21.8402994,22.4273804 21.5863412,22.9510331 C21.3041654,23.5849286 21.1630796,24.1499138 21.1630796,24.6460059 C21.0502093,24.8113699 20.993775,24.9629513 20.993775,25.1007546 C20.993775,25.2661187 21.0502093,25.4314802 21.1630796,25.5968442 C21.1630796,25.8173296 21.0219938,26.1480527 20.739818,26.5890234 C20.0343785,26.9473121 19.0749951,27.0713332 17.8616392,26.9610906 C15.2091866,26.7130445 13.4032885,25.8586766 12.4438908,24.3979611 C11.3998403,22.7994422 10.8213886,20.8840044 10.7085183,18.6515902 C10.7085183,18.0728161 10.6944097,17.2597885 10.6661921,16.2124831 C10.4968866,11.7752152 10.1864979,7.73763765 9.73501661,4.09962924 C9.73501661,3.87914388 9.66447372,3.70000221 9.52338582,3.56219886 C9.52338582,3.47951685 9.53749439,3.39683608 9.56571198,3.31415407 C9.59392956,3.25903273 9.50927808,3.23147248 9.31175502,3.23147248 C9.31175502,3.14879047 9.24121213,3.10745008 9.10012422,3.10745008 C8.93081874,3.10745008 8.6909729,3.14879047 8.38057952,3.23147248 C7.78801033,3.36927583 7.44940444,3.43817647 7.3647517,3.43817647 C6.43357154,4.45792125 5.68581687,5.49143087 5.12146526,6.53873632 C4.95215978,6.86946436 4.86750831,7.21396756 4.86750831,7.57225627 C4.86750831,8.28883369 5.27665709,9.00540036 6.09496692,9.72197777 C6.23605483,9.83222045 6.30659772,10.0527025 6.30659772,10.3834305 C6.3348153,10.7417192 6.1372952,10.9208609 5.71403149,10.9208609 C5.51650843,10.9759823 5.30487975,11.0035425 5.0791391,11.0035425 C4.88161604,11.0035425 4.68409594,10.9759823 4.48657287,10.9208609 C3.47073997,10.7830576 2.68065957,10.6452563 2.11630796,10.5074529 C1.10047506,10.2594069 0.395046128,9.92868383 0,9.51527378 C0,6.73164613 1.24155492,4.14098202 3.72470201,1.74320375 C4.43014152,1.054187 5.19200477,0.558102385 6.0103146,0.254935017 C6.80040686,0.00688898848 7.97141889,0.0620095013 9.52338582,0.420298209 C12.6273197,1.19199696 14.5460864,3.14877517 15.2797435,6.29069153 C15.5901369,7.58604301 15.7030055,8.8951552 15.6183527,10.2180673 C15.5619176,11.0173268 15.5054833,12.0921768 15.4490481,13.4426496 C15.4208305,15.8404279 15.8158707,18.2519503 16.6341806,20.6772893 L16.8458114,20.8839932 L17.2690729,20.8839932 L17.4383776,20.6772893 C17.5794655,20.5394859 17.6500084,20.3465641 17.6500084,20.0985181 C19.7945445,12.2437272 23.2088205,6.01510923 27.8929389,1.41247736 C28.5701608,0.943945975 29.4590013,0.558102385 30.5594869,0.254935017 C31.095621,0.117131668 31.6317469,0.0344508985 32.167881,0.00689022871 C32.5347095,-0.0206704411 32.9438583,0.0344500717 33.3953396,0.172253421 C33.9596912,0.36517811 34.1289942,0.640780674 33.9032535,0.999069382 Z" id="V" stroke="#FFFFFF" fill-rule="nonzero"></path>
                <circle id="Oval" fill="#FFFFFF" cx="2.5" cy="10.5" r="2.5"></circle>
                <path d="M28.9315838,24.6269349 C28.9494278,24.6780188 28.9494278,24.7333588 28.9315838,24.7929566 C28.9226618,24.8440404 28.904818,24.8993804 28.878052,24.9589783 C28.6639237,25.1207438 28.4185722,25.2399376 28.1419898,25.3165634 C28.1063018,25.3165634 28.0572315,25.3272057 27.9947774,25.3484906 C27.9323233,25.3697756 27.883253,25.3804179 27.847565,25.3804179 L27.6602037,25.5592104 L27.6066719,25.6230649 C27.4906858,25.8529422 27.2185686,26.1126146 26.7903121,26.4020897 C26.2996015,26.7341347 25.8668905,26.8405578 25.4921661,26.7213621 C25.1174417,26.6362224 24.5642854,26.4702024 23.8326806,26.2232971 C23.29736,25.9849058 23.0207818,25.6528658 23.0029378,25.2271671 C22.9761717,24.588619 23.1323046,23.9969067 23.471341,23.4520123 C23.9352855,22.7283245 24.6088871,22.366486 25.4921661,22.366486 C25.7419824,22.366486 26.0274824,22.4941937 26.3486748,22.749613 C26.518193,22.8943505 26.7680055,23.0816552 27.0981199,23.3115325 L27.339013,23.4392414 C27.5085311,23.5499231 27.6691249,23.7116862 27.8207991,23.9245355 C27.9724733,24.1373849 28.0483092,24.3332034 28.0483092,24.5119968 L28.088458,24.5375386 C28.088458,24.5715945 28.1063018,24.5971361 28.1419898,24.614164 C28.1776779,24.631192 28.1955216,24.626935 28.1955216,24.6013931 L28.2892023,24.6013931 C28.3159683,24.6013931 28.3650386,24.5801085 28.4364147,24.5375386 L28.4899465,24.5119968 L28.6906907,24.5119968 L28.7843713,24.5375386 L28.9315838,24.6269349 Z M26.5226531,24.9589783 C26.5494192,24.9334363 26.562802,24.8993809 26.562802,24.8568111 C26.562802,24.8142412 26.5494192,24.767415 26.5226531,24.7163312 L26.5226531,24.6652476 C26.4691211,24.529024 26.4423554,24.3928025 26.4423554,24.2565789 C26.4423554,24.1203553 26.4691211,23.9841338 26.5226531,23.8479102 L26.5226531,23.7712848 C26.4691211,23.6606031 26.3352929,23.5882354 26.1211647,23.5541795 C26.0587106,23.5541795 26.027484,23.5669503 26.027484,23.5924922 L25.8802716,23.5924922 C25.1219008,23.8989953 24.6178148,24.3629999 24.3679985,24.9845201 C24.2877004,25.1803415 24.2787785,25.3633892 24.3412326,25.5336686 C24.3858426,25.6869202 24.5196708,25.8273987 24.742721,25.9551083 C24.8497851,26.0061921 24.9613086,26.0402475 25.0772947,26.0572754 C25.1932809,26.0743034 25.3048043,26.0487619 25.4118684,25.9806501 C26.0364091,25.7252308 26.406667,25.384677 26.5226531,24.9589783 Z M31.9828959,21.3320433 C32.054272,21.3831272 32.0899595,21.4384672 32.0899595,21.498065 C32.0899595,21.6087467 32.0141236,21.7407113 31.8624494,21.8939628 C31.6126331,22.157896 31.3895862,22.3196591 31.193302,22.3792569 L31.0996214,22.4047987 C31.0014793,22.4388546 30.8944167,22.4558823 30.7784306,22.4558823 C30.7070545,22.4558823 30.6356795,22.4516254 30.5643034,22.4431114 C30.136047,22.255804 29.9085391,22.0812701 29.8817731,21.9195046 C29.8550071,21.7577391 29.9129993,21.5321222 30.0557514,21.2426471 C30.1628155,21.1149374 30.3011046,21.0340559 30.4706228,21 L30.8453454,21 C31.2736018,21 31.5903284,21.0383123 31.7955347,21.1149381 C31.9204428,21.1575079 31.9828959,21.2298756 31.9828959,21.3320433 Z M32.9330853,25.9295665 C32.9776953,26.0147062 33,26.0955878 33,26.1722135 C33,26.3935769 32.8617109,26.5936523 32.5851286,26.7724457 C32.4156104,26.8746134 32.2148682,26.9469811 31.9828959,26.989551 C31.7866117,27.0150929 31.5546429,26.9938083 31.2869826,26.9256965 C30.3680156,26.6958192 29.9263827,26.1807315 29.9620708,25.3804179 C29.9799148,25.0483729 30.0289851,24.7035621 30.1092832,24.3459752 C30.1449713,24.1671817 30.162815,24.0011617 30.162815,23.8479102 C30.162815,23.6861447 30.1405103,23.5328954 30.0959003,23.3881579 L30.0959003,23.3243034 C30.0959003,23.3157894 30.1048221,23.3072755 30.1226662,23.2987616 C30.1405102,23.2902476 30.1494321,23.2732199 30.1494321,23.247678 C30.2654182,23.1965941 30.3590979,23.1710526 30.430474,23.1710526 C30.466162,23.1710526 30.4973886,23.1795664 30.5241546,23.1965944 L30.6579841,23.1965944 C30.9256444,23.2221363 31.3182069,23.2859902 31.8356835,23.3881579 L31.9293642,23.4520123 C32.0096622,23.5030962 32.0408888,23.5626931 32.0230448,23.6308049 C32.0052008,23.7074307 31.9605914,23.7585138 31.8892153,23.7840557 C31.621555,24.1671845 31.478805,24.5928768 31.460961,25.0611454 C31.452039,25.529414 31.5457187,25.9551064 31.7420029,26.3382352 L31.8892153,26.4276315 C31.8892153,26.4531734 31.9025981,26.4659442 31.9293642,26.4659442 C31.9918182,26.4659442 32.1434901,26.4020903 32.3843844,26.2743807 C32.6877327,26.1041012 32.8706312,25.9891643 32.9330853,25.9295665 Z" id="oi" fill="#FFFFFF" fill-rule="nonzero"></path>
                <path d="M59.9032535,0.999069382 L59.4799919,0.999069382 C55.6706185,3.50709034 52.8912285,6.73164034 51.1417386,10.6728161 C50.0976881,13.0154731 49.1665219,16.5707461 48.348212,21.338742 C48.0942538,21.8899554 47.8402994,22.4273804 47.5863412,22.9510331 C47.3041654,23.5849286 47.1630796,24.1499138 47.1630796,24.6460059 C47.0502093,24.8113699 46.993775,24.9629513 46.993775,25.1007546 C46.993775,25.2661187 47.0502093,25.4314802 47.1630796,25.5968442 C47.1630796,25.8173296 47.0219938,26.1480527 46.739818,26.5890234 C46.0343785,26.9473121 45.0749951,27.0713332 43.8616392,26.9610906 C41.2091866,26.7130445 39.4032885,25.8586766 38.4438908,24.3979611 C37.3998403,22.7994422 36.8213886,20.8840044 36.7085183,18.6515902 C36.7085183,18.0728161 36.6944097,17.2597885 36.6661921,16.2124831 C36.4968866,11.7752152 36.1864979,7.73763765 35.7350166,4.09962924 C35.7350166,3.87914388 35.6644737,3.70000221 35.5233858,3.56219886 C35.5233858,3.47951685 35.5374944,3.39683608 35.565712,3.31415407 C35.5939296,3.25903273 35.5092781,3.23147248 35.311755,3.23147248 C35.311755,3.14879047 35.2412121,3.10745008 35.1001242,3.10745008 C34.9308187,3.10745008 34.6909729,3.14879047 34.3805795,3.23147248 C33.7880103,3.36927583 33.4494044,3.43817647 33.3647517,3.43817647 C32.4335715,4.45792125 31.6858169,5.49143087 31.1214653,6.53873632 C30.9521598,6.86946436 30.8675083,7.21396756 30.8675083,7.57225627 C30.8675083,8.28883369 31.2766571,9.00540036 32.0949669,9.72197777 C32.2360548,9.83222045 32.3065977,10.0527025 32.3065977,10.3834305 C32.3348153,10.7417192 32.1372952,10.9208609 31.7140315,10.9208609 C31.5165084,10.9759823 31.3048797,11.0035425 31.0791391,11.0035425 C30.881616,11.0035425 30.6840959,10.9759823 30.4865729,10.9208609 C29.47074,10.7830576 28.6806596,10.6452563 28.116308,10.5074529 C27.1004751,10.2594069 26.3950461,9.92868383 26,9.51527378 C26,6.73164613 27.2415549,4.14098202 29.724702,1.74320375 C30.4301415,1.054187 31.1920048,0.558102385 32.0103146,0.254935017 C32.8004069,0.00688898848 33.9714189,0.0620095013 35.5233858,0.420298209 C38.6273197,1.19199696 40.5460864,3.14877517 41.2797435,6.29069153 C41.5901369,7.58604301 41.7030055,8.8951552 41.6183527,10.2180673 C41.5619176,11.0173268 41.5054833,12.0921768 41.4490481,13.4426496 C41.4208305,15.8404279 41.8158707,18.2519503 42.6341806,20.6772893 L42.8458114,20.8839932 L43.2690729,20.8839932 L43.4383776,20.6772893 C43.5794655,20.5394859 43.6500084,20.3465641 43.6500084,20.0985181 C45.7945445,12.2437272 49.2088205,6.01510923 53.8929389,1.41247736 C54.5701608,0.943945975 55.4590013,0.558102385 56.5594869,0.254935017 C57.095621,0.117131668 57.6317469,0.0344508985 58.167881,0.00689022871 C58.5347095,-0.0206704411 58.9438583,0.0344500717 59.3953396,0.172253421 C59.9596912,0.36517811 60.1289942,0.640780674 59.9032535,0.999069382 Z" id="V" stroke="#FFFFFF" fill-rule="nonzero"></path>
                <path d="M51.1903368,19.8834951 C51.2645197,19.9378643 51.3016106,19.9967634 51.3016106,20.0601942 C51.3016106,20.1779941 51.2227925,20.3184458 51.0651538,20.4815534 C50.8055137,20.7624609 50.5736956,20.9346275 50.3696926,20.9980582 L50.272328,21.0252427 C50.1703266,21.0614888 50.0590539,21.0796116 49.9385067,21.0796116 C49.8643238,21.0796116 49.790142,21.0750809 49.7159591,21.0660194 C49.2708617,20.8666656 49.0344073,20.680907 49.0065887,20.5087378 C48.9787701,20.3365687 49.0390428,20.0964417 49.1874086,19.7883495 C49.2986829,19.6524265 49.4424101,19.5663432 49.6185945,19.5300971 L50.0080528,19.5300971 C50.4531502,19.5300971 50.7823319,19.5708734 50.9956077,19.6524272 C51.1254278,19.6977348 51.1903368,19.7747567 51.1903368,19.8834951 Z M52.1778917,24.7766989 C52.224256,24.8673143 52.2474378,24.9533975 52.2474378,25.0349514 C52.2474378,25.2705512 52.1037106,25.4834941 51.8162519,25.6737863 C51.6400675,25.7825247 51.4314312,25.8595466 51.1903368,25.9048542 C50.9863339,25.9320389 50.7452431,25.9093854 50.4670572,25.8368931 C49.5119524,25.5922317 49.0529526,25.0440171 49.090044,24.1922329 C49.1085897,23.8388331 49.1595897,23.4718465 49.2430455,23.0912621 C49.2801369,22.9009699 49.2986824,22.7242726 49.2986824,22.561165 C49.2986824,22.3889958 49.2755006,22.2258907 49.2291363,22.0718446 L49.2291363,22.0038834 C49.2291363,21.9948219 49.238409,21.9857605 49.2569547,21.976699 C49.2755004,21.9676374 49.2847732,21.9495146 49.2847732,21.92233 C49.4053204,21.8679608 49.502684,21.8407766 49.5768669,21.8407766 C49.6139583,21.8407766 49.6464128,21.849838 49.6742314,21.8679611 L49.8133237,21.8679611 C50.0915095,21.8951457 50.4995093,21.9631062 51.0373354,22.0718446 L51.1346999,22.1398058 C51.2181557,22.194175 51.2506102,22.2576048 51.2320645,22.330097 C51.2135188,22.4116508 51.1671552,22.4660192 51.0929723,22.4932038 C50.8147864,22.9009728 50.6664228,23.3540427 50.6478771,23.8524271 C50.6386042,24.3508115 50.7359678,24.8038814 50.9399708,25.2116504 L51.0929723,25.306796 C51.0929723,25.3339806 51.1068813,25.3475727 51.1346999,25.3475727 C51.19961,25.3475727 51.3572463,25.2796122 51.6076135,25.1436892 C51.9228909,24.9624585 52.1129817,24.8401297 52.1778917,24.7766989 Z M57.9780381,23.9747572 C58.0707667,24.1288033 58.1171303,24.2692549 58.1171303,24.3961164 C58.1171303,24.6498394 57.9780395,24.8763743 57.6998536,25.0757281 C57.3289391,25.3566356 56.8050303,25.5423943 56.1281113,25.6330096 C55.8313797,25.6783173 55.3955617,25.6284796 54.8206443,25.483495 C54.2828183,25.347572 53.9165457,25.2071204 53.7218156,25.0621358 C53.1283524,24.6362437 52.8316252,24.060845 52.8316252,23.3359223 C52.8316252,22.737861 53.0402615,22.1488702 53.4575403,21.568932 C53.7449991,21.179286 54.0880898,20.8530757 54.4868229,20.5902912 C54.6259158,20.5540451 54.769643,20.5359223 54.9180088,20.5359223 C55.0756475,20.5359223 55.2425565,20.5585758 55.4187409,20.6038835 C55.817474,20.7126219 56.1049284,20.8168279 56.2811128,20.9165048 C57.004396,21.3695815 57.3660322,21.8407742 57.3660322,22.330097 C57.3660322,22.719743 57.1434869,23.1184445 56.6983895,23.5262135 C56.4387493,23.7618134 56.114204,23.8660195 55.7247438,23.8388349 C55.6969252,23.8297733 55.3167436,23.7618128 54.5841875,23.6349514 C54.5007317,23.6349514 54.4450954,23.6893198 54.4172768,23.7980582 C54.3616396,24.3598733 54.6212758,24.740452 55.1961933,24.9398057 C56.2903911,24.9398057 57.2176634,24.6181261 57.9780381,23.9747572 Z M56.1281113,21.8543689 C56.1002927,21.7728151 56.0168382,21.6640783 55.8777453,21.5281553 L55.8221084,21.4601941 L55.5717424,21.4330097 L55.4743778,21.4601941 C55.0941904,21.8770247 54.9040996,22.2757262 54.9040996,22.6563106 C54.9040996,22.9100336 55.0339177,23.0776694 55.2935579,23.1592232 C55.3955594,23.1954694 55.506832,23.1954694 55.6273793,23.1592232 L55.6691069,23.0912621 C55.9751114,22.8828468 56.1281113,22.4705532 56.1281113,21.8543689 Z M62.7628111,24.9262135 C62.9297226,25.0802596 63.0085408,25.2252419 62.9992679,25.3611649 C62.9621765,25.6420725 62.7118129,25.8368925 62.2481698,25.9456309 C62.0534397,26.0000002 61.8355307,26.0135922 61.5944363,25.9864076 C60.6115129,25.8686077 59.9809677,25.578643 59.7027819,25.1165047 C59.5636889,24.8899664 59.4941435,24.6362473 59.4941435,24.3553397 C59.4941435,24.0744322 59.526598,23.775406 59.5915081,23.4582524 C59.5915081,23.4129447 59.6007808,23.3449842 59.6193265,23.2543689 L59.6610542,23.0504854 C59.670327,22.8511316 59.6007816,22.7423948 59.4524158,22.7242718 L59.2994144,22.7242718 C59.2437772,22.7242718 59.10005,22.706149 58.8682284,22.6699028 L58.715227,22.6699028 C58.576134,22.6245952 58.4973159,22.5792882 58.4787702,22.5339805 C58.4694973,22.5158575 58.4648609,22.4297742 58.4648609,22.2757281 L58.534407,22.2213592 C58.5807714,22.185113 58.6085895,22.1624595 58.6178624,22.153398 C58.7569553,22.1080903 58.9655916,22.0355992 59.2437775,21.9359223 L59.341142,21.9087378 C59.4153249,21.9087378 59.5173249,21.8770229 59.647145,21.8135922 C59.6842364,21.7864076 59.7027819,21.7637541 59.7027819,21.745631 C59.7676919,21.7093849 59.8001464,21.6414244 59.8001464,21.5417475 C59.8650565,21.2064708 59.9346019,20.6990325 60.0087848,20.0194175 C60.0087848,19.8291252 59.9902393,19.6569587 59.9531479,19.5029126 C59.9160564,19.4847895 59.897511,19.4440133 59.897511,19.3805825 L59.897511,19.3126214 C59.897511,19.2401291 59.9624201,19.2038835 60.0922401,19.2038835 C60.2313331,19.1223297 60.4075148,19.0679613 60.6207906,19.0407767 C60.6857007,19.0135921 60.7506097,19 60.8155198,19 C60.8989755,19 60.98243,19.0226535 61.0658858,19.0679612 C61.2142516,19.1223304 61.4414333,19.1766988 61.7474378,19.231068 C61.8216207,19.2673141 61.8981206,19.3035597 61.97694,19.3398058 C62.0557593,19.376052 62.0951684,19.4213589 62.0951684,19.4757281 C62.187897,19.5391589 62.2203515,19.6524264 62.1925329,19.815534 C62.1554415,20.0511338 62.0673506,20.3093837 61.9282577,20.5902912 C61.7335276,21.0071218 61.6222549,21.2427181 61.5944363,21.2970873 C61.5944363,21.5326872 61.7149817,21.6957924 61.9560761,21.7864077 C62.1786248,21.8317154 62.4011702,21.8815531 62.6237189,21.9359223 C62.7164475,22.0084146 62.7628111,22.0899671 62.7628111,22.1805825 C62.7628111,22.2077671 62.748902,22.2304206 62.7210834,22.2485436 C62.7210834,22.2938513 62.6700835,22.3165048 62.568082,22.3165048 L62.4707174,22.384466 L61.9560761,22.4388349 C62.030259,22.4388349 61.9097136,22.4614884 61.5944363,22.5067961 C61.5666177,22.5339807 61.5202541,22.5475728 61.4553441,22.5475728 C61.4275255,22.5656958 61.3904346,22.5974107 61.3440703,22.6427184 C61.028793,22.8601952 60.875793,23.2770195 60.8850659,23.8932038 C60.9036116,24.3644036 61.0102479,24.8038814 61.204978,25.2116504 C61.2606152,25.2932042 61.3440697,25.3475726 61.4553441,25.3747572 C61.4831627,25.4110033 61.5480717,25.4291261 61.6500732,25.4291261 C61.863349,25.4653722 62.0348944,25.438188 62.1647145,25.3475727 C62.3687175,25.2569574 62.568081,25.1165057 62.7628111,24.9262135 Z" id="iet" fill="#FFFFFF" fill-rule="nonzero"></path>
            </g>
        </g>
        <g id="chinese" transform="translate(35.000000, 35.000000)" fill="#000000" fill-rule="nonzero" stroke="#FFFFFF" stroke-width="2">
            <path d="M53.5623565,31.2731267 L29.556527,6.45248746 C28.9731156,5.84917085 28.0270269,5.84917085 27.4435159,6.45248746 L3.43768632,31.2731267 C3.06176101,31.6618117 2.91384127,32.2277429 3.04940946,32.7592753 C3.18487804,33.2908078 3.58341466,33.7078151 4.09580465,33.8543702 C4.32988639,33.9213138 7.35023811,34.7729398 12.0644451,35.5731737 C17.1777201,36.5243912 22.6562383,37 28.5,37 C34.3437617,37 39.822261,36.5244256 44.9354981,35.5732767 C49.6497051,34.7730428 52.6700569,33.9213138 52.9041386,33.8544732 C53.4165286,33.7079181 53.8150652,33.2909108 53.9505338,32.7593783 C54.0862016,32.2277429 53.9382819,31.6618117 53.5623565,31.2731267 Z" id="Shape" transform="translate(28.500000, 21.500000) rotate(-14.000000) translate(-28.500000, -21.500000) "></path>
        </g>
        <path d="M32.8129463,47.1147682 L32.8129359,47.1147762 C32.2695452,47.5372563 31.7839476,47.9867673 31.3784003,48.4119562 L31.184615,48.615127 L31.0051975,48.3991629 C29.9248293,47.0987285 29.4604095,45.5501609 29.386449,44.0904835 L29.3694121,43.7542463 L29.6962128,43.8351601 C30.7359361,44.0925892 31.8809115,44.1681631 33.0479226,44.108114 C33.7659272,44.0711688 34.3474095,43.9934375 34.7009865,43.924467 C34.7272404,43.9193548 34.7452212,43.902114 34.7491675,43.8833567 C34.7526316,43.8669184 34.7449903,43.8489589 34.7263452,43.8367829 C32.1975686,42.1861153 30.9638348,39.9797391 31.0825132,37.3020546 C31.0836196,37.2771502 31.059147,37.2516535 31.0205113,37.2500856 C30.9837885,37.2483885 30.9561295,37.2727693 30.9549816,37.298748 C30.9018457,38.4979746 31.1240576,39.6210049 31.6150645,40.6391752 C32.1284845,41.7037844 32.9399406,42.6590834 34.0356815,43.4861208 L34.5378288,43.8651288 L33.9125012,43.9341533 C32.3477079,44.1068774 30.7397653,44.0561356 29.3394045,43.6306125 C29.3178665,43.6240701 29.2941427,43.627483 29.2765586,43.6391402 C29.2619246,43.6488416 29.2540459,43.6623681 29.2533242,43.6756126 C29.2324073,44.0613315 29.2702049,44.6832147 29.438065,45.4294409 C29.7115644,46.6452889 30.2559814,47.7790275 31.1410879,48.7292062 C31.152948,48.7419444 31.1717543,48.75 31.1923899,48.75 C31.1944099,48.7499955 31.1944099,48.7499955 31.1937865,48.7499983 C31.2146883,48.7496322 31.2335915,48.7409163 31.2453019,48.7273868 C31.3313558,48.6281317 31.4931667,48.4537159 31.7121554,48.2361786 C32.074243,47.8764909 32.4742666,47.5186451 32.9017655,47.1862678 C32.9243893,47.1686761 32.9271888,47.1427932 32.9103259,47.1229282 C32.8879922,47.0966184 32.8421312,47.0920748 32.8129463,47.1147682 Z" id="Path" stroke="#FFFFFF" stroke-width="0.5" fill="#FFFFFF" fill-rule="nonzero"></path>
        <path d="M41.75,39.5 C41.75,39.3623643 41.6376357,39.25 41.5,39.25 C41.3623643,39.25 41.25,39.3623643 41.25,39.5 C41.25,39.6376357 41.3623643,39.75 41.5,39.75 C41.6376005,39.75 41.75,39.6376005 41.75,39.5 Z" id="Path" stroke="#FFFFFF" stroke-width="0.5" fill="#FFFFFF" fill-rule="nonzero"></path>
        <path d="M47.7209364,36.5780207 C47.1425188,36.5077032 46.3818049,36.6114417 45.836604,37.1049412 C45.6834511,37.2435828 45.5525112,37.4129266 45.4418274,37.6093753 L45.0908522,38.2323085 L44.9771981,37.5263962 C44.8725559,36.8764566 44.7071374,36.2194375 44.4820506,35.5613766 C44.421448,35.3841441 44.3569458,35.2080783 44.2886551,35.032824 L44.1976774,34.7993484 L44.4313614,34.7089073 C44.9971399,34.489938 45.4873511,34.1381816 45.7608596,33.6351271 C46.122894,32.9692707 46.0769725,32.1483472 45.9014663,31.5549567 C45.8947978,31.5324315 45.8800018,31.523462 45.8689241,31.5261466 C45.3013448,31.6636514 44.613682,32.0319405 44.2538823,32.6937332 C44.1417756,32.8999286 44.0676307,33.1315615 44.0276302,33.3839021 L43.9122629,34.1116895 L43.5609542,33.4639501 C43.3334829,33.0445408 43.1176265,32.6972057 42.9338382,32.4320355 L42.8926432,32.248938 C43.0030181,31.5797597 42.9519034,30.8619986 42.6068461,30.3093715 C42.2094966,29.6729377 41.5016135,29.3501507 40.9283853,29.2502895 C40.9165663,29.2482442 40.9012795,29.2588827 40.8957494,29.2826374 C40.7552479,29.8860577 40.7573799,30.7087214 41.1573565,31.3492824 C41.5056814,31.9071183 42.1150107,32.2363051 42.7366666,32.3867522 L42.8835153,32.4875878 C43.4154666,33.2571815 43.9948718,34.3335699 44.4324344,35.6188688 C44.4400791,35.641631 44.4400791,35.641631 44.4469166,35.662537 C44.4516137,35.6768944 44.4516137,35.6768944 44.456059,35.6902999 L44.7343408,36.5239312 L44.0589558,35.9615818 C43.883333,35.815352 43.6979211,35.704348 43.5018937,35.6329913 C42.8260093,35.3869357 42.0803216,35.5866276 41.5688376,35.8762274 C41.5509116,35.8863816 41.5408752,35.9171365 41.5519628,35.9437389 C41.7876025,36.5089155 42.2623111,37.1567015 42.9416053,37.4039811 C43.1351517,37.4744343 43.3422425,37.5077748 43.5606152,37.5077748 C43.9000017,37.5077748 44.2451907,37.4287093 44.5701039,37.3008824 L44.8575909,37.1877797 L44.9082465,37.4925337 C44.9880685,37.9727585 45.0339171,38.4476771 45.045442,38.914892 C45.0502328,39.1090515 45.0484776,39.3067059 45.0405691,39.5101362 L45.0290953,39.8052765 L43.7178302,39.5328644 L43.5550199,39.4178938 C43.2023447,38.8373751 42.6712826,38.3291397 41.9796042,38.1431708 C41.3335898,37.9694733 40.6394721,38.1164102 39.9033474,38.5933461 L39.6876365,38.620465 C39.2553235,38.4749071 38.8372541,38.2488025 38.4430199,37.9474498 C38.4317977,37.9388719 38.4191801,37.9410076 38.4084839,37.9566102 C38.3921827,37.9803887 38.3976487,38.0164069 38.4170051,38.0312068 C38.6832229,38.2347035 38.9597528,38.4041883 39.2437576,38.538327 L39.7091378,38.7581312 L39.2486705,38.9880494 C38.0039403,39.6095619 36.7678788,39.4810356 35.6297247,38.8552774 C35.3303198,38.6906637 35.0347029,38.4874976 34.7478955,38.250392 L34.6573595,38.0670003 C34.6150258,36.9285722 34.7911256,35.5655469 35.3683504,34.2874219 L35.6114273,33.7491866 L35.828665,34.29836 C36.2460048,35.3533884 36.8240998,36.3926734 37.5703697,37.2355253 C37.5814566,37.2480497 37.5936497,37.2484818 37.6048547,37.2374148 C37.6236482,37.2188531 37.624823,37.1818804 37.6066611,37.1613713 C37.0276254,36.5073926 36.5429423,35.7160011 36.1466241,34.8617971 C35.9079043,34.3472727 35.7453015,33.9085092 35.6702657,33.6606157 C35.6613587,33.6310746 35.630864,33.6271618 35.618278,33.6489026 C34.9311954,34.8357115 34.6302734,36.2055517 34.5924854,37.5381578 L34.5754972,38.137252 L34.1617253,37.7036678 C33.8198328,37.3454046 33.5069534,36.9438725 33.2339618,36.5119658 C32.6320311,35.5596196 32.270196,34.5300137 32.2430935,33.6764549 C32.2423956,33.6544581 32.2283162,33.6356799 32.2167238,33.6323541 C32.2089823,33.630131 32.1956553,33.6359067 32.1879859,33.6498493 C32.1008917,33.80823 31.9673133,34.088893 31.8183799,34.4702497 C31.5746396,35.0943673 31.3754465,35.7803034 31.2507913,36.5078635 C31.2460571,36.5354923 31.2637056,36.5623595 31.277929,36.5650828 C31.2882114,36.5670511 31.3070554,36.5532487 31.3111798,36.5291513 C31.4286387,35.8436546 31.6157383,35.1903699 31.8461269,34.5869154 L32.1267872,33.8517846 L32.3218788,34.6141013 C32.4865597,35.2575891 32.7864473,35.9376796 33.1889433,36.5745268 C33.8375512,37.6006867 34.6993958,38.4426139 35.6109429,38.9438139 C36.240992,39.2902348 36.9085636,39.489274 37.5977141,39.4892408 C38.3409926,39.4892003 39.0833865,39.2566259 39.8197138,38.7501854 C40.5686675,38.235083 41.2937225,38.0555597 41.9654136,38.2343668 C42.7521085,38.4436338 43.2879672,39.0427879 43.5675305,39.5813238 C43.5733516,39.5927175 43.5814998,39.5990588 43.5888963,39.6005933 L44.9697264,39.8874253 L44.6960009,40.2085557 C43.7986518,41.2613116 42.9598002,42.3862507 42.4174942,43.3806906 C41.8278945,44.4618657 40.9379872,45.1811161 39.7117975,45.5698056 C38.7562184,45.8726978 37.6350278,45.969791 36.1865158,45.8784393 C35.462154,45.8328711 34.6476466,46.0932159 33.7676326,46.6607525 C33.7515281,46.6711423 33.741934,46.7046817 33.7524208,46.7283495 C33.7611802,46.7481187 33.7794205,46.7539398 33.7896431,46.7473488 C34.6533135,46.1903348 35.4582769,45.9263344 36.1844152,45.9721748 C39.2345782,46.1647219 41.3129568,45.5515849 42.4656841,43.4376815 C42.9352503,42.5765912 43.6456002,41.596853 44.4548444,40.6154948 L45.0736112,39.8651258 L44.8933947,40.8208705 C44.7701182,41.4746449 44.5741842,42.107259 44.3066398,42.7138686 C44.2959358,42.7381293 44.3059074,42.7718154 44.3221989,42.7818779 C44.3323213,42.7881285 44.3502679,42.7821981 44.3588243,42.7627978 C44.7617792,41.849173 45.0040578,40.8807979 45.0829767,39.8649301 L45.0829752,39.8649435 C45.0827353,39.867767 45.0827353,39.867767 45.0831048,39.8611442 C45.0831473,39.8603047 45.0831473,39.8603047 45.0835784,39.8533094 C45.0968115,39.6780074 45.1050037,39.4999439 45.1082475,39.31896 L45.1126265,39.0746483 L45.3569744,39.0734432 C45.9625616,39.0704564 46.5420781,38.9137641 46.9616801,38.5339075 C47.5110295,38.0366567 47.7274053,37.2477432 47.749956,36.6271933 C47.750954,36.5993062 47.735262,36.5798836 47.7209363,36.5780212 Z M47.7209363,36.5780212 C47.7208931,36.5780155 47.7208499,36.5780101 47.7208067,36.5780048 L47.7210662,36.5780365 C47.721023,36.5780312 47.7209797,36.578026 47.7209364,36.5780207 Z M44.3021829,32.7505258 C44.5654006,32.2663906 45.0318302,31.9352971 45.5747192,31.7202128 L45.86332,31.6058737 L45.9135124,31.9122143 C46.0111882,32.5083617 45.9756466,33.0943842 45.712553,33.5782661 C45.4493228,34.0623865 44.9827649,34.393571 44.4399963,34.6085419 L44.1513899,34.7228484 L44.1012241,34.4165103 C44.003583,33.8202635 44.0391069,33.2343756 44.3021855,32.7505211 Z M42.9537572,37.3124274 C42.4505203,37.129247 42.0562358,36.7094656 41.7548114,36.1885008 L41.6096034,35.9375317 L41.87921,35.83084 C42.4243005,35.6151309 42.9842192,35.5404552 43.4897123,35.7245083 C43.9929624,35.9076934 44.3872751,36.3275158 44.6886649,36.8484862 L44.8338607,37.099466 L44.5642442,37.2061412 C44.0192945,37.4217534 43.459236,37.4964119 42.953762,37.3124291 Z M41.2026032,31.2872499 C40.9129583,30.8233769 40.8434784,30.2403383 40.9053066,29.636773 L40.9367436,29.3298862 L41.2304574,29.424226 C41.7837817,29.6019517 42.2687558,29.9024157 42.5616104,30.3713821 C42.8510471,30.8349446 42.920625,31.4175223 42.8590251,32.0208601 L42.8276106,32.3285477 L42.5333473,32.2333236 C41.9788109,32.0538746 41.4937732,31.7535323 41.2026074,31.2872566 Z M46.9313132,38.4536887 C46.5271794,38.8194965 45.9803001,38.9674878 45.3987075,38.9784335 L45.0992669,38.9840691 L45.14723,38.688441 C45.2441765,38.0908963 45.4636107,37.5501721 45.8670023,37.1850468 C46.2708755,36.8194858 46.8173333,36.6714409 47.3986597,36.6603061 L47.6988033,36.654557 L47.6501409,36.9507854 C47.5517248,37.5498854 47.3324194,38.090643 46.9313077,38.4536936 Z" id="Shape" stroke="#FFFFFF" stroke-width="0.5" fill="#FFFFFF" fill-rule="nonzero"></path>
        <path d="M20.8129463,33.1147682 L20.8129359,33.1147762 C20.2695452,33.5372563 19.7839476,33.9867673 19.3784003,34.4119562 L19.184615,34.615127 L19.0051975,34.3991629 C17.9248293,33.0987285 17.4604095,31.5501609 17.386449,30.0904835 L17.3694121,29.7542463 L17.6962128,29.8351601 C18.7359361,30.0925892 19.8809115,30.1681631 21.0479226,30.108114 C21.7659272,30.0711688 22.3474095,29.9934375 22.7009865,29.924467 C22.7272404,29.9193548 22.7452212,29.902114 22.7491675,29.8833567 C22.7526316,29.8669184 22.7449903,29.8489589 22.7263452,29.8367829 C20.1975686,28.1861153 18.9638348,25.9797391 19.0825132,23.3020546 C19.0836196,23.2771502 19.059147,23.2516535 19.0205113,23.2500856 C18.9837885,23.2483885 18.9561295,23.2727693 18.9549816,23.298748 C18.9018457,24.4979746 19.1240576,25.6210049 19.6150645,26.6391752 C20.1284845,27.7037844 20.9399406,28.6590834 22.0356815,29.4861208 L22.5378288,29.8651288 L21.9125012,29.9341533 C20.3477079,30.1068774 18.7397653,30.0561356 17.3394045,29.6306125 C17.3178665,29.6240701 17.2941427,29.627483 17.2765586,29.6391402 C17.2619246,29.6488416 17.2540459,29.6623681 17.2533242,29.6756126 C17.2324073,30.0613315 17.2702049,30.6832147 17.438065,31.4294409 C17.7115644,32.6452889 18.2559814,33.7790275 19.1410879,34.7292062 C19.152948,34.7419444 19.1717543,34.75 19.1923899,34.75 C19.1944099,34.7499955 19.1944099,34.7499955 19.1937865,34.7499983 C19.2146883,34.7496322 19.2335915,34.7409163 19.2453019,34.7273868 C19.3313558,34.6281317 19.4931667,34.4537159 19.7121554,34.2361786 C20.074243,33.8764909 20.4742666,33.5186451 20.9017655,33.1862678 C20.9243893,33.1686761 20.9271888,33.1427932 20.9103259,33.1229282 C20.8879922,33.0966184 20.8421312,33.0920748 20.8129463,33.1147682 Z" id="Path" stroke="#FFFFFF" stroke-width="0.5" fill="#FFFFFF" fill-rule="nonzero"></path>
        <path d="M28.75,25.5 C28.75,25.3623643 28.6376357,25.25 28.5,25.25 C28.3623643,25.25 28.25,25.3623643 28.25,25.5 C28.25,25.6376357 28.3623643,25.75 28.5,25.75 C28.6376005,25.75 28.75,25.6376005 28.75,25.5 Z" id="Path" stroke="#FFFFFF" stroke-width="0.5" fill="#FFFFFF" fill-rule="nonzero"></path>
        <path d="M34.7337048,22.5777859 C34.1957663,22.5083062 33.4875648,22.610924 32.9792581,23.0997845 C32.8355689,23.2379888 32.7124071,23.4072285 32.6081801,23.6037791 L32.253546,24.2725454 L32.1401343,23.5241127 C32.0415358,22.8734359 31.8856875,22.2157407 31.6736473,21.5570777 C31.6165656,21.3797083 31.5558128,21.2035127 31.4914939,21.028135 L31.4086759,20.802316 L31.6311289,20.7108406 C32.1607052,20.4930725 32.6195585,20.1432389 32.8767357,19.6406583 C33.2190513,18.9717195 33.1756429,18.1472215 33.009698,17.5510916 C33.0036458,17.5293705 32.9984139,17.5260007 33.0012007,17.5252831 C32.4709478,17.6617739 31.8281232,18.0275662 31.4900801,18.6882021 C31.3841467,18.8952207 31.3140081,19.1280328 31.2761698,19.3816514 L31.1610221,20.1534534 L30.806239,19.4584237 C30.5920758,19.0388724 30.3888628,18.6914447 30.2158452,18.4262127 L30.1781923,18.2512733 C30.2824799,17.5794832 30.2341484,16.8583855 29.9081366,16.303628 C29.5353022,15.669137 28.8742043,15.3488427 28.3392753,15.2498292 C28.3412073,15.2501844 28.3339213,15.2555718 28.3286873,15.2794599 C28.1958517,15.885613 28.1978672,16.7119074 28.5758189,17.3550261 C28.902788,17.9113883 29.472153,18.2382094 30.0531873,18.3876141 L30.2004867,18.4934095 C30.7009608,19.2627172 31.2460711,20.3386866 31.6576279,21.6231527 C31.6647918,21.6458166 31.6647918,21.6458166 31.6712209,21.6667022 C31.6756449,21.68107 31.6756449,21.68107 31.6798445,21.6945262 L31.949502,22.5528093 L31.2756893,21.9567041 C31.111627,21.8115623 30.9388337,21.7016473 30.7567902,21.6312392 C30.1306274,21.3890376 29.4357384,21.5867564 28.9600876,21.8728996 C28.9455965,21.8816211 28.9345869,21.9174667 28.9468085,21.9486226 C29.1681178,22.5126033 29.6150396,23.1605883 30.2488553,23.4057328 C30.427967,23.4750066 30.6195302,23.5077748 30.8217555,23.5077748 C31.1370244,23.5077748 31.4586178,23.4295101 31.7615875,23.3028665 L32.0557264,23.1799143 L32.1050006,23.4948857 C32.1800275,23.9744732 32.2231186,24.448725 32.2339496,24.9152545 C32.2384512,25.1090937 32.2368018,25.3064378 32.2293696,25.5095657 L32.2184074,25.8091688 L30.9636966,25.5322143 L30.8005546,25.4121832 C30.4695155,24.833222 29.9710297,24.3263465 29.3261674,24.1421285 C28.7265264,23.9708229 28.0812802,24.1159512 27.3934374,24.5894586 L27.2879983,24.6620423 L27.1674715,24.6189252 C26.7584475,24.4726014 26.3633381,24.2456098 25.9911209,23.9434121 C25.9917781,23.9425551 25.9929401,23.9442053 25.9886902,23.9507921 C25.9712345,23.9778461 25.9774175,24.0211351 25.9954275,24.0357663 C26.2451693,24.2386 26.5044143,24.4074217 26.7704737,24.5409384 L27.203425,24.7582066 L26.7755066,24.9852269 C25.5956074,25.6111896 24.4222295,25.4815557 23.3446476,24.8520717 C23.0618961,24.6868979 22.7829106,24.4831785 22.5123673,24.2455398 L22.4275052,24.0664545 C22.3877272,22.9298965 22.553221,21.5689049 23.0957499,20.2925242 L23.3411965,19.7150743 L23.5601177,20.3030929 C23.9531042,21.3586481 24.4974446,22.3984124 25.1997685,23.2412071 C25.2022248,23.2441554 25.2012434,23.2453982 25.2004265,23.2453364 C25.2195584,23.2229269 25.2208761,23.1781659 25.202143,23.1556898 C24.6570898,22.501617 24.2010704,21.7104907 23.8282127,20.8566248 C23.6037028,20.342484 23.450812,19.9041423 23.3803174,19.6566959 C23.373057,19.6311111 23.3694023,19.6306129 23.3625107,19.6432614 C22.7151275,20.8313865 22.4314898,22.2032435 22.3958742,23.5377413 L22.3791385,24.1648158 L21.9599705,23.6981246 C21.6380305,23.3396847 21.3435027,22.9380802 21.0865906,22.506209 C20.5206712,21.5548775 20.1806894,20.5269914 20.1552575,19.675989 C20.154507,19.6508538 20.1415817,19.6325376 20.1371376,19.6311829 C20.1416918,19.6325724 20.1395009,19.6335813 20.1339534,19.6442967 C20.0518651,19.8029039 19.9260213,20.0838416 19.7857178,20.4655541 C19.556082,21.0903061 19.3684036,21.7769833 19.2509357,22.5054447 C19.2457637,22.5375152 19.2625738,22.5647054 19.2671692,22.5656403 C19.2632043,22.5648339 19.2739694,22.5564561 19.2779782,22.5315701 C19.388387,21.8469462 19.5642873,21.1943793 19.780901,20.5915443 L20.0635161,19.8050277 L20.2592224,20.6175415 C20.4144745,21.2621014 20.6970401,21.9429594 21.0761436,22.5802836 C21.6863488,23.6060244 22.4966245,24.4470464 23.3524517,24.9470198 C23.9422342,25.2915685 24.566326,25.4892737 25.2096117,25.4892408 C25.9034314,25.4892006 26.5970692,25.2583191 27.2867412,24.7543208 C27.9964564,24.235698 28.686848,24.0540735 29.3278973,24.2353894 C29.7666479,24.3593949 30.1420227,24.6388812 30.4578681,25.0141062 C30.6451347,25.2365793 30.7768273,25.4491544 30.8440383,25.5867264 C30.8491087,25.5972713 30.8537358,25.6010973 30.8543983,25.6012433 L32.15807,25.8889729 L31.9062884,26.2028208 C31.0617269,27.2555737 30.272246,28.3804751 29.7617178,29.3751538 C29.2064741,30.4569647 28.3665873,31.1782134 27.2080353,31.5684155 C26.3050366,31.8725303 25.2462078,31.9699539 23.8795266,31.878376 C23.2046031,31.8332641 22.4432433,32.091831 21.6186211,32.6568828 C21.6049244,32.6662715 21.5944151,32.7053065 21.606131,32.733401 C21.6128125,32.749423 21.613859,32.7497779 21.6117581,32.7512171 C22.4282405,32.1917251 23.1909952,31.925933 23.8813562,31.9722386 C26.7451188,32.1643176 28.6920407,31.554064 29.7753912,29.4432183 C30.2172185,28.5823567 30.8857873,27.6026123 31.6474192,26.6212667 L32.2402107,25.8574682 C32.2402583,25.8566458 32.2403164,25.8556425 32.2403878,25.8544106 C32.2528624,25.6788277 32.2605848,25.5004847 32.2636425,25.3192234 L32.267767,25.0747249 L32.5122969,25.0734436 C33.0766397,25.0704863 33.6159441,24.9155529 34.0073625,24.539064 C34.5242498,24.0419549 34.7286639,23.2500731 34.7499497,22.6277186 C34.7509985,22.5965823 34.7375908,22.5786611 34.7336974,22.5777912 Z M25.9911209,23.9434121 C25.9909068,23.9432383 25.9906926,23.9430644 25.9904785,23.9428905 C25.990165,23.9426359 25.990506,23.9423629 25.9909122,23.9424243 Z M25.2004265,23.2453364 C25.1997631,23.2452863 25.1992082,23.2443756 25.2006914,23.2428191 C25.2007117,23.2427978 25.200732,23.2427765 25.2007522,23.2427552 Z M34.7336974,22.5777912 C34.7336528,22.5777812 34.7336094,22.5777735 34.7335673,22.577768 L34.7338423,22.5778037 C34.7337965,22.5777977 34.7337507,22.5777918 34.7337048,22.5777859 Z M31.5038636,18.7560569 C31.7518374,18.2714536 32.1933448,17.9384635 32.7070555,17.7222189 L33.0023063,17.5979342 L33.0511284,17.9145351 C33.1426722,18.5081774 33.1093962,19.0911353 32.8629468,19.5727348 C32.614961,20.0573237 32.1733323,20.3904053 31.6597333,20.6065368 L31.3644783,20.7307853 L31.3156826,20.4141906 C31.2241711,19.8204485 31.2574305,19.2376244 31.503866,18.7560523 Z M30.2408978,23.3106757 C29.7624468,23.1256326 29.3906293,22.7050296 29.1062798,22.1828605 L28.974039,21.9400183 L29.2289377,21.8328425 C29.7474528,21.6148256 30.2811759,21.5391947 30.7647204,21.72626 C31.243184,21.9113079 31.6150282,22.331952 31.8993447,22.8541263 L32.0315748,23.0969793 L31.7766648,23.2041393 C31.2582832,23.4220585 30.7244295,23.4976716 30.2409029,23.3106776 Z M28.5864962,17.2815062 C28.3149691,16.8194709 28.2499079,16.2393896 28.3078646,15.6382574 L28.3382089,15.3235235 L28.637456,15.4256479 C29.1615873,15.6045188 29.6211996,15.9070668 29.8974696,16.3771257 C30.1688016,16.8388521 30.2339545,17.4184747 30.1762118,18.0193805 L30.1458861,18.3349678 L29.8460719,18.2318836 C29.3208366,18.0512935 28.8611784,17.7488774 28.5865001,17.2815128 Z M34.0095724,24.4485322 C33.6257396,24.8176788 33.105105,24.9673735 32.5522954,24.9784278 L32.2553259,24.9843662 L32.3001618,24.6907408 C32.3911885,24.0946172 32.5970225,23.555706 32.9770776,23.1902032 C33.3606623,22.8213062 33.8808956,22.6715572 34.4334519,22.660312 L34.7310901,22.6542546 L34.6856032,22.9484589 C34.5931927,23.5461587 34.387478,24.0851077 34.009567,24.4485374 Z" id="Shape" stroke="#FFFFFF" stroke-width="0.5" fill="#FFFFFF" fill-rule="nonzero"></path>
        <path d="M7.81294634,20.1147682 L7.81293595,20.1147762 C7.26954515,20.5372563 6.78394763,20.9867673 6.37840035,21.4119562 L6.18461502,21.615127 L6.00519751,21.3991629 C4.9248293,20.0987285 4.46040951,18.5501609 4.38644896,17.0904835 L4.36941212,16.7542463 L4.69621285,16.8351601 C5.73593609,17.0925892 6.88091149,17.1681631 8.0479226,17.108114 C8.76592719,17.0711688 9.3474095,16.9934375 9.70098655,16.924467 C9.72724036,16.9193548 9.7452212,16.902114 9.74916745,16.8833567 C9.75263159,16.8669184 9.7449903,16.8489589 9.72634524,16.8367829 C7.19756856,15.1861153 5.96383475,12.9797391 6.08251315,10.3020546 C6.08361964,10.2771502 6.05914696,10.2516535 6.02051132,10.2500856 C5.98378854,10.2483885 5.95612953,10.2727693 5.9549816,10.298748 C5.9018457,11.4979746 6.12405763,12.6210049 6.61506455,13.6391752 C7.12848455,14.7037844 7.93994056,15.6590834 9.03568147,16.4861208 L9.53782877,16.8651288 L8.91250118,16.9341533 C7.34770788,17.1068774 5.73976525,17.0561356 4.33940451,16.6306125 C4.31786648,16.6240701 4.29414266,16.627483 4.27655856,16.6391402 C4.26192463,16.6488416 4.25404592,16.6623681 4.25332416,16.6756126 C4.23240732,17.0613315 4.27020488,17.6832147 4.43806501,18.4294409 C4.71156442,19.6452889 5.25598143,20.7790275 6.14108792,21.7292062 C6.15294805,21.7419444 6.17175428,21.75 6.18816927,21.7500356 C6.21454938,21.7495902 6.23352577,21.7409923 6.24530187,21.7273868 C6.33135582,21.6281317 6.49316665,21.4537159 6.7121554,21.2361786 C7.07424302,20.8764909 7.47426658,20.5186451 7.90176547,20.1862678 C7.92438934,20.1686761 7.92718878,20.1427932 7.91032592,20.1229282 C7.88799222,20.0966184 7.84213123,20.0920748 7.81294634,20.1147682 Z" id="Path" stroke="#FFFFFF" stroke-width="0.5" fill="#FFFFFF" fill-rule="nonzero"></path>
        <path d="M16.75,12.5 C16.75,12.3623643 16.6376357,12.25 16.5,12.25 C16.3623643,12.25 16.25,12.3623643 16.25,12.5 C16.25,12.6376357 16.3623643,12.75 16.5,12.75 C16.6376005,12.75 16.75,12.6376005 16.75,12.5 Z" id="Path" stroke="#FFFFFF" stroke-width="0.5" fill="#FFFFFF" fill-rule="nonzero"></path>
        <path d="M22.7209364,9.57802071 C22.1425188,9.50770317 21.3818049,9.61144166 20.836604,10.1049412 C20.6834511,10.2435828 20.5525112,10.4129266 20.4418274,10.6093753 L20.0908522,11.2323085 L19.9771981,10.5263962 C19.8725559,9.87645665 19.7071374,9.21943746 19.4820506,8.56137663 C19.421448,8.3841441 19.3569458,8.20807828 19.2886551,8.03282405 L19.1976774,7.7993484 L19.4313614,7.7089073 C19.9971399,7.48993801 20.4873511,7.13818162 20.7608596,6.63512706 C21.122894,5.96927067 21.0769725,5.14834722 20.9014663,4.55495674 C20.8947978,4.53243151 20.8800018,4.52346196 20.8689241,4.52614663 C20.3013448,4.66365141 19.613682,5.03194045 19.2538823,5.69373322 C19.1417756,5.89992856 19.0676307,6.13156151 19.0276302,6.38390211 L18.9122629,7.11168953 L18.5609542,6.4639501 C18.3334829,6.04454079 18.1176265,5.69720566 17.9338382,5.43203547 L17.8926432,5.24893805 C18.0030181,4.57975969 17.9519034,3.8619986 17.6068461,3.30937153 C17.2094966,2.67293774 16.5016135,2.35015075 15.9283853,2.25028955 C15.9165663,2.24824423 15.9012795,2.25888272 15.8957494,2.28263744 C15.7552479,2.88605773 15.7573799,3.70872142 16.1573565,4.34928242 C16.5056814,4.90711832 17.1150107,5.23630514 17.7366666,5.38675219 L17.8835153,5.4875878 C18.4154666,6.25718151 18.9948718,7.33356985 19.4324344,8.61886879 C19.4400791,8.64163104 19.4400791,8.64163104 19.4469166,8.66253704 C19.4516137,8.67689443 19.4516137,8.67689443 19.456059,8.69029992 L19.7343408,9.52393116 L19.0589558,8.96158176 C18.883333,8.81535204 18.6979211,8.70434804 18.5018937,8.6329913 C17.8260093,8.38693569 17.0803216,8.58662757 16.5688376,8.87622743 C16.5509116,8.8863816 16.5408752,8.91713651 16.5519628,8.94373887 C16.7876025,9.50891548 17.2623111,10.1567015 17.9416053,10.4039811 C18.1351517,10.4744343 18.3422425,10.5077748 18.5606152,10.5077748 C18.9000017,10.5077748 19.2451907,10.4287093 19.5701039,10.3008824 L19.8575909,10.1877797 L19.9082465,10.4925337 C19.9880685,10.9727585 20.0339171,11.4476771 20.045442,11.914892 C20.0502328,12.1090515 20.0484776,12.3067059 20.0405691,12.5101362 L20.0290953,12.8052765 L18.7178302,12.5328644 L18.5550199,12.4178938 C18.2023447,11.8373751 17.6712826,11.3291397 16.9796042,11.1431708 C16.3335898,10.9694733 15.6394721,11.1164102 14.9033474,11.5933461 L14.6876365,11.620465 C14.2553235,11.4749071 13.8372541,11.2488025 13.4430199,10.9474498 C13.4317977,10.9388719 13.4191801,10.9410076 13.4084839,10.9566102 C13.3921827,10.9803887 13.3976487,11.0164069 13.4170051,11.0312068 C13.6832229,11.2347035 13.9597528,11.4041883 14.2437576,11.538327 L14.7091378,11.7581312 L14.2486705,11.9880494 C13.0039403,12.6095619 11.7678788,12.4810356 10.6297247,11.8552774 C10.3303198,11.6906637 10.0347029,11.4874976 9.74789545,11.250392 L9.65735945,11.0670003 C9.61502579,9.92857221 9.79112565,8.56554685 10.3683504,7.28742186 L10.6114273,6.7491866 L10.828665,7.29835997 C11.2460048,8.35338838 11.8240998,9.39267338 12.5703697,10.2355253 C12.5814566,10.2480497 12.5936497,10.2484818 12.6048547,10.2374148 C12.6236482,10.2188531 12.624823,10.1818804 12.6066611,10.1613713 C12.0276254,9.50739259 11.5429423,8.7160011 11.1466241,7.8617971 C10.9079043,7.34727273 10.7453015,6.90850924 10.6702657,6.66061568 C10.6613587,6.63107456 10.630864,6.62716181 10.618278,6.6489026 C9.9311954,7.83571151 9.63027341,9.20555172 9.59248541,10.5381578 L9.57549721,11.137252 L9.16172531,10.7036678 C8.81983276,10.3454046 8.50695342,9.94387252 8.23396183,9.51196578 C7.63203109,8.55961955 7.270196,7.53001369 7.24309351,6.67645494 C7.2423956,6.65445812 7.22831616,6.63567987 7.21672382,6.6323541 C7.20898227,6.630131 7.19565528,6.63590675 7.18798588,6.64984932 C7.10089166,6.80822997 6.96731335,7.08889296 6.81837988,7.47024967 C6.57463957,8.09436729 6.37544646,8.7803034 6.25079126,9.50786349 C6.2460571,9.53549232 6.26370556,9.56235951 6.27792895,9.56508282 C6.28821143,9.56705109 6.30705537,9.55324869 6.31117978,9.52915132 C6.4286387,8.84365463 6.6157383,8.19036991 6.8461269,7.5869154 L7.12678723,6.85178465 L7.32187879,7.61410133 C7.48655973,8.25758906 7.78644728,8.93767956 8.18894331,9.57452681 C8.83755123,10.6006867 9.69939577,11.4426139 10.6109429,11.9438139 C11.240992,12.2902348 11.9085636,12.489274 12.5977141,12.4892408 C13.3409926,12.4892003 14.0833865,12.2566259 14.8197138,11.7501854 C15.5686675,11.235083 16.2937225,11.0555597 16.9654136,11.2343668 C17.7521085,11.4436338 18.2879672,12.0427879 18.5675305,12.5813238 C18.5733516,12.5927175 18.5814998,12.5990588 18.5888963,12.6005933 L19.9697264,12.8874253 L19.6960009,13.2085557 C18.7986518,14.2613116 17.9598002,15.3862507 17.4174942,16.3806906 C16.8278945,17.4618657 15.9379872,18.1811161 14.7117975,18.5698056 C13.7562184,18.8726978 12.6350278,18.969791 11.1865158,18.8784393 C10.462154,18.8328711 9.64764656,19.0932159 8.7676326,19.6607525 C8.75152809,19.6711423 8.741934,19.7046817 8.75242082,19.7283495 C8.76118024,19.7481187 8.77942047,19.7539398 8.78964314,19.7473488 C9.65331349,19.1903348 10.4582769,18.9263344 11.1844152,18.9721748 C14.2345782,19.1647219 16.3129568,18.5515849 17.4656841,16.4376815 C17.9352503,15.5765912 18.6456002,14.596853 19.4548444,13.6154948 L20.0736112,12.8651258 L19.8933947,13.8208705 C19.7701182,14.4746449 19.5741842,15.107259 19.3066398,15.7138686 C19.2959358,15.7381293 19.3059074,15.7718154 19.3221989,15.7818779 C19.3323213,15.7881285 19.3502679,15.7821981 19.3588243,15.7627978 C19.7617792,14.849173 20.0040578,13.8807979 20.0829752,12.8649435 C20.0827353,12.867767 20.0827353,12.867767 20.0831048,12.8611442 C20.0831473,12.8603047 20.0831473,12.8603047 20.0835784,12.8533094 C20.0968115,12.6780074 20.1050037,12.4999439 20.1082475,12.31896 L20.1126265,12.0746483 L20.3569744,12.0734432 C20.9625616,12.0704564 21.5420781,11.9137641 21.9616801,11.5339075 C22.5110295,11.0366567 22.7274053,10.2477432 22.749956,9.62719329 C22.750954,9.59930623 22.735262,9.57988364 22.7209363,9.57802116 Z M22.7209363,9.57802116 C22.7208931,9.57801554 22.7208499,9.57801008 22.7208067,9.57800478 L22.7210662,9.57803649 C22.721023,9.57803123 22.7209797,9.57802597 22.7209364,9.57802071 Z M19.3021829,5.75052583 C19.5654006,5.26639058 20.0318302,4.93529712 20.5747192,4.72021285 L20.86332,4.60587368 L20.9135124,4.91221426 C21.0111882,5.50836167 20.9756466,6.09438416 20.712553,6.57826606 C20.4493228,7.0623865 19.9827649,7.39357104 19.4399963,7.60854191 L19.1513899,7.72284836 L19.1012241,7.41651032 C19.003583,6.82026349 19.0391069,6.23437561 19.3021855,5.75052107 Z M17.9537572,10.3124274 C17.4505203,10.129247 17.0562358,9.70946556 16.7548114,9.18850082 L16.6096034,8.93753171 L16.87921,8.83084004 C17.4243005,8.61513093 17.9842192,8.54045522 18.4897123,8.72450825 C18.9929624,8.90769341 19.3872751,9.32751584 19.6886649,9.84848617 L19.8338607,10.099466 L19.5642442,10.2061412 C19.0192945,10.4217534 18.459236,10.4964119 17.953762,10.3124291 Z M16.2026032,4.28724986 C15.9129583,3.82337694 15.8434784,3.24033829 15.9053066,2.63677299 L15.9367436,2.32988624 L16.2304574,2.42422601 C16.7837817,2.60195174 17.2687558,2.9024157 17.5616104,3.37138211 C17.8510471,3.8349446 17.920625,4.41752227 17.8590251,5.02086014 L17.8276106,5.32854774 L17.5333473,5.23332359 C16.9788109,5.05387458 16.4937732,4.75353234 16.2026074,4.28725657 Z M21.9313132,11.4536887 C21.5271794,11.8194965 20.9803001,11.9674878 20.3987075,11.9784335 L20.0992669,11.9840691 L20.14723,11.688441 C20.2441765,11.0908963 20.4636107,10.5501721 20.8670023,10.1850468 C21.2708755,9.8194858 21.8173333,9.6714409 22.3986597,9.66030605 L22.6988033,9.65455704 L22.6501409,9.95078537 C22.5517248,10.5498854 22.3324194,11.090643 21.9313077,11.4536936 Z" id="Shape" stroke="#FFFFFF" stroke-width="0.5" fill="#FFFFFF" fill-rule="nonzero"></path>
    </g>
</svg>