<?xml version="1.0" encoding="UTF-8"?>
<svg width="28px" height="27px" viewBox="0 0 28 27" version="1.1" xmlns="http://www.w3.org/2000/svg" xmlns:xlink="http://www.w3.org/1999/xlink">
    <!-- Generator: Sketch 53.2 (72643) - https://sketchapp.com -->
    <title>instagram</title>
    <desc>Created with Sketch.</desc>
    <g id="Symbols" stroke="none" stroke-width="1" fill="none" fill-rule="evenodd">
        <g id="footer" transform="translate(-600.000000, -54.000000)">
            <g id="Group-4">
                <g transform="translate(363.000000, 24.000000)">
                    <g id="Group-3" transform="translate(184.000000, 30.000000)">
                        <g id="instagram" transform="translate(53.000000, 0.000000)">
                            <rect id="Rectangle" x="0" y="0" width="28" height="27"></rect>
                            <ellipse id="Oval" stroke="#FFFFFF" cx="14" cy="13.5" rx="13.5" ry="13"></ellipse>
                            <path d="M18.4875941,8 L10.5124059,8 C9.12741063,8 8,9.03998119 8,10.3191439 L8,17.6808561 C8,18.9600188 9.12741063,20 10.5124059,20 L18.4875941,20 C19.8725894,20 21,18.9600188 21,17.6808561 L21,10.3191439 C21,9.03998119 19.8725894,8 18.4875941,8 L18.4875941,8 Z M19.2083725,9.3835842 L19.4957667,9.3821731 L19.4957667,11.4162747 L17.2990357,11.4226246 L17.2913923,9.38852305 L19.2083725,9.3835842 L19.2083725,9.3835842 Z M12.6449318,12.7681091 C13.0607361,12.2361242 13.7364182,11.8875823 14.5,11.8875823 C15.2635818,11.8875823 15.9392639,12.2361242 16.3550682,12.7681091 C16.6264111,13.1152399 16.7884525,13.5399812 16.7884525,14 C16.7884525,15.164158 15.7619356,16.1117121 14.5,16.1117121 C13.2388288,16.1117121 12.2123119,15.164158 12.2123119,14 C12.2123119,13.5399812 12.3743532,13.1152399 12.6449318,12.7681091 L12.6449318,12.7681091 Z M19.7334784,17.6808561 C19.7334784,18.3151458 19.1747413,18.8309031 18.4875941,18.8309031 L10.5124059,18.8309031 C9.8252587,18.8309031 9.26652164,18.3151458 9.26652164,17.6808561 L9.26652164,12.7681091 L11.207961,12.7681091 C11.0398048,13.1491063 10.9457902,13.5646754 10.9457902,14 C10.9457902,15.809031 12.5402164,17.2815146 14.5,17.2815146 C16.460548,17.2815146 18.0549741,15.809031 18.0549741,14 C18.0549741,13.5646754 17.9594309,13.1491063 17.7928034,12.7681091 L19.7334784,12.7681091 L19.7334784,17.6808561 L19.7334784,17.6808561 Z" id="Shape" fill="#FFFFFF"></path>
                        </g>
                    </g>
                </g>
            </g>
        </g>
    </g>
</svg>