<?xml version="1.0" encoding="UTF-8"?>
<svg width="90px" height="92px" viewBox="0 0 90 92" version="1.1" xmlns="http://www.w3.org/2000/svg" xmlns:xlink="http://www.w3.org/1999/xlink">
    <!-- Generator: Sketch 53.2 (72643) - https://sketchapp.com -->
    <title>LOGO Thiện Copy</title>
    <desc>Created with Sketch.</desc>
    <g id="Symbols" stroke="none" stroke-width="1" fill="none" fill-rule="evenodd">
        <g id="header-chuẩn" transform="translate(-29.000000, -10.000000)">
            <g id="header-copy" transform="translate(27.000000, 9.000000)">
                <g id="LOGO-Thiện-header">
                    <g id="Group-3" transform="translate(34.707692, 44.107692)">
                        <g id="elephant-black---red-eye" fill-rule="nonzero" stroke="#FFFFFF" stroke-width="2">
                            <g id="Group" transform="translate(27.838462, 23.861538) scale(-1, 1) rotate(-180.000000) translate(-27.838462, -23.861538) translate(0.000000, -0.000000)">
                                <g transform="translate(0.000000, -0.000000)" id="Path">
                                    <g transform="translate(0.000000, -0.000000)">
                                        <path d="M31.7090941,47.3568268 C31.4074662,47.3568268 22.7646731,42.9038777 16.6307692,41.2153846 C13.7193839,40.4139612 0.730716213,38.3373415 0.728267893,38.3230769 C-0.974900622,28.3999619 1.25766873,10.0714114 2.69584946,7.23304342 C4.5082012,3.64857618 9.94837977,1.86009789 11.7607315,3.64857618 C13.5762066,5.44308983 11.7607315,5.44308983 9.94837977,9.02152171 C8.63508338,11.6187382 9.2283821,17.963779 10.342328,21.9480553 C10.3856473,21.6917537 10.4474351,21.4566429 10.4968654,21.2063767 C11.0979045,16.8252419 13.5762066,9.89584417 13.5762066,6.33726191 C13.5762066,0.897122705 16.8224428,0.0685348635 20.8287369,0.0685348635 C24.835031,0.0685348635 28.0828968,0.897122705 28.0828968,6.33726191 C28.0828968,6.70354119 28.0705392,7.04232605 28.0642926,7.39787581 C29.2339153,7.29862767 30.4359937,7.23304342 31.7090941,7.23304342 C32.4770282,7.23304342 33.2186177,7.2574531 33.9478496,7.29406762 C33.9416029,6.97513238 33.9277516,6.66692667 33.9277516,6.33726191 C33.9277516,0.897122705 37.1754815,0.0685348635 41.1802819,0.0685348635 C45.1867118,0.0685348635 48.4359355,0.897122705 48.4359355,6.33726191 C48.4359355,9.08402122 50.2776195,13.3948775 51.5862988,16.9916837 C51.8319562,17.5319155 52.0359239,18.1087618 52.2352744,18.6962035 C52.4160208,16.7002429 52.5319917,14.565335 52.5319917,12.2764583 C52.5319917,11.4325809 53.2226571,10.7504511 54.0770942,10.7504511 C54.9315313,10.7504511 55.6221967,11.4325809 55.6221967,12.2764583 C55.6221967,20.1397274 54.4294884,26.3886048 53.2320272,30.6918164 C51.8970032,41.8314811 44.380347,47.3568268 31.7090941,47.3568268 Z"></path>
                                    </g>
                                </g>
                            </g>
                        </g>
                        <g id="Group-2" transform="translate(4.338462, 10.123077)">
                            <path d="M23.6188711,0.516407774 C23.5008866,0.500407043 23.3902437,0.496524356 23.2855217,0.50432282 C22.9314716,0.522523223 22.5768946,0.577205706 22.2296554,0.666380494 C21.4844889,0.871662738 20.8923295,1.12871778 20.5191781,1.3779717 C17.2105402,4.62905144 14.7897697,9.03571675 13.2603564,14.6071288 C13.2457547,14.8825255 13.1501269,15.1215965 12.996099,15.2680949 L12.7236453,15.6007336 L11.9771516,15.6007336 L11.5924522,15.2249901 L11.5540316,15.1111176 C10.9446125,13.3048972 10.6498071,11.5052575 10.6712862,9.69919333 C10.7122763,8.71831533 10.7533161,7.9366688 10.794291,7.35651916 C10.8523083,6.44985247 10.7750094,5.55329775 10.5615279,4.66234853 C10.0735994,2.57277467 8.82724013,1.30172456 6.77366829,0.791093731 C5.73043962,0.550252869 4.96449756,0.514199337 4.51962214,0.653195276 C3.99580799,0.847257905 3.5040567,1.16746005 3.04056259,1.62015253 C1.40552217,3.19898144 0.568337831,4.87260306 0.504016631,6.65681324 C0.740333081,6.82681882 1.12237046,6.98340973 1.64885876,7.11196762 C2.0371213,7.20677354 2.59263332,7.30366276 3.37853368,7.41502349 C3.47801107,7.44278393 3.57565027,7.45640766 3.67260827,7.45640766 C3.7914588,7.45640766 3.89933158,7.44235946 3.99728794,7.41502349 L4.06106905,7.40629085 C4.06302797,7.39833134 4.06717008,7.39852769 4.07552088,7.40431216 L4.07586705,7.40426477 C3.38641462,6.79994587 3.01958293,6.15687766 3.01958293,5.47532377 C3.01958293,5.13626382 3.09995462,4.80917787 3.26305113,4.49082328 C3.69136002,3.6959815 4.25604374,2.91550352 4.95605887,2.14890989 L5.10475975,1.98606606 L5.325282,1.98606606 C5.32758421,1.98606606 5.58470729,1.93374581 5.93110248,1.85345102 C6.19389413,1.78344907 6.40579441,1.74692544 6.58008982,1.74692544 C6.73592286,1.74692544 6.88538708,1.78482469 7.00190421,1.86465683 C7.01499453,1.86808904 7.02798246,1.87189705 7.04093035,1.87611254 C7.29852925,1.95997985 7.49445283,2.21660898 7.42499226,2.47029069 C7.50039968,2.61174904 7.53768714,2.76302457 7.53535949,2.90276906 C7.86365813,5.54817927 8.08917379,8.48171676 8.21229599,11.7094057 C8.23281002,12.4707911 8.24308244,13.0627547 8.24244459,13.4612868 C8.31975787,14.9904333 8.71214346,16.2897469 9.41580879,17.3671138 C10.0142745,18.2782981 11.1817864,18.8306464 12.9605816,18.9969935 C13.6786314,19.0622338 14.2415441,19.0041158 14.6497914,18.8353014 C14.710763,18.7317156 14.7526118,18.6481422 14.7768797,18.5904124 C14.7135631,18.4494568 14.6801142,18.3018175 14.6801142,18.1497764 C14.6801142,17.9865867 14.7249592,17.8287411 14.806883,17.6750569 C14.8302183,17.2795582 14.9474736,16.851105 15.1587004,16.3771798 C15.3317202,16.0204191 15.5047792,15.6546589 15.677879,15.2798916 C16.2733279,11.8274217 16.952433,9.2420973 17.722413,7.5144054 C18.978085,4.6856816 20.9462897,2.35091647 23.6188711,0.516407774 Z M4.06010578,7.5074085 C4.06010369,7.50762602 4.06012,7.50782966 4.06015527,7.50801901 C4.06015527,7.50780009 4.06015524,7.50758157 4.06015519,7.50736343 Z M7.22523604,2.22856589 C7.23041313,2.26264812 7.23311517,2.29864906 7.23311517,2.33660318 L7.11971389,2.33660318 L7.22523604,2.22856589 Z M15.6801247,18.1506059 C15.6801176,18.1503454 15.6801142,18.150069 15.6801142,18.1497764 C15.6801142,18.1500477 15.6801174,18.1503228 15.680124,18.150602 Z M6.41765603,2.33679133 C6.4305855,2.28676776 6.44818583,2.23165277 6.47167378,2.16854827 C6.44547957,2.21971709 6.42897852,2.27011942 6.42071832,2.31892573 Z M6.56832131,2.74663466 C6.57229626,2.74682883 6.57622117,2.74692544 6.58008982,2.74692544 C6.56891064,2.74692544 6.55611409,2.74750956 6.54169154,2.74870524 Z" id="V" stroke="#FFFFFF" fill-rule="nonzero"></path>
                            <circle id="Oval" fill="#FFFFFF" cx="1.80769231" cy="7.59230769" r="1.80769231"></circle>
                            <path d="M20.9197606,17.8071683 C20.9326632,17.8441059 20.9326632,17.884121 20.9197606,17.9272148 C20.9133093,17.9641523 20.9004069,18.0041674 20.881053,18.0472612 C20.7262218,18.1642301 20.5488137,18.2504164 20.3488234,18.3058228 C20.3230182,18.3058228 20.2875366,18.313518 20.2423775,18.3289086 C20.1972184,18.3442993 20.1617368,18.3519945 20.1359316,18.3519945 L20.000455,18.4812752 L19.9617474,18.5274469 C19.8778805,18.6936659 19.6811188,18.881429 19.3714564,19.0907418 C19.016635,19.3308358 18.7037516,19.4077879 18.432797,19.3216003 C18.1618425,19.2600377 17.7618679,19.1399925 17.2328613,18.961461 C16.8457834,18.7890858 16.6457961,18.5489953 16.6328935,18.2411824 C16.6135396,17.779463 16.7264356,17.3516095 16.971585,16.9576089 C17.3070526,16.434327 17.7941184,16.1726899 18.432797,16.1726899 C18.6134334,16.1726899 18.8198719,16.2650324 19.0521187,16.4497201 C19.1746934,16.5543765 19.3553271,16.6898122 19.5940252,16.8560312 L19.7682094,16.9483746 C19.8907841,17.0284059 20.0069057,17.1453731 20.1165778,17.2992796 C20.2262499,17.453186 20.2810851,17.5947778 20.2810851,17.7240593 L20.3101158,17.7425279 C20.3101158,17.767153 20.3230182,17.7856215 20.3488234,17.797934 C20.3746286,17.8102465 20.387531,17.8071684 20.387531,17.7886996 L20.4552693,17.7886996 C20.4746232,17.7886996 20.5101048,17.7733092 20.5617152,17.7425279 L20.6004228,17.7240593 L20.7455764,17.7240593 L20.8133147,17.7425279 L20.9197606,17.8071683 Z M19.1779184,18.0472612 C19.1972723,18.0287924 19.2069491,18.0041678 19.2069491,17.9733865 C19.2069491,17.9426052 19.1972723,17.9087463 19.1779184,17.8718087 L19.1779184,17.8348713 C19.1392106,17.7363712 19.119857,17.6378726 19.119857,17.5393724 C19.119857,17.4408723 19.1392106,17.3423736 19.1779184,17.2438735 L19.1779184,17.1884675 C19.1392106,17.1084361 19.0424426,17.0561087 18.8876114,17.0314837 C18.8424523,17.0314837 18.8198731,17.0407179 18.8198731,17.0591867 L18.7134272,17.0591867 C18.1650667,17.280812 17.8005737,17.616323 17.6199374,18.0657299 C17.5618757,18.2073238 17.5554245,18.3396814 17.6005836,18.4628066 C17.6328401,18.5736192 17.7296081,18.6751959 17.8908906,18.7675398 C17.9683062,18.8044774 18.0489462,18.829102 18.1328131,18.8414146 C18.21668,18.8537271 18.29732,18.8352586 18.3747356,18.7860085 C18.8263266,18.6013208 19.0940515,18.3550741 19.1779184,18.0472612 Z M23.126094,15.4247083 C23.1777044,15.4616458 23.2035092,15.5016609 23.2035092,15.5447547 C23.2035092,15.6247861 23.148674,15.7202066 23.0390019,15.8310193 C22.8583655,16.0218633 22.6970854,16.1388304 22.5551568,16.1819242 L22.4874185,16.2003929 C22.4164542,16.225018 22.3390398,16.2373303 22.2551729,16.2373303 C22.2035625,16.2373303 22.1519529,16.2342522 22.1003425,16.228096 C21.7906801,16.0926583 21.6261744,15.9664569 21.6068205,15.849488 C21.5874666,15.7325191 21.6293995,15.5693807 21.7326203,15.3600679 C21.8100359,15.267724 21.9100295,15.2092404 22.0326042,15.1846154 L22.3035574,15.1846154 C22.6132198,15.1846154 22.8422375,15.2123181 22.9906174,15.2677245 C23.0809356,15.2985057 23.126094,15.3508332 23.126094,15.4247083 Z M23.813154,18.7490711 C23.8454105,18.8106337 23.8615385,18.8691173 23.8615385,18.9245236 C23.8615385,19.0845863 23.7615448,19.2292562 23.5615545,19.3585377 C23.4389798,19.4324128 23.2938278,19.4847402 23.126094,19.5155215 C22.9841654,19.5339902 22.8164341,19.5185998 22.6228951,19.4693498 C21.9584113,19.3031308 21.6390768,18.9306827 21.6648819,18.3519945 C21.6777845,18.1119004 21.7132662,17.8625757 21.7713279,17.6040128 C21.7971331,17.4747314 21.8100355,17.3546862 21.8100355,17.2438735 C21.8100355,17.1269046 21.7939075,17.0160936 21.761651,16.9114372 L21.761651,16.8652655 C21.761651,16.8591093 21.7681022,16.8529531 21.7810048,16.8467968 C21.7939074,16.8406406 21.8003586,16.8283282 21.8003586,16.8098595 C21.8842255,16.7729219 21.9519631,16.7544534 22.0035735,16.7544534 C22.0293787,16.7544534 22.0519579,16.7606096 22.0713118,16.7729221 L22.1680808,16.7729221 C22.3616198,16.7913909 22.6454727,16.8375621 23.0196481,16.9114372 L23.0873864,16.9576089 C23.1454481,16.9945465 23.1680273,17.0376396 23.1551247,17.0868897 C23.1422221,17.142296 23.1099661,17.179233 23.0583557,17.1977018 C22.8648167,17.4747334 22.7615975,17.7825417 22.7486949,18.1211359 C22.7422436,18.4597301 22.8099812,18.7675384 22.9519098,19.0445701 L23.0583557,19.1092105 C23.0583557,19.1276792 23.0680325,19.1369135 23.0873864,19.1369135 C23.1325455,19.1369135 23.2422159,19.0907422 23.416401,18.9983984 C23.6357452,18.8752732 23.7679949,18.792165 23.813154,18.7490711 Z" id="oi" fill="#FFFFFF" fill-rule="nonzero"></path>
                            <path d="M42.4188711,0.516407774 C42.3008866,0.500407043 42.1902437,0.496524356 42.0855217,0.50432282 C41.7314716,0.522523223 41.3768946,0.577205706 41.0296554,0.666380494 C40.2844889,0.871662738 39.6923295,1.12871778 39.3191781,1.3779717 C36.0105402,4.62905144 33.5897697,9.03571675 32.0603564,14.6071288 C32.0457547,14.8825255 31.9501269,15.1215965 31.796099,15.2680949 L31.5236453,15.6007336 L30.7771516,15.6007336 L30.3924522,15.2249901 L30.3540316,15.1111176 C29.7446125,13.3048972 29.4498071,11.5052575 29.4712862,9.69919333 C29.5122763,8.71831533 29.5533161,7.9366688 29.594291,7.35651916 C29.6523083,6.44985247 29.5750094,5.55329775 29.3615279,4.66234853 C28.8735994,2.57277467 27.6272401,1.30172456 25.5736683,0.791093731 C24.5304396,0.550252869 23.7644976,0.514199337 23.3196221,0.653195276 C22.795808,0.847257905 22.3040567,1.16746005 21.8405626,1.62015253 C20.2055222,3.19898144 19.3683378,4.87260306 19.3040166,6.65681324 C19.5403331,6.82681882 19.9223705,6.98340973 20.4488588,7.11196762 C20.8371213,7.20677354 21.3926333,7.30366276 22.1785337,7.41502349 C22.2780111,7.44278393 22.3756503,7.45640766 22.4726083,7.45640766 C22.5914588,7.45640766 22.6993316,7.44235946 22.7972879,7.41502349 L22.8610659,7.40629128 C22.863028,7.39833134 22.8671701,7.39852769 22.8755209,7.40431216 L22.8758671,7.40426477 C22.1864146,6.79994587 21.8195829,6.15687766 21.8195829,5.47532377 C21.8195829,5.13626382 21.8999546,4.80917787 22.0630511,4.49082328 C22.49136,3.6959815 23.0560437,2.91550352 23.7560589,2.14890989 L23.9047597,1.98606606 L24.125282,1.98606606 C24.1275842,1.98606606 24.3847073,1.93374581 24.7311025,1.85345102 C24.9938941,1.78344907 25.2057944,1.74692544 25.3800898,1.74692544 C25.5359229,1.74692544 25.6853871,1.78482469 25.8019042,1.86465683 C25.8149945,1.86808904 25.8279825,1.87189705 25.8409303,1.87611254 C26.0985292,1.95997985 26.2944528,2.21660898 26.2249923,2.47029069 C26.3003997,2.61174904 26.3376871,2.76302457 26.3353595,2.90276906 C26.6636581,5.54817927 26.8891738,8.48171676 27.012296,11.7094057 C27.03281,12.4707911 27.0430824,13.0627547 27.0424446,13.4612868 C27.1197579,14.9904333 27.5121435,16.2897469 28.2158088,17.3671138 C28.8142745,18.2782981 29.9817864,18.8306464 31.7605816,18.9969935 C32.4786314,19.0622338 33.0415441,19.0041158 33.4497914,18.8353014 C33.510763,18.7317156 33.5526118,18.6481422 33.5768797,18.5904124 C33.5135631,18.4494568 33.4801142,18.3018175 33.4801142,18.1497764 C33.4801142,17.9865867 33.5249592,17.8287411 33.606883,17.6750569 C33.6302183,17.2795582 33.7474736,16.851105 33.9587004,16.3771798 C34.1317202,16.0204191 34.3047792,15.6546589 34.477879,15.2798916 C35.0733279,11.8274217 35.752433,9.2420973 36.522413,7.5144054 C37.778085,4.6856816 39.7462897,2.35091647 42.4188711,0.516407774 Z M22.8601058,7.5074085 C22.8601037,7.50762602 22.86012,7.50782966 22.8601553,7.50801901 C22.8601553,7.50780009 22.8601552,7.50758157 22.8601552,7.50736343 Z M26.025236,2.22856589 C26.0304131,2.26264812 26.0331152,2.29864906 26.0331152,2.33660318 L25.9197139,2.33660318 L26.025236,2.22856589 Z M34.4801247,18.1506059 C34.4801176,18.1503454 34.4801142,18.150069 34.4801142,18.1497764 C34.4801142,18.1500477 34.4801174,18.1503228 34.480124,18.150602 Z M25.217656,2.33679133 C25.2305855,2.28676776 25.2481858,2.23165277 25.2716738,2.16854827 C25.2454796,2.21971709 25.2289785,2.27011942 25.2207183,2.31892573 Z M25.3683213,2.74663466 C25.3722963,2.74682883 25.3762212,2.74692544 25.3800898,2.74692544 C25.3689106,2.74692544 25.3561141,2.74750956 25.3416915,2.74870524 Z" id="V" stroke="#FFFFFF" fill-rule="nonzero"></path>
                            <path d="M37.0145512,14.3772965 C37.0681912,14.4166096 37.0950108,14.4591982 37.0950108,14.5050635 C37.0950108,14.5902419 37.0380192,14.6917992 36.9240343,14.8097386 C36.7362945,15.0128564 36.5686722,15.137346 36.4211624,15.1832113 L36.3507603,15.2028678 C36.2770054,15.2290765 36.1965467,15.2421807 36.1093817,15.2421807 C36.0557418,15.2421807 36.0021027,15.2389047 35.9484627,15.2323525 C35.6266231,15.0882044 35.4556483,14.9538866 35.4355333,14.8293951 C35.4154184,14.7049035 35.4590002,14.5312732 35.5662801,14.3084989 C35.64674,14.2102161 35.7506658,14.1479712 35.8780607,14.1217625 L36.1596689,14.1217625 C36.4815086,14.1217625 36.7195323,14.1512469 36.8737471,14.2102166 C36.967617,14.2429775 37.0145512,14.2986702 37.0145512,14.3772965 Z M37.7286294,17.9154592 C37.7621544,17.9809811 37.7789166,18.0432259 37.7789166,18.1021956 C37.7789166,18.2725524 37.6749908,18.4265265 37.467136,18.5641224 C37.3397411,18.6427486 37.1888811,18.6984414 37.0145512,18.7312023 C36.8670414,18.7508589 36.6927142,18.7344786 36.4915644,18.6820612 C35.8009502,18.5051521 35.469058,18.1087508 35.495878,17.4928453 C35.509288,17.2373101 35.5461649,16.9719505 35.6065098,16.6967587 C35.6333298,16.5591628 35.6467396,16.4313971 35.6467396,16.3134578 C35.6467396,16.1889662 35.6299773,16.0710286 35.5964524,15.9596415 L35.5964524,15.9105003 C35.5964524,15.9039481 35.6031573,15.8973961 35.6165672,15.8908439 C35.6299772,15.8842917 35.6366821,15.8711875 35.6366821,15.851531 C35.723847,15.8122178 35.7942484,15.7925616 35.8478883,15.7925616 C35.8747083,15.7925616 35.8981754,15.7991137 35.9182904,15.812218 L36.0188648,15.812218 C36.2200146,15.8318746 36.5150298,15.8810153 36.9039194,15.9596415 L36.9743215,16.0087826 C37.0346664,16.0480958 37.0581335,16.0939604 37.0447236,16.1463779 C37.0313136,16.2053475 36.9977891,16.2446601 36.9441492,16.2643166 C36.7429994,16.559165 36.6357211,16.8867694 36.6223111,17.2471396 C36.6156061,17.6075098 36.6860075,17.9351142 36.8335173,18.2299626 L36.9441492,18.2987602 C36.9441492,18.3184167 36.9542065,18.3282449 36.9743215,18.3282449 C37.0212564,18.3282449 37.1352396,18.2791042 37.3162744,18.1808214 C37.5442442,18.0497777 37.6816945,17.9613245 37.7286294,17.9154592 Z M41.9225814,17.3355937 C41.9896313,17.4469808 42.0231558,17.5485382 42.0231558,17.6402688 C42.0231558,17.82373 41.9225824,17.9875322 41.7214326,18.1316803 C41.4532329,18.334798 41.0744065,18.4691158 40.584942,18.5346377 C40.3703823,18.5673986 40.0552523,18.5313622 39.6395428,18.4265272 C39.2506532,18.3282444 38.98581,18.226687 38.8450051,18.1218521 C38.4158856,17.8138993 38.201329,17.3978417 38.201329,16.8736669 C38.201329,16.4412226 38.3521891,16.0153369 38.6539138,15.595997 C38.8617685,15.314253 39.1098496,15.0783778 39.3981642,14.8883644 C39.4987391,14.8621557 39.602665,14.8490515 39.7099448,14.8490515 C39.8239297,14.8490515 39.9446178,14.8654317 40.0720126,14.8981927 C40.3603273,14.9768189 40.568179,15.0521679 40.6955739,15.1242419 C41.2185633,15.4518512 41.4800541,15.7925598 41.4800541,16.1463779 C41.4800541,16.4281219 41.3191367,16.7164137 40.997297,17.0112621 C40.8095572,17.1816189 40.574886,17.2569679 40.2932763,17.2373114 C40.2731613,17.2307592 39.9982607,17.1816185 39.4685663,17.0898879 C39.4082214,17.0898879 39.367992,17.1292004 39.3478771,17.2078267 C39.3076471,17.6140622 39.4953841,17.8892499 39.9110936,18.033398 C40.7022828,18.033398 41.372772,17.8007989 41.9225814,17.3355937 Z M40.584942,15.8023898 C40.564827,15.7434201 40.504483,15.6647951 40.4039081,15.5665123 L40.3636784,15.5173711 L40.1826445,15.4977147 L40.1122424,15.5173711 C39.8373377,15.8187717 39.6998874,16.1070636 39.6998874,16.3822554 C39.6998874,16.5657166 39.7937559,16.6869302 39.9814957,16.7458999 C40.0552506,16.7721086 40.1357093,16.7721086 40.2228742,16.7458999 L40.2530465,16.6967587 C40.4743113,16.5460584 40.584942,16.2479385 40.584942,15.8023898 Z M45.3823403,18.0235698 C45.5030302,18.1349569 45.5600218,18.2397903 45.5533168,18.3380731 C45.5264968,18.5411909 45.3454647,18.6820608 45.0102151,18.760687 C44.8694103,18.8000001 44.7118453,18.8098282 44.5375155,18.7901717 C43.8267863,18.7049933 43.3708536,18.4953265 43.1697038,18.161165 C43.0691289,17.9973603 43.0188422,17.8139019 43.0188422,17.6107841 C43.0188422,17.4076663 43.0423093,17.1914474 43.0892443,16.9621209 C43.0892443,16.92936 43.0959492,16.8802193 43.1093592,16.8146975 L43.1395315,16.667274 C43.1462365,16.5231259 43.0959498,16.4445009 42.9886699,16.4313965 L42.8780381,16.4313965 C42.8378081,16.4313965 42.7338823,16.4182923 42.5662575,16.3920836 L42.4556256,16.3920836 C42.3550508,16.3593227 42.2980592,16.3265622 42.2846492,16.2938013 C42.2779442,16.2806969 42.2745917,16.2184521 42.2745917,16.1070649 L42.3248789,16.067752 C42.3584039,16.0415433 42.3785186,16.0251631 42.3852236,16.0186109 C42.4857985,15.9858499 42.6366585,15.9334332 42.8378083,15.8613592 L42.9082104,15.8417027 C42.9618503,15.8417027 43.0356042,15.8187704 43.129474,15.7729051 C43.156294,15.7532486 43.1697038,15.7368683 43.1697038,15.723764 C43.2166388,15.6975552 43.2401059,15.6484146 43.2401059,15.5763405 C43.2870408,15.3339096 43.3373275,14.9669927 43.3909675,14.4755788 C43.3909675,14.3379829 43.3775577,14.2134932 43.3507377,14.102106 C43.3239177,14.0890017 43.3105079,14.0595173 43.3105079,14.013652 L43.3105079,13.9645108 C43.3105079,13.9120933 43.3574422,13.885885 43.4513121,13.885885 C43.551887,13.8269153 43.6792799,13.7876028 43.8334948,13.7679462 C43.8804297,13.7482897 43.927364,13.7384615 43.9742989,13.7384615 C44.0346438,13.7384615 44.0949879,13.7548418 44.1553328,13.7876027 C44.2626127,13.8269158 44.4268826,13.8662283 44.6481473,13.9055414 C44.7017873,13.9317502 44.7571026,13.9579585 44.8140951,13.9841673 C44.8710875,14.010376 44.8995833,14.0431365 44.8995833,14.0824496 C44.9666332,14.1283149 44.9901003,14.210216 44.9699854,14.3281553 C44.9431654,14.4985122 44.8794689,14.6852467 44.778894,14.8883644 C44.6380892,15.189765 44.5576305,15.3601193 44.5375155,15.3994324 C44.5375155,15.5697892 44.6246791,15.6877268 44.7990089,15.7532487 C44.9599287,15.7860096 45.1208461,15.8220461 45.281766,15.8613592 C45.3488159,15.9137767 45.3823403,15.9727455 45.3823403,16.0382673 C45.3823403,16.0579239 45.372283,16.0743041 45.352168,16.0874085 C45.352168,16.1201694 45.3152911,16.1365496 45.2415362,16.1365496 L45.1711341,16.1856908 L44.7990089,16.2250037 C44.8526488,16.2250037 44.7654852,16.2413839 44.5375155,16.2741448 C44.5174005,16.2938014 44.483876,16.3036295 44.4369411,16.3036295 C44.4168261,16.3167339 44.3900065,16.3396662 44.3564816,16.3724271 C44.1285118,16.5296796 44.0178811,16.8310756 44.0245861,17.2766243 C44.0379961,17.617338 44.1151023,17.9351142 44.2559072,18.2299626 C44.2961372,18.2889323 44.3564812,18.3282448 44.4369411,18.3479013 C44.4570561,18.3741101 44.5039903,18.3872143 44.5777452,18.3872143 C44.7319601,18.413423 44.8560006,18.3937667 44.9498705,18.3282449 C45.0973803,18.262723 45.2415355,18.1611657 45.3823403,18.0235698 Z" id="iet" fill="#FFFFFF" fill-rule="nonzero"></path>
                        </g>
                    </g>
                    <g id="chinese" transform="translate(26.030769, 25.307692)" stroke="#FFFFFF">
                        <path d="M38.0108972,23.3080861 L20.6527765,5.36079334 C20.6239732,5.33100739 20.5914473,5.33100739 20.5625798,5.36085466 L3.20451845,23.3080861 C3.17495522,23.3386528 3.16131615,23.3908509 3.17398091,23.4405067 C3.18485393,23.4831687 3.21102944,23.510561 3.23654269,23.5178584 C3.55595737,23.6092059 4.10746041,23.7532001 4.85551027,23.928176 C6.05844772,24.2095545 7.41192487,24.4851931 8.90641317,24.7390078 C12.5415236,25.4152439 16.4418696,25.7538462 20.6076923,25.7538462 C24.7735189,25.7538462 28.6738552,25.415268 32.3244663,24.7363188 C33.8033657,24.4852765 35.1567839,24.2096385 36.3598247,23.9282246 C37.1076248,23.7533 37.6550736,23.6103712 37.9787667,23.5179427 C38.0043141,23.5106355 38.0304897,23.4832432 38.0414382,23.4402851 C38.0540698,23.390786 38.0404475,23.3386394 38.0108972,23.3080861 Z" id="Shape" stroke-width="2" fill-rule="nonzero" transform="translate(20.607692, 15.546154) rotate(-14.000000) translate(-20.607692, -15.546154) "></path>
                    </g>
                    <g id="bird-copy-2" transform="translate(20.969231, 20.969231)" fill="#FFFFFF" stroke="#FFFFFF">
                        <path d="M2.79953972,13.1530318 C2.40957401,13.4562256 2.06089768,13.7789905 1.76986339,14.0841203 L1.57607807,14.2872911 L1.39666055,14.071327 C0.60441509,13.1177047 0.264458893,11.9841502 0.210290255,10.9150838 L0.193253411,10.5788465 L0.520054143,10.6597603 C1.76909073,10.9690141 3.09067936,10.9112409 4.03054286,10.7384478 C2.23093511,9.53716764 1.35085494,7.93586829 1.43665431,5.99995921 C1.43572518,6.02094728 1.44847611,6.03423058 1.45778912,6.03460344 C1.46894431,6.03511896 1.48187667,6.02372082 1.48276461,6.00370626 C1.44484417,6.85956364 1.60326632,7.66020513 1.95325084,8.38594616 C2.31951909,9.14542673 2.89907222,9.82771456 3.68289218,10.4193219 L4.09070779,10.7271308 C4.09682661,10.7259535 4.10292823,10.7247714 4.10901252,10.7235846 C4.10478844,10.7244092 4.10034809,10.7271509 4.09666793,10.7316293 L4.18503948,10.7983299 L3.5597119,10.8673545 C2.42907792,10.9921554 1.26768224,10.9568183 0.25043902,10.6528772 C0.204305772,11.6764176 0.522807395,13.0543563 1.58486476,14.2034959 C1.65379889,14.1253288 1.76294641,14.0084909 1.91230648,13.8601208 C2.1753049,13.5988655 2.46576696,13.3389614 2.7763391,13.0973161 C2.76364823,13.1152811 2.76350709,13.135903 2.77468747,13.1490738 C2.78261593,13.1584138 2.79147596,13.1592953 2.79953972,13.1530318 Z M4.10901252,10.7235846 C4.10901489,10.7235841 4.10901727,10.7235837 4.10901965,10.7235832 C4.10901727,10.7235837 4.10901489,10.7235841 4.10901252,10.7235846 Z M2.79953972,13.1530318 C2.79954318,13.1530291 2.79954665,13.1530264 2.79955012,13.1530237 L2.79953972,13.1530318 C2.79953972,13.1530318 2.79953972,13.1530318 2.79953972,13.1530318 Z" id="Path" stroke-width="0.5" fill-rule="nonzero"></path>
                        <path d="M9.15,7.59230769 C9.15,7.53102162 9.09974761,7.48076923 9.03846154,7.48076923 C8.97717546,7.48076923 8.92692308,7.53102162 8.92692308,7.59230769 C8.92692308,7.65359377 8.97717546,7.70384615 9.03846154,7.70384615 C9.09972218,7.70384615 9.15,7.65356834 9.15,7.59230769 Z" id="Path" stroke-width="0.5" fill-rule="nonzero"></path>
                        <path d="M6.38758363,6.35588694 C6.21527329,6.43093481 6.00781249,6.39105424 5.87450668,6.24046449 C5.4336868,5.74259379 5.07249175,5.16309011 4.78451193,4.55859789 C4.58119118,5.20090144 4.5080659,5.85466522 4.51809101,6.42710426 C4.67722627,6.55166267 4.83907218,6.65943027 5.00133925,6.74864521 C5.56280188,7.0573379 6.14931187,7.17029967 6.74659943,7.01519922 C6.67942748,6.97011498 6.61306977,6.92252676 6.5475891,6.8724734 C6.38752432,6.75008756 6.32896072,6.54022136 6.38758363,6.35588694 Z M10.2316219,6.55902805 C10.4715897,6.74182733 10.6715079,6.96914522 10.833547,7.21587217 L11.1731055,7.28641459 C11.1728718,7.25066886 11.1723218,7.21515881 11.1714506,7.17985355 C11.165937,6.9563305 11.1488321,6.72989801 11.1201879,6.50112265 C10.9278527,6.55285505 10.7292914,6.58254483 10.5284448,6.58254483 C10.4277579,6.58254483 10.3286927,6.57488984 10.2316219,6.55902805 Z M13.5281532,5.54819597 C13.5021235,5.54500262 13.4879389,5.52752496 13.488474,5.51257152 C13.4880996,5.52287433 13.4876473,5.53324767 13.4871159,5.54368699 C13.500939,5.54504754 13.5146219,5.54655247 13.5281532,5.54819613 Z M11.6722973,7.2154074 L11.5826613,7.21584948 L11.5782824,7.46016117 C11.5761914,7.57682353 11.5712294,7.69176284 11.5633495,7.80506279 L10.5858541,7.60201324 C10.3729713,7.20117422 9.97704255,6.76566957 9.39278837,6.61025341 C8.88558554,6.47523376 8.3412498,6.61001103 7.78425393,6.99309201 C7.78268435,6.99417155 7.78111476,6.99524933 7.77954514,6.99632535 L7.43659128,6.83434443 C7.23618746,6.73969148 7.0408586,6.62004138 6.85260348,6.47627954 C6.86705393,6.48973553 6.86829503,6.50359508 6.86015875,6.51546345 C6.84563984,6.53664217 6.80959592,6.5427433 6.78598704,6.52469728 C7.07694731,6.74710731 7.38594667,6.91422357 7.70589221,7.02194781 L7.74993947,7.01641025 C7.24035605,7.35849873 6.7286966,7.5152693 6.21680491,7.51529721 C5.73119503,7.51532059 5.25959034,7.37470975 4.81357603,7.12947693 C4.56886158,6.99492451 4.32895021,6.82562478 4.10018602,6.62759973 L4.11300009,6.17570723 C4.13898995,5.25916665 4.33903793,4.31793804 4.79030526,3.49409311 C4.85380738,3.68232274 4.96017619,3.95604253 5.10475827,4.26766734 C5.39350041,4.89000737 5.74670778,5.46695057 6.16954558,5.94504658 C6.16073584,5.92956647 6.16282526,5.91739638 6.17332311,5.90702806 C6.19352357,5.8870764 6.2306037,5.8883904 6.24887446,5.90903008 C5.71539744,5.30651057 5.30108509,4.56167001 5.00202705,3.80565608 L4.84224407,3.40172725 C4.84330762,3.39988443 4.84437246,3.39804223 4.84543861,3.39620066 C4.82393326,3.4333487 4.76780687,3.4261694 4.75685009,3.3900294 C4.76619373,3.42089495 4.77735859,3.45571728 4.79030526,3.49409311 C4.80726212,3.46313624 4.82457369,3.43234511 4.84224407,3.40172725 L4.78478938,3.25648271 L4.54171244,3.79471798 C4.11928839,4.73007419 3.99062876,5.72519965 4.02149493,6.55795213 C3.6745355,6.24404297 3.35554621,5.86413156 3.08744903,5.43997613 C2.80018597,4.98545565 2.58627521,4.50034489 2.46904315,4.0422628 L2.3239486,3.47530848 C2.33872514,3.44603905 2.35235499,3.42011893 2.36466236,3.3976709 C2.35082476,3.41514082 2.33095209,3.42220756 2.30893889,3.41665832 L2.27395159,3.27994612 L1.99329126,4.01507686 C1.82518102,4.45540631 1.68866935,4.93205527 1.60292596,5.43245467 C1.60635304,5.41246465 1.62867521,5.39611882 1.66013365,5.40214057 C1.68765804,5.40741058 1.69855193,5.42399492 1.69573151,5.44045504 C1.78502645,4.91927799 1.92776708,4.42774013 2.10239291,3.98059597 C2.17030415,3.80670349 2.23365276,3.66228861 2.28661377,3.5514194 C2.34353186,4.14573143 2.60005314,4.83125951 3.0029587,5.46871757 C3.20278953,5.78487486 3.43184793,6.07883579 3.68224,6.3412172 L4.09601189,6.77480145 L4.09776042,6.71313926 L4.11205911,6.74210301 C4.32270122,6.91624225 4.54003172,7.06560507 4.76044648,7.18678978 C5.60180081,7.64936721 6.51891551,7.74472922 7.44150409,7.28406688 L7.90197141,7.05414864 L7.80690653,7.00924844 L7.9216031,6.99482896 C8.43837531,6.66001171 8.92051348,6.5579485 9.36727624,6.67807209 C9.84667592,6.80696643 10.2185793,7.16288427 10.4652313,7.56888401 L10.6280415,7.68385469 L11.5218271,7.86953645 L11.1216286,8.35485115 C10.5339161,9.06756101 10.0180407,9.77907359 9.6759445,10.4064095 C8.85890852,11.9047128 7.38067844,12.3408016 5.19924648,12.2030947 C4.65908625,12.1689949 4.06481525,12.3633472 3.43070801,12.7713292 C3.46548918,12.759957 3.49079967,12.7709144 3.49966162,12.7909151 C3.50574913,12.804654 3.50218852,12.8171013 3.48489652,12.8282573 C4.10966264,12.4253345 4.68455714,12.2415783 5.19205713,12.2735042 C6.24733804,12.3400564 7.06632921,12.2691331 7.7663721,12.0472388 C8.66981016,11.7608583 9.32766752,11.2291578 9.7626609,10.4314911 C10.1519666,9.71761166 10.7561073,8.90743086 11.4021037,8.14955794 L11.5491903,7.97699833 C11.4830377,8.65813114 11.3139303,9.30702385 11.0432732,9.92134358 C11.0592042,9.89787229 11.0893246,9.89028775 11.1155025,9.90645261 C11.1334673,9.91754864 11.1372729,9.93039671 11.1312207,9.94412115 C11.326818,9.50063732 11.4700628,9.0381407 11.5601789,8.56022687 L11.7403953,7.60448215 L11.6640613,7.69705119 L11.6677439,7.60232633 C11.6728696,7.47047741 11.6744554,7.34189179 11.6722973,7.21540739 Z M11.0432732,9.92134358 C11.0429383,9.92210372 11.0426033,9.92286381 11.042268,9.92362385 C11.0432737,9.92134374 11.0444909,9.91917964 11.0458954,9.91714571 Z M3.43070801,12.7713292 C3.42905818,12.7723907 3.42740809,12.7734537 3.42575773,12.774518 C3.43059833,12.7713971 3.43559445,12.7691082 3.440608,12.7675735 Z M6.16954558,5.94504658 C6.17017847,5.94576218 6.17081151,5.94647756 6.17144471,5.94719271 C6.16956772,5.94507315 6.16801844,5.94288642 6.16679896,5.94065597 Z M6.85260348,6.47627954 C6.8521565,6.4759382 6.85170956,6.47559672 6.85126266,6.47525511 C6.85260493,6.47628142 6.85384832,6.47733448 6.85499406,6.47841041 Z M11.6517012,6.78692789 C11.6347468,6.569543 11.6078837,6.35022206 11.5711797,6.12940351 L11.5205241,5.82464944 L11.4272173,5.86135806 C11.4484719,5.96655182 11.4675334,6.07153044 11.4843927,6.17624496 L11.5980467,6.8821573 L11.6517012,6.78692789 Z M9.14965113,5.01713017 C9.14655277,5.00994456 9.14351059,5.0027776 9.14052481,4.9956314 C9.14396389,5.0102254 9.13827019,5.0232659 9.12235819,5.03227926 C9.13134819,5.02718917 9.14044708,5.02213811 9.14965113,5.01713017 Z M11.3471433,5.50549301 L11.5198699,5.64931133 L11.2415881,4.8156801 C11.2384832,4.80631684 11.2384832,4.80631684 11.2351084,4.79600168 C11.2301221,4.78075482 11.2301221,4.78075482 11.2243782,4.76365169 C11.1485421,4.54089027 11.0668633,4.32675795 10.9811886,4.12219808 L10.8993895,4.15385621 L10.9903672,4.38733186 C11.0393993,4.51316253 11.0857055,4.63956032 11.1292065,4.76677937 C11.2135855,5.01346888 11.2862676,5.25991264 11.3471433,5.50549301 Z M10.8371515,3.79491498 C10.5995519,3.28042771 10.3409163,2.83704882 10.0957997,2.48242965 L9.99390249,2.41246053 L10.0183368,2.5210628 C10.1498494,2.71080946 10.304609,2.95983346 10.4678336,3.26078542 L10.8191423,3.90852486 L10.8371515,3.79491498 Z M8.66048922,0.25806278 C8.66306594,0.24600283 8.66572522,0.234061721 8.66846316,0.222246009 C8.65909589,0.24158187 8.63820008,0.253498423 8.61333499,0.249195442 C8.62890667,0.251908162 8.64463122,0.254862816 8.66048922,0.25806278 Z M12.1658408,1.90620672 C12.1819659,1.90183255 12.1979674,1.89772582 12.2138244,1.89388417 C12.1853126,1.90079095 12.1601383,1.88552882 12.1546774,1.86708261 C12.1584879,1.87996619 12.162211,1.89301041 12.1658408,1.90620672 Z M13.5281532,5.54819613 C13.5282397,5.54820664 13.5283262,5.54821716 13.5284127,5.54822768 L13.5281532,5.54819597 Z M11.0038328,2.67885029 C11.2034607,2.31167555 11.553089,2.06349306 11.9592972,1.90255965 L12.2478979,1.78822048 L12.2980903,2.09456106 C12.3709738,2.53939317 12.3444177,2.97725993 12.1452829,3.34350891 C11.9456457,3.71067203 11.5959211,3.95892286 11.1897981,4.11977338 L10.9011917,4.23407984 L10.8510259,3.92774179 C10.7781689,3.48283915 10.8047117,3.04507412 11.0038354,2.67884554 Z M10.0659595,6.07557933 C9.68337368,5.93631647 9.38812887,5.62197924 9.16278633,5.23251009 L9.01757837,4.98154099 L9.28718499,4.87484932 C9.69559469,4.71322898 10.1160138,4.65715818 10.5008568,4.7972818 C10.883453,4.93654842 11.1787195,5.25091698 11.4040368,5.64039146 L11.5492327,5.89137124 L11.2796161,5.99804646 C10.8713115,6.15959435 10.4507935,6.21565148 10.0659644,6.07558111 Z M8.76469754,1.69052473 C8.54535741,1.33924657 8.49345301,0.903691977 8.53958213,0.453380886 L8.5710191,0.146494143 L8.86473285,0.240833911 C9.27893984,0.373875664 9.64267375,0.599225699 9.86481162,0.954948932 C10.0839944,1.30599268 10.1359725,1.74120665 10.0900139,2.19134606 L10.0585995,2.49903366 L9.76433617,2.40380951 C9.34930589,2.26950493 8.98561323,2.04430127 8.76470173,1.69053144 Z M13.012178,6.88707091 C12.7050128,7.16510613 12.2945045,7.27619401 11.8588297,7.28439352 L11.5593891,7.29002907 L11.6073522,6.99440095 C11.6797356,6.54825472 11.8438097,6.14394752 12.1496816,5.867091 C12.4566492,5.58924296 12.8668456,5.47811364 13.3023204,5.46977246 L13.602464,5.46402344 L13.5538016,5.76025177 C13.4803333,6.20748401 13.3163939,6.61172174 13.0121725,6.88707588 Z" id="Shape" stroke-width="0.5" fill-rule="nonzero"></path>
                    </g>
                    <g id="bird-copy" transform="translate(12.292308, 10.846154)" fill="#FFFFFF" stroke="#FFFFFF">
                        <path d="M2.79953972,13.1530318 C2.40957401,13.4562256 2.06089768,13.7789905 1.76986339,14.0841203 L1.57607807,14.2872911 L1.39666055,14.071327 C0.60441509,13.1177047 0.264458893,11.9841502 0.210290255,10.9150838 L0.193253411,10.5788465 L0.520054143,10.6597603 C1.76909073,10.9690141 3.09067936,10.9112409 4.03054286,10.7384478 C2.23093511,9.53716764 1.35085494,7.93586829 1.43665431,5.99995921 C1.43572518,6.02094728 1.44847611,6.03423058 1.45778912,6.03460344 C1.46894431,6.03511896 1.48187667,6.02372082 1.48276461,6.00370626 C1.44484417,6.85956364 1.60326632,7.66020513 1.95325084,8.38594616 C2.31951909,9.14542673 2.89907222,9.82771456 3.68289218,10.4193219 L4.09070779,10.7271308 C4.09682661,10.7259535 4.10292823,10.7247714 4.10901252,10.7235846 C4.10478844,10.7244092 4.10034809,10.7271509 4.09666793,10.7316293 L4.18503948,10.7983299 L3.5597119,10.8673545 C2.42907792,10.9921554 1.26768224,10.9568183 0.25043902,10.6528772 C0.204305772,11.6764176 0.522807395,13.0543563 1.58486476,14.2034959 C1.65379889,14.1253288 1.76294641,14.0084909 1.91230648,13.8601208 C2.1753049,13.5988655 2.46576696,13.3389614 2.7763391,13.0973161 C2.76364823,13.1152811 2.76350709,13.135903 2.77468747,13.1490738 C2.78261427,13.1584118 2.79147226,13.1592949 2.79953466,13.1530357 Z M4.10901252,10.7235846 C4.10901489,10.7235841 4.10901727,10.7235837 4.10901965,10.7235832 C4.10901727,10.7235837 4.10901489,10.7235841 4.10901252,10.7235846 Z M2.79953466,13.1530357 C2.79953981,13.1530317 2.79954496,13.1530277 2.79955012,13.1530237 L2.79953972,13.1530318 C2.79953972,13.1530318 2.79953972,13.1530318 2.79953972,13.1530318 Z" id="Path" stroke-width="0.5" fill-rule="nonzero"></path>
                        <path d="M8.42692308,7.59230769 C8.42692308,7.53102162 8.37667069,7.48076923 8.31538462,7.48076923 C8.25409854,7.48076923 8.20384615,7.53102162 8.20384615,7.59230769 C8.20384615,7.65359377 8.25409854,7.70384615 8.31538462,7.70384615 C8.37664526,7.70384615 8.42692308,7.65356834 8.42692308,7.59230769 Z" id="Path" stroke-width="0.5" fill-rule="nonzero"></path>
                        <path d="M6.08009722,6.36530575 C5.91477184,6.42798955 5.72164438,6.38303904 5.59812442,6.23478298 C5.19279261,5.74838135 4.85914227,5.18437637 4.59140326,4.59537078 C4.40826545,5.22752965 4.34249668,5.86894022 4.35217001,6.43171609 C4.50138748,6.55581519 4.65304275,6.6631113 4.80495101,6.75185091 C5.328186,7.05750571 5.87269285,7.16918217 6.42767938,7.01607103 C6.36185341,6.9693586 6.29686748,6.91995778 6.23278661,6.86791297 C6.08358227,6.74670093 6.02867857,6.54465962 6.08009722,6.36530575 Z M9.72722117,6.56150553 C9.95389733,6.74443028 10.1423819,6.97162267 10.2952295,7.2182564 L10.5862009,7.28248302 C10.5859678,7.24794408 10.5854569,7.21362269 10.5846643,7.17949111 C10.5795152,6.95770268 10.5636499,6.73307122 10.5371178,6.50615029 C10.3606053,6.55477923 10.1785651,6.58254483 9.99419243,6.58254483 C9.90375988,6.58254483 9.81466196,6.57568481 9.72722117,6.56150553 Z M11.0854621,7.21532996 L10.9716912,7.21592614 L10.9675667,7.46042463 C10.9656228,7.57566224 10.9610477,7.68922749 10.9537989,7.80120004 L10.0625354,7.60449188 C9.86101521,7.20277645 9.48812833,6.76821679 8.93284738,6.61127593 C8.44885605,6.47438274 7.93111255,6.60936763 7.40458784,6.99188717 L7.09585557,6.83695589 C6.90841808,6.74289403 6.72553994,6.62386045 6.54912276,6.48070011 C6.56293124,6.49302258 6.56349469,6.50064478 6.55768736,6.50964536 C6.54019911,6.53674981 6.48896291,6.54596459 6.45716255,6.52013801 C6.73236853,6.74365342 7.02504302,6.91183364 7.32854473,7.02040805 L7.35288823,7.02911666 C6.88071699,7.36277757 6.40824846,7.51526986 5.93617673,7.51529721 C5.48445879,7.51532032 5.0448064,7.37604342 4.62823307,7.13268286 C4.39869057,6.99858435 4.17349439,6.82968811 3.95864913,6.63200848 L3.97083822,6.1752907 C3.99497327,5.27096466 4.17828789,4.34258723 4.59006942,3.5265171 C4.65071276,3.71246158 4.74651617,3.97083037 4.87387741,4.26249501 C5.14589277,4.885426 5.47875733,5.4628974 5.87759079,5.94150554 C5.86870538,5.93084212 5.8689223,5.92364999 5.87961194,5.91243239 C5.90585871,5.88488866 5.95906583,5.88689006 5.98224796,5.91470626 C5.48020186,5.31224492 5.09001144,4.56692733 4.80834983,3.81038902 L4.65583999,3.40075018 C4.65768143,3.39735112 4.65952702,3.3939542 4.66137676,3.39055942 C4.63618254,3.43679957 4.55832284,3.42620751 4.5468747,3.38610355 C4.55836222,3.42642323 4.57278824,3.47352957 4.59006942,3.5265171 C4.61137796,3.48428776 4.63329829,3.44235916 4.65583999,3.40075018 L4.58942865,3.22237043 L4.34398209,3.79982028 C3.95100725,4.72435256 3.82868038,5.70721338 3.85448582,6.53311898 C3.54032749,6.22552241 3.25120983,5.85647268 3.00686394,5.44573292 C2.73621498,4.99073544 2.5345687,4.50485723 2.42397441,4.045703 L2.28622877,3.47382456 C2.30076234,3.44313829 2.31414486,3.41604431 2.32619231,3.39267891 C2.31224307,3.40990875 2.29423453,3.41861737 2.27294442,3.41867192 L2.22826808,3.23318921 L1.94565297,4.01970578 C1.78765384,4.45941664 1.65936554,4.93534888 1.57880668,5.43487657 C1.58190493,5.41567261 1.60988498,5.39390161 1.65313561,5.40269806 C1.68783223,5.40975652 1.69788558,5.4260178 1.69594736,5.43803627 C1.78013499,4.91595793 1.91468168,4.42367894 2.07926857,3.97590041 C2.13281629,3.83021735 2.18335567,3.70519292 2.2276759,3.60320487 C2.29026169,4.1829305 2.5279919,4.84530009 2.89542028,5.46296082 C3.08347517,5.7790825 3.29911267,6.07311587 3.53493452,6.33567401 L3.95410258,6.80236522 L3.95548318,6.75063504 C4.14956364,6.91959078 4.34968237,7.06496022 4.55274775,7.18358407 C5.35098869,7.64988731 6.2241813,7.74635697 7.10088851,7.28124432 L7.52880693,7.0542241 L7.49050463,7.03500284 L7.55451059,6.99094147 C8.03590401,6.65955272 8.48164013,6.55929808 8.89375011,6.67702978 C9.33882076,6.80417324 9.68751005,7.15873112 9.91876254,7.56317341 L10.0819045,7.68320456 L10.9188854,7.86795281 L10.5365191,8.36062308 C9.98338783,9.07332033 9.49785381,9.78483908 9.17599826,10.4119463 C8.40859253,11.9071919 7.02651626,12.3403973 4.98038293,12.2031585 C4.4656692,12.1686343 3.9019257,12.3642786 3.30227534,12.7737667 C3.349683,12.7576004 3.38484948,12.7728625 3.39448434,12.7959666 C3.39836776,12.8052789 3.3964962,12.8122305 3.37876088,12.8243875 C3.96314983,12.4239496 4.49899159,12.2419713 4.96980982,12.2734408 C5.96639119,12.3402192 6.74079707,12.2689656 7.40329107,12.0458487 C8.25807675,11.7579556 8.87956364,11.2242567 9.28929554,10.4259542 C9.65582341,9.7118361 10.2243999,8.90169297 10.8323942,8.14382306 L10.9368121,8.01366529 C10.8724577,8.68222464 10.7141396,9.32089828 10.4633286,9.92589071 C10.4830857,9.89820733 10.5250386,9.88704732 10.5602345,9.91013914 C10.5789016,9.92238956 10.5809716,9.92980939 10.5771228,9.93908264 C10.7609365,9.49626853 10.8955177,9.03458669 10.9801704,8.55758765 L11.1570105,7.56113387 L11.0789987,7.66165039 L11.0811902,7.60175585 C11.0860088,7.47005974 11.0874966,7.34163909 11.0854621,7.21532996 Z M10.4633286,9.92589071 C10.4629455,9.92681488 10.4625622,9.92773898 10.4621786,9.928663 C10.4633293,9.92589095 10.4648457,9.92322896 10.4666826,9.92070919 Z M3.30227534,12.7737667 C3.30002474,12.7753036 3.29777365,12.7768435 3.29552204,12.7783864 C3.30206529,12.773904 3.30888039,12.7706412 3.3157458,12.768447 Z M6.54912276,6.48070011 C6.54875911,6.48040502 6.54839548,6.48010982 6.54803189,6.47981451 C6.5491255,6.48070295 6.55014447,6.48157008 6.55109134,6.48241814 Z M11.065824,6.78401482 C11.0498813,6.56837086 11.024745,6.35080852 10.9904762,6.13175545 L10.941202,5.81678411 L10.8263177,5.86480657 C10.8458782,5.96807808 10.8634524,6.07114518 10.8790323,6.17396144 L10.992444,6.92239416 L11.065824,6.78401482 Z M8.70887678,5.01414001 C8.70701267,5.00949453 8.70517099,5.00485744 8.7033518,5.00022931 C8.70506915,5.00980252 8.70058003,5.01883007 8.68376306,5.02895142 C8.6920348,5.02397528 8.7004072,5.01903683 8.70887678,5.01414001 Z M10.7492062,5.50023205 L10.950362,5.67818951 L10.6807045,4.81990642 C10.6777664,4.81049236 10.6777664,4.81049236 10.6745869,4.80016686 C10.6699002,4.78494037 10.6699002,4.78494037 10.6645252,4.76793556 C10.5918683,4.54117376 10.5134997,4.32334537 10.4312583,4.11545214 L10.3306493,4.15682377 L10.4134674,4.38264283 C10.4596604,4.50859697 10.5032875,4.63512448 10.5442737,4.76248045 C10.6235788,5.00882689 10.6919244,5.25494891 10.7492062,5.50023205 Z M10.2989887,3.79683307 C10.0758849,3.28403539 9.83311091,2.84196998 9.60299882,2.48825132 L9.47203374,2.39418784 L9.49808826,2.51524007 C9.62190516,2.70504855 9.76761531,2.95416507 9.92131098,3.25525902 L10.2760941,3.95028876 L10.2989887,3.79683307 Z M8.2497835,0.261756123 C8.25263006,0.247382507 8.25558645,0.233173612 8.25864659,0.219140276 C8.2478548,0.239556072 8.2213849,0.255121973 8.18664877,0.248735078 C8.20741704,0.252579216 8.22847967,0.256916112 8.2497835,0.261756123 Z M11.5223414,1.9112144 C11.5442549,1.90459293 11.5659438,1.89853117 11.5873481,1.89302141 C11.5473024,1.90332876 11.5149165,1.88246776 11.5095528,1.86321752 C11.5139414,1.87898303 11.5182076,1.89498714 11.5223414,1.9112144 Z M12.764198,5.54235681 C12.7810451,5.54399388 12.7976735,5.54587741 12.8140599,5.54799486 L12.8137849,5.54795917 C12.7794848,5.54348821 12.7650025,5.52452839 12.7653875,5.51309684 C12.765056,5.52278894 12.7646598,5.53254354 12.764198,5.54235681 Z M10.4257784,2.68438139 C10.613903,2.31673861 10.9454798,2.06665939 11.3305496,1.90456573 L11.6258004,1.78028105 L11.6746225,2.09688193 C11.7428325,2.5392089 11.7180134,2.9740111 11.5317604,3.33797767 C11.3436269,3.70560922 11.011959,3.95575715 10.6269676,4.11776826 L10.3317126,4.24201674 L10.2829169,3.92542204 C10.2147316,3.48302415 10.2395382,3.04832295 10.4257808,2.68437674 Z M9.54921498,6.07382763 C9.18431781,5.93270201 8.90571412,5.61754326 8.6929712,5.22686979 L8.5607304,4.98402754 L8.8156291,4.87685179 C9.20550344,4.71292364 9.60793282,4.65589763 9.97792438,4.79903351 C10.3428313,4.94016291 10.6214556,5.25535312 10.8341745,5.64603156 L10.9664045,5.88888458 L10.7114945,5.99604458 C10.32172,6.15989944 9.91919852,6.21691118 9.54922004,6.07382958 Z M8.31824105,1.68478108 C8.11288318,1.3353405 8.06436367,0.902743259 8.10754473,0.454865261 L8.13788903,0.140131423 L8.43713605,0.242255775 C8.83033346,0.376442675 9.17583733,0.603876832 9.38555034,0.960692521 C9.5907611,1.3099002 9.63934947,1.74215903 9.59632802,2.18986647 L9.56600236,2.50545372 L9.26618809,2.40236948 C8.87225265,2.26692384 8.52680158,2.03964636 8.31824495,1.68478772 Z M12.3472189,6.88191446 C12.0546507,7.16328841 11.6623653,7.27607975 11.24689,7.28438782 L10.9499205,7.29032617 L10.9947564,6.99670076 C11.0626649,6.55197566 11.2163952,6.14948138 11.5046672,5.87224736 C11.7970467,5.59106335 12.1890339,5.47822996 12.6043181,5.46977837 L12.9019563,5.46372103 L12.8564694,5.75792529 C12.7875392,6.2037573 12.6339336,6.60618648 12.3472135,6.88191961 Z" id="Shape" stroke-width="0.5" fill-rule="nonzero"></path>
                    </g>
                    <g id="bird" transform="translate(2.892308, 1.446154)" fill="#FFFFFF" stroke="#FFFFFF">
                        <path d="M2.79953972,13.1530318 C2.40957401,13.4562256 2.06089768,13.7789905 1.76986339,14.0841203 L1.57607807,14.2872911 L1.39666055,14.071327 C0.60441509,13.1177047 0.264458893,11.9841502 0.210290255,10.9150838 L0.193253411,10.5788465 L0.520054143,10.6597603 C1.76909073,10.9690141 3.09067936,10.9112409 4.03054286,10.7384478 C2.23093511,9.53716764 1.35085494,7.93586829 1.43665431,5.99995921 C1.43572518,6.02094728 1.44847611,6.03423058 1.45778912,6.03460344 C1.46894431,6.03511896 1.48187667,6.02372082 1.48276461,6.00370626 C1.44484417,6.85956364 1.60326632,7.66020513 1.95325084,8.38594616 C2.31951909,9.14542673 2.89907222,9.82771456 3.68289218,10.4193219 L4.09070779,10.7271308 C4.09682661,10.7259535 4.10292823,10.7247714 4.10901252,10.7235846 C4.10478844,10.7244092 4.10034809,10.7271509 4.09666793,10.7316293 L4.18503948,10.7983299 L3.5597119,10.8673545 C2.42907792,10.9921554 1.26768224,10.9568183 0.25043902,10.6528772 C0.204305772,11.6764176 0.522807395,13.0543563 1.58486476,14.2034959 C1.65379889,14.1253288 1.76294641,14.0084909 1.91230648,13.8601208 C2.1753049,13.5988655 2.46576696,13.3389614 2.7763391,13.0973161 C2.76364823,13.1152811 2.76350709,13.135903 2.77468747,13.1490738 C2.78261593,13.1584138 2.79147596,13.1592953 2.79953972,13.1530318 Z M4.10901252,10.7235846 C4.10901489,10.7235841 4.10901727,10.7235837 4.10901965,10.7235832 C4.10901727,10.7235837 4.10901489,10.7235841 4.10901252,10.7235846 Z M2.79953972,13.1530318 C2.79954318,13.1530291 2.79954665,13.1530264 2.79955012,13.1530237 L2.79953972,13.1530318 C2.79953972,13.1530318 2.79953972,13.1530318 2.79953972,13.1530318 Z" id="Path" stroke-width="0.5" fill-rule="nonzero"></path>
                        <path d="M9.15,7.59230769 C9.15,7.53102162 9.09974761,7.48076923 9.03846154,7.48076923 C8.97717546,7.48076923 8.92692308,7.53102162 8.92692308,7.59230769 C8.92692308,7.65359377 8.97717546,7.70384615 9.03846154,7.70384615 C9.09972218,7.70384615 9.15,7.65356834 9.15,7.59230769 Z" id="Path" stroke-width="0.5" fill-rule="nonzero"></path>
                        <path d="M6.38758363,6.35588694 C6.21527329,6.43093481 6.00781249,6.39105424 5.87450668,6.24046449 C5.4336868,5.74259379 5.07249175,5.16309011 4.78451193,4.55859789 C4.58119118,5.20090144 4.5080659,5.85466522 4.51809101,6.42710426 C4.67722627,6.55166267 4.83907218,6.65943027 5.00133925,6.74864521 C5.56280188,7.0573379 6.14931187,7.17029967 6.74659943,7.01519922 C6.67942748,6.97011498 6.61306977,6.92252676 6.5475891,6.8724734 C6.38752432,6.75008756 6.32896072,6.54022136 6.38758363,6.35588694 Z M10.2316219,6.55902805 C10.4715897,6.74182733 10.6715079,6.96914522 10.833547,7.21587217 L11.1731055,7.28641459 C11.1728718,7.25066886 11.1723218,7.21515881 11.1714506,7.17985355 C11.165937,6.9563305 11.1488321,6.72989801 11.1201879,6.50112265 C10.9278527,6.55285505 10.7292914,6.58254483 10.5284448,6.58254483 C10.4277579,6.58254483 10.3286927,6.57488984 10.2316219,6.55902805 Z M13.5281532,5.54819597 C13.5021235,5.54500262 13.4879389,5.52752496 13.488474,5.51257152 C13.4880996,5.52287433 13.4876473,5.53324767 13.4871159,5.54368699 C13.500939,5.54504754 13.5146219,5.54655247 13.5281532,5.54819613 Z M11.6722973,7.2154074 L11.5826613,7.21584948 L11.5782824,7.46016117 C11.5761914,7.57682353 11.5712294,7.69176284 11.5633495,7.80506279 L10.585854,7.60201321 C10.3729713,7.20117422 9.97704255,6.76566957 9.39278837,6.61025341 C8.88558554,6.47523376 8.3412498,6.61001103 7.78425393,6.99309201 C7.78268435,6.99417155 7.78111476,6.99524933 7.77954514,6.99632535 L7.43659128,6.83434443 C7.23618746,6.73969148 7.0408586,6.62004138 6.85260348,6.47627954 C6.86705393,6.48973553 6.86829503,6.50359508 6.86015875,6.51546345 C6.84563984,6.53664217 6.80959592,6.5427433 6.78598704,6.52469728 C7.07694731,6.74710731 7.38594667,6.91422357 7.70589221,7.02194781 L7.74993947,7.01641025 C7.24035605,7.35849873 6.7286966,7.5152693 6.21680491,7.51529721 C5.73119503,7.51532059 5.25959034,7.37470975 4.81357603,7.12947693 C4.56886158,6.99492451 4.32895021,6.82562478 4.10018602,6.62759973 L4.11300009,6.17570723 C4.13898995,5.25916665 4.33903793,4.31793804 4.79030526,3.49409311 C4.85380738,3.68232274 4.96017619,3.95604253 5.10475827,4.26766734 C5.39350041,4.89000737 5.74670778,5.46695057 6.16954558,5.94504658 C6.16073584,5.92956647 6.16282526,5.91739638 6.17332311,5.90702806 C6.19352357,5.8870764 6.2306037,5.8883904 6.24887446,5.90903008 C5.71539744,5.30651057 5.30108509,4.56167001 5.00202705,3.80565608 L4.84224407,3.40172725 C4.84330762,3.39988443 4.84437246,3.39804223 4.84543861,3.39620066 C4.82393326,3.4333487 4.76780687,3.4261694 4.75685009,3.3900294 C4.76619373,3.42089495 4.77735859,3.45571728 4.79030526,3.49409311 C4.80726212,3.46313624 4.82457369,3.43234511 4.84224407,3.40172725 L4.78478938,3.25648271 L4.54171244,3.79471798 C4.11928839,4.73007419 3.99062876,5.72519965 4.02149493,6.55795213 C3.6745355,6.24404297 3.35554621,5.86413156 3.08744903,5.43997613 C2.80018597,4.98545565 2.58627521,4.50034489 2.46904315,4.0422628 L2.3239486,3.47530848 C2.33872514,3.44603905 2.35235499,3.42011893 2.36466236,3.3976709 C2.35082476,3.41514082 2.33095209,3.42220756 2.30893889,3.41665832 L2.27395159,3.27994612 L1.99329126,4.01507686 C1.82518102,4.45540631 1.68866935,4.93205527 1.60292596,5.43245467 C1.60635304,5.41246465 1.62867521,5.39611882 1.66013365,5.40214057 C1.68765804,5.40741058 1.69855193,5.42399492 1.69573151,5.44045504 C1.78502645,4.91927799 1.92776708,4.42774013 2.10239291,3.98059597 C2.17030415,3.80670349 2.23365276,3.66228861 2.28661377,3.5514194 C2.34353186,4.14573143 2.60005314,4.83125951 3.0029587,5.46871757 C3.20278953,5.78487486 3.43184793,6.07883579 3.68224,6.3412172 L4.09601189,6.77480145 L4.09776042,6.71313926 L4.11205911,6.74210301 C4.32270122,6.91624225 4.54003172,7.06560507 4.76044648,7.18678978 C5.60180081,7.64936721 6.51891551,7.74472922 7.44150409,7.28406688 L7.90197141,7.05414864 L7.80690653,7.00924844 L7.9216031,6.99482896 C8.43837531,6.66001171 8.92051348,6.5579485 9.36727624,6.67807209 C9.84667592,6.80696643 10.2185793,7.16288427 10.4652313,7.56888401 L10.6280415,7.68385469 L11.5218271,7.86953645 L11.1216286,8.35485115 C10.5339161,9.06756101 10.0180407,9.77907359 9.6759445,10.4064095 C8.85890852,11.9047128 7.38067844,12.3408016 5.19924648,12.2030947 C4.65908625,12.1689949 4.06481525,12.3633472 3.43070801,12.7713292 C3.46548918,12.759957 3.49079967,12.7709144 3.49966162,12.7909151 C3.50574913,12.804654 3.50218852,12.8171013 3.48489652,12.8282573 C4.10966264,12.4253345 4.68455714,12.2415783 5.19205713,12.2735042 C6.24733804,12.3400564 7.06632921,12.2691331 7.7663721,12.0472388 C8.66981016,11.7608583 9.32766752,11.2291578 9.7626609,10.4314911 C10.1519666,9.71761166 10.7561073,8.90743086 11.4021037,8.14955794 L11.5491903,7.97699833 C11.4830377,8.65813114 11.3139303,9.30702385 11.0432732,9.92134358 C11.0592042,9.89787229 11.0893246,9.89028775 11.1155025,9.90645261 C11.1334673,9.91754864 11.1372729,9.93039671 11.1312207,9.94412115 C11.326818,9.50063732 11.4700628,9.0381407 11.5601789,8.56022687 L11.7403953,7.60448215 L11.6640613,7.69705119 L11.6677439,7.60232633 C11.6728696,7.47047741 11.6744554,7.34189179 11.6722973,7.21540739 Z M11.0432732,9.92134358 C11.0429383,9.92210372 11.0426033,9.92286381 11.042268,9.92362385 C11.0432737,9.92134374 11.0444909,9.91917964 11.0458954,9.91714571 Z M3.43070801,12.7713292 C3.42905818,12.7723907 3.42740809,12.7734537 3.42575773,12.774518 C3.43059833,12.7713971 3.43559445,12.7691082 3.440608,12.7675735 Z M6.16954558,5.94504658 C6.17017847,5.94576218 6.17081151,5.94647756 6.17144471,5.94719271 C6.16956772,5.94507315 6.16801844,5.94288642 6.16679896,5.94065597 Z M6.85260348,6.47627954 C6.8521565,6.4759382 6.85170956,6.47559672 6.85126266,6.47525511 C6.85260493,6.47628142 6.85384832,6.47733448 6.85499406,6.47841041 Z M11.6517012,6.78692789 C11.6347468,6.569543 11.6078837,6.35022206 11.5711797,6.12940351 L11.5205241,5.82464944 L11.4272173,5.86135806 C11.4484719,5.96655182 11.4675334,6.07153044 11.4843927,6.17624496 L11.5980467,6.8821573 L11.6517012,6.78692789 Z M9.14965113,5.01713017 C9.14655277,5.00994456 9.14351059,5.0027776 9.14052481,4.9956314 C9.14396389,5.0102254 9.13827019,5.0232659 9.12235819,5.03227926 C9.13134819,5.02718917 9.14044708,5.02213811 9.14965113,5.01713017 Z M11.3471433,5.50549301 L11.5198699,5.64931133 L11.2415881,4.8156801 C11.2384832,4.80631684 11.2384832,4.80631684 11.2351084,4.79600168 C11.2301221,4.78075482 11.2301221,4.78075482 11.2243782,4.76365169 C11.1485421,4.54089027 11.0668633,4.32675795 10.9811886,4.12219808 L10.8993895,4.15385621 L10.9903672,4.38733186 C11.0393993,4.51316253 11.0857055,4.63956032 11.1292065,4.76677937 C11.2135855,5.01346888 11.2862676,5.25991264 11.3471433,5.50549301 Z M10.8371515,3.79491498 C10.5995519,3.28042771 10.3409163,2.83704882 10.0957997,2.48242965 L9.99390249,2.41246053 L10.0183368,2.5210628 C10.1498494,2.71080946 10.304609,2.95983346 10.4678336,3.26078542 L10.8191423,3.90852486 L10.8371515,3.79491498 Z M8.66048922,0.25806278 C8.66306594,0.24600283 8.66572522,0.234061721 8.66846316,0.222246009 C8.65909589,0.24158187 8.63820008,0.253498423 8.61333499,0.249195442 C8.62890667,0.251908162 8.64463122,0.254862816 8.66048922,0.25806278 Z M12.1658408,1.90620672 C12.1819659,1.90183255 12.1979674,1.89772582 12.2138244,1.89388417 C12.1853126,1.90079095 12.1601383,1.88552882 12.1546774,1.86708261 C12.1584879,1.87996619 12.162211,1.89301041 12.1658408,1.90620672 Z M13.5281532,5.54819613 C13.5282397,5.54820664 13.5283262,5.54821716 13.5284127,5.54822768 L13.5281532,5.54819597 Z M11.0038328,2.67885029 C11.2034607,2.31167555 11.553089,2.06349306 11.9592972,1.90255965 L12.2478979,1.78822048 L12.2980903,2.09456106 C12.3709738,2.53939317 12.3444177,2.97725993 12.1452829,3.34350891 C11.9456457,3.71067203 11.5959211,3.95892286 11.1897981,4.11977338 L10.9011917,4.23407984 L10.8510259,3.92774179 C10.7781689,3.48283915 10.8047117,3.04507412 11.0038354,2.67884554 Z M10.0659595,6.07557933 C9.68337368,5.93631647 9.38812887,5.62197924 9.16278633,5.23251009 L9.01757837,4.98154099 L9.28718499,4.87484932 C9.69559469,4.71322898 10.1160138,4.65715818 10.5008568,4.7972818 C10.883453,4.93654842 11.1787195,5.25091698 11.4040368,5.64039146 L11.5492327,5.89137124 L11.2796161,5.99804646 C10.8713115,6.15959435 10.4507935,6.21565148 10.0659644,6.07558111 Z M8.76469754,1.69052473 C8.54535741,1.33924657 8.49345301,0.903691977 8.53958213,0.453380886 L8.5710191,0.146494143 L8.86473285,0.240833911 C9.27893984,0.373875664 9.64267375,0.599225699 9.86481162,0.954948932 C10.0839944,1.30599268 10.1359725,1.74120665 10.0900139,2.19134606 L10.0585995,2.49903366 L9.76433617,2.40380951 C9.34930589,2.26950493 8.98561323,2.04430127 8.76470173,1.69053144 Z M13.012178,6.88707091 C12.7050128,7.16510613 12.2945045,7.27619401 11.8588297,7.28439352 L11.5593891,7.29002907 L11.6073522,6.99440095 C11.6797356,6.54825472 11.8438097,6.14394752 12.1496816,5.867091 C12.4566492,5.58924296 12.8668456,5.47811364 13.3023204,5.46977246 L13.602464,5.46402344 L13.5538016,5.76025177 C13.4803333,6.20748401 13.3163939,6.61172174 13.0121725,6.88707588 Z" id="Shape" stroke-width="0.5" fill-rule="nonzero"></path>
                    </g>
                </g>
            </g>
        </g>
    </g>
</svg>