<?xml version="1.0" encoding="UTF-8"?>
<svg width="130px" height="130px" viewBox="0 0 130 130" version="1.1" xmlns="http://www.w3.org/2000/svg" xmlns:xlink="http://www.w3.org/1999/xlink">
    <!-- Generator: Sketch 53.2 (72643) - https://sketchapp.com -->
    <title>LOGO Thiện header (gray)</title>
    <desc>Created with Sketch.</desc>
    <g id="LOGO-Thiện-header-(gray)" stroke="none" stroke-width="1" fill="none" fill-rule="evenodd">
        <g id="Group-3" transform="translate(48.000000, 61.000000)">
            <g id="elephant-black---red-eye" fill-rule="nonzero" stroke="#818181" stroke-width="2">
                <g id="Group" transform="translate(38.500000, 33.000000) scale(-1, 1) rotate(-180.000000) translate(-38.500000, -33.000000) translate(0.000000, -0.000000)">
                    <g transform="translate(0.000000, -0.000000)" id="Path">
                        <g transform="translate(0.000000, -0.000000)">
                            <path d="M43.8530024,65.4934839 C43.4358575,65.4934839 31.4830585,59.33515 23,57 C18.973616,55.8916485 1.01056497,53.0197276 1.007179,53 C-1.34826682,39.276543 1.73932909,13.9285476 3.72830244,10.0031452 C6.23474634,5.04590323 13.7583976,2.57247581 16.2648415,5.04590323 C18.7756049,7.52767742 16.2648415,7.52767742 13.7583976,12.4765726 C11.9421366,16.0684677 12.7626561,24.8435242 14.3032195,30.3536935 C14.3631293,29.9992339 14.4485805,29.6740806 14.5169415,29.3279677 C15.3481659,23.2689516 18.7756049,13.6857419 18.7756049,8.76429839 C18.7756049,1.24070161 23.2650805,0.0947822581 28.8057,0.0947822581 C34.3463195,0.0947822581 38.8380488,1.24070161 38.8380488,8.76429839 C38.8380488,9.27085484 38.8209585,9.7393871 38.8123195,10.2311048 C40.4298829,10.0938468 42.0923317,10.0031452 43.8530024,10.0031452 C44.915039,10.0031452 45.9406415,10.0369032 46.9491537,10.0875403 C46.9405146,9.64645968 46.9213585,9.22021774 46.9213585,8.76429839 C46.9213585,1.24070161 51.4129,0.0947822581 56.9514537,0.0947822581 C62.492261,0.0947822581 66.9858683,1.24070161 66.9858683,8.76429839 C66.9858683,12.5630081 69.532878,18.5248306 71.3427537,23.4991371 C71.6824927,24.2462661 71.9645756,25.0440323 72.2402732,25.8564516 C72.4902415,23.0960806 72.6506268,20.1435484 72.6506268,16.9780806 C72.6506268,15.8110161 73.6058024,14.8676452 74.7874707,14.8676452 C75.969139,14.8676452 76.9243146,15.8110161 76.9243146,16.9780806 C76.9243146,27.8528145 75.2748244,36.494879 73.618761,42.446129 C71.7724512,57.8520484 61.3770756,65.4934839 43.8530024,65.4934839 Z"></path>
                        </g>
                    </g>
                </g>
            </g>
            <g id="Group-2" transform="translate(6.000000, 14.000000)">
                <path d="M33.1461428,0.620341618 C32.7930473,0.522089364 32.4784475,0.484953571 32.1935502,0.506230883 C31.6910323,0.532063472 31.1879897,0.609642168 30.6922825,0.736977883 C29.6423662,1.02621417 28.8040663,1.3901182 28.2433766,1.76911928 C23.6379573,6.29442113 20.2718463,12.4253486 18.1485144,20.1711386 C18.1342579,20.5151849 18.0185244,20.8092931 17.8251882,20.9941135 L17.5058501,21.3839932 L16.6421455,21.3839932 L16.1988407,20.9510087 L16.1604201,20.8371361 C15.3243921,18.3592835 14.9201909,15.8918376 14.9494841,13.4217732 C15.0061024,12.0669181 15.0627702,10.9876208 15.1193733,10.1861378 C15.2008329,8.91312622 15.0922781,7.65404812 14.7928415,6.40438618 C14.1017464,3.44474317 12.3240363,1.63181603 9.41091359,0.907484005 C7.93790946,0.567424731 6.84768715,0.516107057 6.18401695,0.723792665 C5.43359392,1.00180934 4.73086512,1.45938876 4.07201853,2.10288588 C1.74676997,4.34819406 0.565650148,6.74132103 0.502661847,9.29871115 C0.848096653,9.57719788 1.42603468,9.82421188 2.23491327,10.0217238 C2.7794578,10.1546907 3.55376132,10.2897402 4.62096925,10.4392619 C4.77514532,10.4822867 4.92748241,10.5035425 5.0791391,10.5035425 C5.26050242,10.5035425 5.42698007,10.4818622 5.57963512,10.4392619 L5.71403149,10.4208609 C5.86398535,10.4208609 5.81172989,10.4682542 5.80659772,10.3834305 C5.80659772,10.1911821 5.78100518,10.1111925 5.76556981,10.0981394 C4.84830455,9.29490868 4.36750831,8.45286153 4.36750831,7.57225627 C4.36750831,7.13397791 4.47132195,6.71149108 4.68130305,6.30155026 C5.26589393,5.21668543 6.03764817,4.15000479 6.99552857,3.1010203 L7.14422945,2.93817647 L7.3647517,2.93817647 C7.39049621,2.93817647 7.74138708,2.86677604 8.25187835,2.74832032 C8.60062509,2.65542181 8.87894422,2.60745008 9.10012422,2.60745008 C9.28835803,2.60745008 9.46433711,2.65478122 9.59420527,2.75458172 C9.62313209,2.76054787 9.65098751,2.76785415 9.67817577,2.77670592 C9.96325456,2.86951995 10.171503,3.15939629 10.0580215,3.43509655 C10.1753964,3.6243632 10.233867,3.83592953 10.2312102,4.038051 C10.6845345,7.6909097 10.9960039,11.7425456 11.1660107,16.1990164 C11.1943389,17.2504248 11.2085183,18.0675345 11.2078804,18.6263425 C11.3164501,20.773696 11.8690223,22.6034386 12.8618093,24.1234723 C13.7259544,25.4391624 15.3935611,26.2281049 17.9068816,26.4631416 C18.962063,26.559013 19.7905569,26.4667932 20.3928877,26.2003798 C20.5252159,25.9817918 20.6072737,25.8098244 20.6426964,25.698224 C20.5451168,25.5068104 20.493775,25.30657 20.493775,25.1007546 C20.493775,24.8968752 20.5544284,24.6964434 20.6665243,24.4980556 C20.6911471,23.9646273 20.8477722,23.3807639 21.1364564,22.7328505 C21.379796,22.231093 21.6231749,21.7165272 21.8665968,21.1891411 C22.6886525,16.4163066 23.6256124,12.8464415 24.6847406,10.4699545 C26.4646411,6.4602711 29.2881031,3.17475749 33.1461428,0.620341618 Z M9.06471154,3.25998819 C9.07885082,3.20708402 9.0972057,3.14987861 9.12064018,3.08631401 C9.09312913,3.14005519 9.07661082,3.19296894 9.06927029,3.2440186 Z" id="V" stroke="#818181" fill-rule="nonzero"></path>
                <circle id="Oval" fill="#818181" cx="2.5" cy="10.5" r="2.5"></circle>
                <path d="M28.9315838,24.6269349 C28.9494278,24.6780188 28.9494278,24.7333588 28.9315838,24.7929566 C28.9226618,24.8440404 28.904818,24.8993804 28.878052,24.9589783 C28.6639237,25.1207438 28.4185722,25.2399376 28.1419898,25.3165634 C28.1063018,25.3165634 28.0572315,25.3272057 27.9947774,25.3484906 C27.9323233,25.3697756 27.883253,25.3804179 27.847565,25.3804179 L27.6602037,25.5592104 L27.6066719,25.6230649 C27.4906858,25.8529422 27.2185686,26.1126146 26.7903121,26.4020897 C26.2996015,26.7341347 25.8668905,26.8405578 25.4921661,26.7213621 C25.1174417,26.6362224 24.5642854,26.4702024 23.8326806,26.2232971 C23.29736,25.9849058 23.0207818,25.6528658 23.0029378,25.2271671 C22.9761717,24.588619 23.1323046,23.9969067 23.471341,23.4520123 C23.9352855,22.7283245 24.6088871,22.366486 25.4921661,22.366486 C25.7419824,22.366486 26.0274824,22.4941937 26.3486748,22.749613 C26.518193,22.8943505 26.7680055,23.0816552 27.0981199,23.3115325 L27.339013,23.4392414 C27.5085311,23.5499231 27.6691249,23.7116862 27.8207991,23.9245355 C27.9724733,24.1373849 28.0483092,24.3332034 28.0483092,24.5119968 L28.088458,24.5375386 C28.088458,24.5715945 28.1063018,24.5971361 28.1419898,24.614164 C28.1776779,24.631192 28.1955216,24.626935 28.1955216,24.6013931 L28.2892023,24.6013931 C28.3159683,24.6013931 28.3650386,24.5801085 28.4364147,24.5375386 L28.4899465,24.5119968 L28.6906907,24.5119968 L28.7843713,24.5375386 L28.9315838,24.6269349 Z M26.5226531,24.9589783 C26.5494192,24.9334363 26.562802,24.8993809 26.562802,24.8568111 C26.562802,24.8142412 26.5494192,24.767415 26.5226531,24.7163312 L26.5226531,24.6652476 C26.4691211,24.529024 26.4423554,24.3928025 26.4423554,24.2565789 C26.4423554,24.1203553 26.4691211,23.9841338 26.5226531,23.8479102 L26.5226531,23.7712848 C26.4691211,23.6606031 26.3352929,23.5882354 26.1211647,23.5541795 C26.0587106,23.5541795 26.027484,23.5669503 26.027484,23.5924922 L25.8802716,23.5924922 C25.1219008,23.8989953 24.6178148,24.3629999 24.3679985,24.9845201 C24.2877004,25.1803415 24.2787785,25.3633892 24.3412326,25.5336686 C24.3858426,25.6869202 24.5196708,25.8273987 24.742721,25.9551083 C24.8497851,26.0061921 24.9613086,26.0402475 25.0772947,26.0572754 C25.1932809,26.0743034 25.3048043,26.0487619 25.4118684,25.9806501 C26.0364091,25.7252308 26.406667,25.384677 26.5226531,24.9589783 Z M31.9828959,21.3320433 C32.054272,21.3831272 32.0899595,21.4384672 32.0899595,21.498065 C32.0899595,21.6087467 32.0141236,21.7407113 31.8624494,21.8939628 C31.6126331,22.157896 31.3895862,22.3196591 31.193302,22.3792569 L31.0996214,22.4047987 C31.0014793,22.4388546 30.8944167,22.4558823 30.7784306,22.4558823 C30.7070545,22.4558823 30.6356795,22.4516254 30.5643034,22.4431114 C30.136047,22.255804 29.9085391,22.0812701 29.8817731,21.9195046 C29.8550071,21.7577391 29.9129993,21.5321222 30.0557514,21.2426471 C30.1628155,21.1149374 30.3011046,21.0340559 30.4706228,21 L30.8453454,21 C31.2736018,21 31.5903284,21.0383123 31.7955347,21.1149381 C31.9204428,21.1575079 31.9828959,21.2298756 31.9828959,21.3320433 Z M32.9330853,25.9295665 C32.9776953,26.0147062 33,26.0955878 33,26.1722135 C33,26.3935769 32.8617109,26.5936523 32.5851286,26.7724457 C32.4156104,26.8746134 32.2148682,26.9469811 31.9828959,26.989551 C31.7866117,27.0150929 31.5546429,26.9938083 31.2869826,26.9256965 C30.3680156,26.6958192 29.9263827,26.1807315 29.9620708,25.3804179 C29.9799148,25.0483729 30.0289851,24.7035621 30.1092832,24.3459752 C30.1449713,24.1671817 30.162815,24.0011617 30.162815,23.8479102 C30.162815,23.6861447 30.1405103,23.5328954 30.0959003,23.3881579 L30.0959003,23.3243034 C30.0959003,23.3157894 30.1048221,23.3072755 30.1226662,23.2987616 C30.1405102,23.2902476 30.1494321,23.2732199 30.1494321,23.247678 C30.2654182,23.1965941 30.3590979,23.1710526 30.430474,23.1710526 C30.466162,23.1710526 30.4973886,23.1795664 30.5241546,23.1965944 L30.6579841,23.1965944 C30.9256444,23.2221363 31.3182069,23.2859902 31.8356835,23.3881579 L31.9293642,23.4520123 C32.0096622,23.5030962 32.0408888,23.5626931 32.0230448,23.6308049 C32.0052008,23.7074307 31.9605914,23.7585138 31.8892153,23.7840557 C31.621555,24.1671845 31.478805,24.5928768 31.460961,25.0611454 C31.452039,25.529414 31.5457187,25.9551064 31.7420029,26.3382352 L31.8892153,26.4276315 C31.8892153,26.4531734 31.9025981,26.4659442 31.9293642,26.4659442 C31.9918182,26.4659442 32.1434901,26.4020903 32.3843844,26.2743807 C32.6877327,26.1041012 32.8706312,25.9891643 32.9330853,25.9295665 Z" id="oi" fill="#818181" fill-rule="nonzero"></path>
                <path d="M59.1461428,0.620341618 C58.7930473,0.522089364 58.4784475,0.484953571 58.1935502,0.506230883 C57.6910323,0.532063472 57.1879897,0.609642168 56.6922825,0.736977883 C55.6423662,1.02621417 54.8040663,1.3901182 54.2433766,1.76911928 C49.6379573,6.29442113 46.2718463,12.4253486 44.1485144,20.1711386 C44.1342579,20.5151849 44.0185244,20.8092931 43.8251882,20.9941135 L43.5058501,21.3839932 L42.6421455,21.3839932 L42.1988407,20.9510087 L42.1604201,20.8371361 C41.3243921,18.3592835 40.9201909,15.8918376 40.9494841,13.4217732 C41.0061024,12.0669181 41.0627702,10.9876208 41.1193733,10.1861378 C41.2008329,8.91312622 41.0922781,7.65404812 40.7928415,6.40438618 C40.1017464,3.44474317 38.3240363,1.63181603 35.4109136,0.907484005 C33.9379095,0.567424731 32.8476872,0.516107057 32.184017,0.723792665 C31.4335939,1.00180934 30.7308651,1.45938876 30.0720185,2.10288588 C27.74677,4.34819406 26.5656501,6.74132103 26.5026618,9.29871115 C26.8480967,9.57719788 27.4260347,9.82421188 28.2349133,10.0217238 C28.7794578,10.1546907 29.5537613,10.2897402 30.6209692,10.4392619 C30.7751453,10.4822867 30.9274824,10.5035425 31.0791391,10.5035425 C31.2605024,10.5035425 31.4269801,10.4818622 31.5796351,10.4392619 L31.7140315,10.4208609 C31.8639854,10.4208609 31.8117299,10.4682542 31.8065977,10.3834305 C31.8065977,10.1911821 31.7810052,10.1111925 31.7655698,10.0981394 C30.8483046,9.29490868 30.3675083,8.45286153 30.3675083,7.57225627 C30.3675083,7.13397791 30.4713219,6.71149108 30.681303,6.30155026 C31.2658939,5.21668543 32.0376482,4.15000479 32.9955286,3.1010203 L33.1442294,2.93817647 L33.3647517,2.93817647 C33.3904962,2.93817647 33.7413871,2.86677604 34.2518783,2.74832032 C34.6006251,2.65542181 34.8789442,2.60745008 35.1001242,2.60745008 C35.288358,2.60745008 35.4643371,2.65478122 35.5942053,2.75458172 C35.6231321,2.76054787 35.6509875,2.76785415 35.6781758,2.77670592 C35.9632546,2.86951995 36.171503,3.15939629 36.0580215,3.43509655 C36.1753964,3.6243632 36.233867,3.83592953 36.2312102,4.038051 C36.6845345,7.6909097 36.9960039,11.7425456 37.1660107,16.1990164 C37.1943389,17.2504248 37.2085183,18.0675345 37.2078804,18.6263425 C37.3164501,20.773696 37.8690223,22.6034386 38.8618093,24.1234723 C39.7259544,25.4391624 41.3935611,26.2281049 43.9068816,26.4631416 C44.962063,26.559013 45.7905569,26.4667932 46.3928877,26.2003798 C46.5252159,25.9817918 46.6072737,25.8098244 46.6426964,25.698224 C46.5451168,25.5068104 46.493775,25.30657 46.493775,25.1007546 C46.493775,24.8968752 46.5544284,24.6964434 46.6665243,24.4980556 C46.6911471,23.9646273 46.8477722,23.3807639 47.1364564,22.7328505 C47.379796,22.231093 47.6231749,21.7165272 47.8665968,21.1891411 C48.6886525,16.4163066 49.6256124,12.8464415 50.6847406,10.4699545 C52.4646411,6.4602711 55.2881031,3.17475749 59.1461428,0.620341618 Z M35.0647115,3.25998819 C35.0788508,3.20708402 35.0972057,3.14987861 35.1206402,3.08631401 C35.0931291,3.14005519 35.0766108,3.19296894 35.0692703,3.2440186 Z" id="V" stroke="#818181" fill-rule="nonzero"></path>
                <path d="M51.1903368,19.8834951 C51.2645197,19.9378643 51.3016106,19.9967634 51.3016106,20.0601942 C51.3016106,20.1779941 51.2227925,20.3184458 51.0651538,20.4815534 C50.8055137,20.7624609 50.5736956,20.9346275 50.3696926,20.9980582 L50.272328,21.0252427 C50.1703266,21.0614888 50.0590539,21.0796116 49.9385067,21.0796116 C49.8643238,21.0796116 49.790142,21.0750809 49.7159591,21.0660194 C49.2708617,20.8666656 49.0344073,20.680907 49.0065887,20.5087378 C48.9787701,20.3365687 49.0390428,20.0964417 49.1874086,19.7883495 C49.2986829,19.6524265 49.4424101,19.5663432 49.6185945,19.5300971 L50.0080528,19.5300971 C50.4531502,19.5300971 50.7823319,19.5708734 50.9956077,19.6524272 C51.1254278,19.6977348 51.1903368,19.7747567 51.1903368,19.8834951 Z M52.1778917,24.7766989 C52.224256,24.8673143 52.2474378,24.9533975 52.2474378,25.0349514 C52.2474378,25.2705512 52.1037106,25.4834941 51.8162519,25.6737863 C51.6400675,25.7825247 51.4314312,25.8595466 51.1903368,25.9048542 C50.9863339,25.9320389 50.7452431,25.9093854 50.4670572,25.8368931 C49.5119524,25.5922317 49.0529526,25.0440171 49.090044,24.1922329 C49.1085897,23.8388331 49.1595897,23.4718465 49.2430455,23.0912621 C49.2801369,22.9009699 49.2986824,22.7242726 49.2986824,22.561165 C49.2986824,22.3889958 49.2755006,22.2258907 49.2291363,22.0718446 L49.2291363,22.0038834 C49.2291363,21.9948219 49.238409,21.9857605 49.2569547,21.976699 C49.2755004,21.9676374 49.2847732,21.9495146 49.2847732,21.92233 C49.4053204,21.8679608 49.502684,21.8407766 49.5768669,21.8407766 C49.6139583,21.8407766 49.6464128,21.849838 49.6742314,21.8679611 L49.8133237,21.8679611 C50.0915095,21.8951457 50.4995093,21.9631062 51.0373354,22.0718446 L51.1346999,22.1398058 C51.2181557,22.194175 51.2506102,22.2576048 51.2320645,22.330097 C51.2135188,22.4116508 51.1671552,22.4660192 51.0929723,22.4932038 C50.8147864,22.9009728 50.6664228,23.3540427 50.6478771,23.8524271 C50.6386042,24.3508115 50.7359678,24.8038814 50.9399708,25.2116504 L51.0929723,25.306796 C51.0929723,25.3339806 51.1068813,25.3475727 51.1346999,25.3475727 C51.19961,25.3475727 51.3572463,25.2796122 51.6076135,25.1436892 C51.9228909,24.9624585 52.1129817,24.8401297 52.1778917,24.7766989 Z M57.9780381,23.9747572 C58.0707667,24.1288033 58.1171303,24.2692549 58.1171303,24.3961164 C58.1171303,24.6498394 57.9780395,24.8763743 57.6998536,25.0757281 C57.3289391,25.3566356 56.8050303,25.5423943 56.1281113,25.6330096 C55.8313797,25.6783173 55.3955617,25.6284796 54.8206443,25.483495 C54.2828183,25.347572 53.9165457,25.2071204 53.7218156,25.0621358 C53.1283524,24.6362437 52.8316252,24.060845 52.8316252,23.3359223 C52.8316252,22.737861 53.0402615,22.1488702 53.4575403,21.568932 C53.7449991,21.179286 54.0880898,20.8530757 54.4868229,20.5902912 C54.6259158,20.5540451 54.769643,20.5359223 54.9180088,20.5359223 C55.0756475,20.5359223 55.2425565,20.5585758 55.4187409,20.6038835 C55.817474,20.7126219 56.1049284,20.8168279 56.2811128,20.9165048 C57.004396,21.3695815 57.3660322,21.8407742 57.3660322,22.330097 C57.3660322,22.719743 57.1434869,23.1184445 56.6983895,23.5262135 C56.4387493,23.7618134 56.114204,23.8660195 55.7247438,23.8388349 C55.6969252,23.8297733 55.3167436,23.7618128 54.5841875,23.6349514 C54.5007317,23.6349514 54.4450954,23.6893198 54.4172768,23.7980582 C54.3616396,24.3598733 54.6212758,24.740452 55.1961933,24.9398057 C56.2903911,24.9398057 57.2176634,24.6181261 57.9780381,23.9747572 Z M56.1281113,21.8543689 C56.1002927,21.7728151 56.0168382,21.6640783 55.8777453,21.5281553 L55.8221084,21.4601941 L55.5717424,21.4330097 L55.4743778,21.4601941 C55.0941904,21.8770247 54.9040996,22.2757262 54.9040996,22.6563106 C54.9040996,22.9100336 55.0339177,23.0776694 55.2935579,23.1592232 C55.3955594,23.1954694 55.506832,23.1954694 55.6273793,23.1592232 L55.6691069,23.0912621 C55.9751114,22.8828468 56.1281113,22.4705532 56.1281113,21.8543689 Z M62.7628111,24.9262135 C62.9297226,25.0802596 63.0085408,25.2252419 62.9992679,25.3611649 C62.9621765,25.6420725 62.7118129,25.8368925 62.2481698,25.9456309 C62.0534397,26.0000002 61.8355307,26.0135922 61.5944363,25.9864076 C60.6115129,25.8686077 59.9809677,25.578643 59.7027819,25.1165047 C59.5636889,24.8899664 59.4941435,24.6362473 59.4941435,24.3553397 C59.4941435,24.0744322 59.526598,23.775406 59.5915081,23.4582524 C59.5915081,23.4129447 59.6007808,23.3449842 59.6193265,23.2543689 L59.6610542,23.0504854 C59.670327,22.8511316 59.6007816,22.7423948 59.4524158,22.7242718 L59.2994144,22.7242718 C59.2437772,22.7242718 59.10005,22.706149 58.8682284,22.6699028 L58.715227,22.6699028 C58.576134,22.6245952 58.4973159,22.5792882 58.4787702,22.5339805 C58.4694973,22.5158575 58.4648609,22.4297742 58.4648609,22.2757281 L58.534407,22.2213592 C58.5807714,22.185113 58.6085895,22.1624595 58.6178624,22.153398 C58.7569553,22.1080903 58.9655916,22.0355992 59.2437775,21.9359223 L59.341142,21.9087378 C59.4153249,21.9087378 59.5173249,21.8770229 59.647145,21.8135922 C59.6842364,21.7864076 59.7027819,21.7637541 59.7027819,21.745631 C59.7676919,21.7093849 59.8001464,21.6414244 59.8001464,21.5417475 C59.8650565,21.2064708 59.9346019,20.6990325 60.0087848,20.0194175 C60.0087848,19.8291252 59.9902393,19.6569587 59.9531479,19.5029126 C59.9160564,19.4847895 59.897511,19.4440133 59.897511,19.3805825 L59.897511,19.3126214 C59.897511,19.2401291 59.9624201,19.2038835 60.0922401,19.2038835 C60.2313331,19.1223297 60.4075148,19.0679613 60.6207906,19.0407767 C60.6857007,19.0135921 60.7506097,19 60.8155198,19 C60.8989755,19 60.98243,19.0226535 61.0658858,19.0679612 C61.2142516,19.1223304 61.4414333,19.1766988 61.7474378,19.231068 C61.8216207,19.2673141 61.8981206,19.3035597 61.97694,19.3398058 C62.0557593,19.376052 62.0951684,19.4213589 62.0951684,19.4757281 C62.187897,19.5391589 62.2203515,19.6524264 62.1925329,19.815534 C62.1554415,20.0511338 62.0673506,20.3093837 61.9282577,20.5902912 C61.7335276,21.0071218 61.6222549,21.2427181 61.5944363,21.2970873 C61.5944363,21.5326872 61.7149817,21.6957924 61.9560761,21.7864077 C62.1786248,21.8317154 62.4011702,21.8815531 62.6237189,21.9359223 C62.7164475,22.0084146 62.7628111,22.0899671 62.7628111,22.1805825 C62.7628111,22.2077671 62.748902,22.2304206 62.7210834,22.2485436 C62.7210834,22.2938513 62.6700835,22.3165048 62.568082,22.3165048 L62.4707174,22.384466 L61.9560761,22.4388349 C62.030259,22.4388349 61.9097136,22.4614884 61.5944363,22.5067961 C61.5666177,22.5339807 61.5202541,22.5475728 61.4553441,22.5475728 C61.4275255,22.5656958 61.3904346,22.5974107 61.3440703,22.6427184 C61.028793,22.8601952 60.875793,23.2770195 60.8850659,23.8932038 C60.9036116,24.3644036 61.0102479,24.8038814 61.204978,25.2116504 C61.2606152,25.2932042 61.3440697,25.3475726 61.4553441,25.3747572 C61.4831627,25.4110033 61.5480717,25.4291261 61.6500732,25.4291261 C61.863349,25.4653722 62.0348944,25.438188 62.1647145,25.3475727 C62.3687175,25.2569574 62.568081,25.1165057 62.7628111,24.9262135 Z" id="iet" fill="#818181" fill-rule="nonzero"></path>
            </g>
        </g>
        <g id="chinese" transform="translate(36.000000, 35.000000)" fill-rule="nonzero" stroke="#818181" stroke-width="2">
            <path d="M52.8435497,31.9683366 L28.8376608,7.14763602 C28.6472975,6.95077777 28.3527778,6.95077777 28.1623227,7.14769734 L4.15649313,31.9683366 C4.02281893,32.106548 3.96822913,32.3154688 4.01843276,32.512306 C4.06681746,32.7021511 4.20334945,32.84503 4.37076552,32.8929148 C4.81835271,33.0209175 5.58707965,33.2216276 6.62783954,33.4650712 C8.29891282,33.8559511 10.1784242,34.2387177 12.2473364,34.5900406 C17.2984306,35.5296907 22.7159049,36 28.5,36 C34.2840991,36 39.7015582,35.5297243 44.7681427,34.5873801 C46.8214473,34.2388328 48.7008783,33.8560667 50.3720951,33.4651376 C51.4124836,33.2217711 52.175547,33.0225492 52.6291435,32.8930275 C52.7965938,32.845133 52.9331258,32.7022541 52.981586,32.512113 C53.0317817,32.3154132 52.9772176,32.1065415 52.8435497,31.9683366 Z" id="Shape" transform="translate(28.500000, 21.500000) rotate(-14.000000) translate(-28.500000, -21.500000) "></path>
        </g>
        <g id="bird-copy-2" transform="translate(29.000000, 29.000000)" fill="#818181" fill-rule="nonzero" stroke="#818181" stroke-width="0.5">
            <path d="M3.81294634,18.1147682 L3.81293595,18.1147762 C3.26954515,18.5372563 2.78394763,18.9867673 2.37840035,19.4119562 L2.18461502,19.615127 L2.00519751,19.3991629 C0.924829298,18.0987285 0.460409506,16.5501609 0.38644896,15.0904835 L0.369412116,14.7542463 L0.696212848,14.8351601 C1.73593609,15.0925892 2.88091149,15.1681631 4.0479226,15.108114 C4.76592719,15.0711688 5.3474095,14.9934375 5.70098655,14.924467 C5.72724036,14.9193548 5.7452212,14.902114 5.74916745,14.8833567 C5.75263159,14.8669184 5.7449903,14.8489589 5.72634524,14.8367829 C3.19756856,13.1861153 1.96383475,10.9797391 2.08251315,8.30205463 C2.08361964,8.27715018 2.05914696,8.25165347 2.02051132,8.25008555 C1.98378854,8.24838846 1.95612953,8.27276933 1.9549816,8.29874802 C1.9018457,9.49797461 2.12405763,10.6210049 2.61506455,11.6391752 C3.12848455,12.7037844 3.93994056,13.6590834 5.03568147,14.4861208 L5.53782877,14.8651288 L4.91250118,14.9341533 C3.34770788,15.1068774 1.73976525,15.0561356 0.339404507,14.6306125 C0.317866481,14.6240701 0.29414266,14.627483 0.276558564,14.6391402 C0.261924628,14.6488416 0.254045917,14.6623681 0.253324163,14.6756126 C0.232407317,15.0613315 0.270204879,15.6832147 0.438065008,16.4294409 C0.711564419,17.6452889 1.25598143,18.7790275 2.14108792,19.7292062 C2.15294805,19.7419444 2.17175428,19.75 2.19238988,19.75 C2.19440987,19.7499955 2.19440987,19.7499955 2.19378648,19.7499983 C2.21468829,19.7496322 2.23359151,19.7409163 2.24530187,19.7273868 C2.33135582,19.6281317 2.49316665,19.4537159 2.7121554,19.2361786 C3.07424302,18.8764909 3.47426658,18.5186451 3.90176547,18.1862678 C3.92438934,18.1686761 3.92718878,18.1427932 3.91032592,18.1229282 C3.88799222,18.0966184 3.84213123,18.0920748 3.81294634,18.1147682 Z" id="Path"></path>
            <path d="M12.75,10.5 C12.75,10.3623643 12.6376357,10.25 12.5,10.25 C12.3623643,10.25 12.25,10.3623643 12.25,10.5 C12.25,10.6376357 12.3623643,10.75 12.5,10.75 C12.6376005,10.75 12.75,10.6376005 12.75,10.5 Z" id="Path"></path>
            <path d="M18.7209364,7.57802071 C18.1425188,7.50770317 17.3818049,7.61144166 16.836604,8.10494124 C16.6834511,8.24358281 16.5525112,8.41292661 16.4418274,8.60937528 L16.0908522,9.23230852 L15.9771981,8.52639618 C15.8725559,7.87645665 15.7071374,7.21943746 15.4820506,6.56137663 C15.421448,6.3841441 15.3569458,6.20807828 15.2886551,6.03282405 L15.1976774,5.7993484 L15.4313614,5.7089073 C15.9971399,5.48993801 16.4873511,5.13818162 16.7608596,4.63512706 C17.122894,3.96927067 17.0769725,3.14834722 16.9014663,2.55495674 C16.8947978,2.53243151 16.8800018,2.52346196 16.8689241,2.52614663 C16.3013448,2.66365141 15.613682,3.03194045 15.2538823,3.69373322 C15.1417756,3.89992856 15.0676307,4.13156151 15.0276302,4.38390211 L14.9122629,5.11168953 L14.5609542,4.4639501 C14.3334829,4.04454079 14.1176265,3.69720566 13.9338382,3.43203547 L13.8926432,3.24893805 C14.0030181,2.57975969 13.9519034,1.8619986 13.6068461,1.30937153 C13.2094966,0.672937741 12.5016135,0.350150749 11.9283853,0.250289548 C11.9165663,0.248244228 11.9012795,0.258882718 11.8957494,0.282637443 C11.7552479,0.886057731 11.7573799,1.70872142 12.1573565,2.34928242 C12.5056814,2.90711832 13.1150107,3.23630514 13.7366666,3.38675219 L13.8835153,3.4875878 C14.4154666,4.25718151 14.9948718,5.33356985 15.4324344,6.61886879 C15.4400791,6.64163104 15.4400791,6.64163104 15.4469166,6.66253704 C15.4516137,6.67689443 15.4516137,6.67689443 15.456059,6.69029992 L15.7343408,7.52393116 L15.0589558,6.96158176 C14.883333,6.81535204 14.6979211,6.70434804 14.5018937,6.6329913 C13.8260093,6.38693569 13.0803216,6.58662757 12.5688376,6.87622743 C12.5509116,6.8863816 12.5408752,6.91713651 12.5519628,6.94373887 C12.7876025,7.50891548 13.2623111,8.15670151 13.9416053,8.40398105 C14.1351517,8.47443429 14.3422425,8.50777476 14.5606152,8.50777476 C14.9000017,8.50777476 15.2451907,8.42870932 15.5701039,8.30088242 L15.8575909,8.18777966 L15.9082465,8.49253374 C15.9880685,8.97275847 16.0339171,9.44767711 16.045442,9.91489196 C16.0502328,10.1090515 16.0484776,10.3067059 16.0405691,10.5101362 L16.0290953,10.8052765 L14.7178302,10.5328644 L14.5550199,10.4178938 C14.2023447,9.83737512 13.6712826,9.32913971 12.9796042,9.14317081 C12.3335898,8.96947331 11.6394721,9.11641018 10.9033474,9.59334613 L10.6876365,9.62046497 C10.2553235,9.4749071 9.83725412,9.24880246 9.44301988,8.94744981 C9.43179771,8.93887187 9.4191801,8.94100765 9.40848388,8.9566102 C9.39218271,8.98038869 9.39764874,9.01640693 9.41700511,9.03120685 C9.68322289,9.23470346 9.95975276,9.40418831 10.2437576,9.53832697 L10.7091378,9.75813117 L10.2486705,9.98804942 C9.0039403,10.6095619 7.76787883,10.4810356 6.62972466,9.85527737 C6.33031982,9.69066367 6.03470292,9.48749764 5.74789545,9.25039199 L5.65735945,9.06700029 C5.61502579,7.92857221 5.79112565,6.56554685 6.36835039,5.28742186 L6.61142732,4.7491866 L6.828665,5.29835997 C7.24600482,6.35338838 7.82409984,7.39267338 8.57036967,8.23552532 C8.58145659,8.24804972 8.59364965,8.2484818 8.60485465,8.23741481 C8.62364823,8.21885312 8.62482303,8.18188037 8.60666109,8.16137133 C8.02762538,7.50739259 7.54294232,6.7160011 7.1466241,5.8617971 C6.90790432,5.34727273 6.74530154,4.90850924 6.6702657,4.66061568 C6.66135866,4.63107456 6.63086396,4.62716181 6.61827801,4.6489026 C5.9311954,5.83571151 5.63027341,7.20555172 5.59248541,8.53815781 L5.57549721,9.13725203 L5.16172531,8.70366778 C4.81983276,8.34540463 4.50695342,7.94387252 4.23396183,7.51196578 C3.63203109,6.55961955 3.270196,5.53001369 3.24309351,4.67645494 C3.2423956,4.65445812 3.22831616,4.63567987 3.21672382,4.6323541 C3.20898227,4.630131 3.19565528,4.63590675 3.18798588,4.64984932 C3.10089166,4.80822997 2.96731335,5.08889296 2.81837988,5.47024967 C2.57463957,6.09436729 2.37544646,6.7803034 2.25079126,7.50786349 C2.2460571,7.53549232 2.26370556,7.56235951 2.27792895,7.56508282 C2.28821143,7.56705109 2.30705537,7.55324869 2.31117978,7.52915132 C2.4286387,6.84365463 2.6157383,6.19036991 2.8461269,5.5869154 L3.12678723,4.85178465 L3.32187879,5.61410133 C3.48655973,6.25758906 3.78644728,6.93767956 4.18894331,7.57452681 C4.83755123,8.60068669 5.69939577,9.4426139 6.61094292,9.94381388 C7.24099196,10.2902348 7.90856356,10.489274 8.59771414,10.4892408 C9.34099262,10.4892003 10.0833865,10.2566259 10.8197138,9.75018541 C11.5686675,9.23508295 12.2937225,9.05555969 12.9654136,9.23436684 C13.7521085,9.44363383 14.2879672,10.0427879 14.5675305,10.5813238 C14.5733516,10.5927175 14.5814998,10.5990588 14.5888963,10.6005933 L15.9697264,10.8874253 L15.6960009,11.2085557 C14.7986518,12.2613116 13.9598002,13.3862507 13.4174942,14.3806906 C12.8278945,15.4618657 11.9379872,16.1811161 10.7117975,16.5698056 C9.75621837,16.8726978 8.63502782,16.969791 7.18651579,16.8784393 C6.46215397,16.8328711 5.64764656,17.0932159 4.7676326,17.6607525 C4.75152809,17.6711423 4.741934,17.7046817 4.75242082,17.7283495 C4.76118024,17.7481187 4.77942047,17.7539398 4.78964314,17.7473488 C5.65331349,17.1903348 6.45827694,16.9263344 7.1844152,16.9721748 C10.2345782,17.1647219 12.3129568,16.5515849 13.4656841,14.4376815 C13.9352503,13.5765912 14.6456002,12.596853 15.4548444,11.6154948 L16.0736112,10.8651258 L15.8933947,11.8208705 C15.7701182,12.4746449 15.5741842,13.107259 15.3066398,13.7138686 C15.2959358,13.7381293 15.3059074,13.7718154 15.3221989,13.7818779 C15.3323213,13.7881285 15.3502679,13.7821981 15.3588243,13.7627978 C15.7617792,12.849173 16.0040578,11.8807979 16.0829767,10.8649301 L16.0829752,10.8649435 C16.0827353,10.867767 16.0827353,10.867767 16.0831048,10.8611442 C16.0831473,10.8603047 16.0831473,10.8603047 16.0835784,10.8533094 C16.0968115,10.6780074 16.1050037,10.4999439 16.1082475,10.31896 L16.1126265,10.0746483 L16.3569744,10.0734432 C16.9625616,10.0704564 17.5420781,9.91376405 17.9616801,9.53390755 C18.5110295,9.03665668 18.7274053,8.24774321 18.749956,7.62719329 C18.750954,7.59930623 18.735262,7.57988364 18.7209363,7.57802116 Z M18.7209363,7.57802116 C18.7208931,7.57801554 18.7208499,7.57801008 18.7208067,7.57800478 L18.7210662,7.57803649 C18.721023,7.57803123 18.7209797,7.57802597 18.7209364,7.57802071 Z M15.3021829,3.75052583 C15.5654006,3.26639058 16.0318302,2.93529712 16.5747192,2.72021285 L16.86332,2.60587368 L16.9135124,2.91221426 C17.0111882,3.50836167 16.9756466,4.09438416 16.712553,4.57826606 C16.4493228,5.0623865 15.9827649,5.39357104 15.4399963,5.60854191 L15.1513899,5.72284836 L15.1012241,5.41651032 C15.003583,4.82026349 15.0391069,4.23437561 15.3021855,3.75052107 Z M13.9537572,8.31242736 C13.4505203,8.12924703 13.0562358,7.70946556 12.7548114,7.18850082 L12.6096034,6.93753171 L12.87921,6.83084004 C13.4243005,6.61513093 13.9842192,6.54045522 14.4897123,6.72450825 C14.9929624,6.90769341 15.3872751,7.32751584 15.6886649,7.84848617 L15.8338607,8.09946596 L15.5642442,8.20614117 C15.0192945,8.42175336 14.459236,8.49641193 13.953762,8.31242914 Z M12.2026032,2.28724986 C11.9129583,1.82337694 11.8434784,1.24033829 11.9053066,0.636772987 L11.9367436,0.329886244 L12.2304574,0.424226012 C12.7837817,0.601951741 13.2687558,0.902415704 13.5616104,1.37138211 C13.8510471,1.8349446 13.920625,2.41752227 13.8590251,3.02086014 L13.8276106,3.32854774 L13.5333473,3.23332359 C12.9788109,3.05387458 12.4937732,2.75353234 12.2026074,2.28725657 Z M17.9313132,9.45368867 C17.5271794,9.81949649 16.9803001,9.9674878 16.3987075,9.97843352 L16.0992669,9.98406907 L16.14723,9.68844095 C16.2441765,9.09089626 16.4636107,8.55017211 16.8670023,8.18504684 C17.2708755,7.8194858 17.8173333,7.6714409 18.3986597,7.66030605 L18.6988033,7.65455704 L18.6501409,7.95078537 C18.5517248,8.54988538 18.3324194,9.09064299 17.9313077,9.45369364 Z" id="Shape"></path>
        </g>
        <g id="bird-copy" transform="translate(17.000000, 15.000000)" fill="#818181" fill-rule="nonzero" stroke="#818181" stroke-width="0.5">
            <path d="M3.81294634,18.1147682 L3.81293595,18.1147762 C3.26954515,18.5372563 2.78394763,18.9867673 2.37840035,19.4119562 L2.18461502,19.615127 L2.00519751,19.3991629 C0.924829298,18.0987285 0.460409506,16.5501609 0.38644896,15.0904835 L0.369412116,14.7542463 L0.696212848,14.8351601 C1.73593609,15.0925892 2.88091149,15.1681631 4.0479226,15.108114 C4.76592719,15.0711688 5.3474095,14.9934375 5.70098655,14.924467 C5.72724036,14.9193548 5.7452212,14.902114 5.74916745,14.8833567 C5.75263159,14.8669184 5.7449903,14.8489589 5.72634524,14.8367829 C3.19756856,13.1861153 1.96383475,10.9797391 2.08251315,8.30205463 C2.08361964,8.27715018 2.05914696,8.25165347 2.02051132,8.25008555 C1.98378854,8.24838846 1.95612953,8.27276933 1.9549816,8.29874802 C1.9018457,9.49797461 2.12405763,10.6210049 2.61506455,11.6391752 C3.12848455,12.7037844 3.93994056,13.6590834 5.03568147,14.4861208 L5.53782877,14.8651288 L4.91250118,14.9341533 C3.34770788,15.1068774 1.73976525,15.0561356 0.339404507,14.6306125 C0.317866481,14.6240701 0.29414266,14.627483 0.276558564,14.6391402 C0.261924628,14.6488416 0.254045917,14.6623681 0.253324163,14.6756126 C0.232407317,15.0613315 0.270204879,15.6832147 0.438065008,16.4294409 C0.711564419,17.6452889 1.25598143,18.7790275 2.14108792,19.7292062 C2.15294805,19.7419444 2.17175428,19.75 2.19238988,19.75 C2.19440987,19.7499955 2.19440987,19.7499955 2.19378648,19.7499983 C2.21468829,19.7496322 2.23359151,19.7409163 2.24530187,19.7273868 C2.33135582,19.6281317 2.49316665,19.4537159 2.7121554,19.2361786 C3.07424302,18.8764909 3.47426658,18.5186451 3.90176547,18.1862678 C3.92438934,18.1686761 3.92718878,18.1427932 3.91032592,18.1229282 C3.88799222,18.0966184 3.84213123,18.0920748 3.81294634,18.1147682 Z" id="Path"></path>
            <path d="M11.75,10.5 C11.75,10.3623643 11.6376357,10.25 11.5,10.25 C11.3623643,10.25 11.25,10.3623643 11.25,10.5 C11.25,10.6376357 11.3623643,10.75 11.5,10.75 C11.6376005,10.75 11.75,10.6376005 11.75,10.5 Z" id="Path"></path>
            <path d="M17.7337048,7.57778591 C17.1957663,7.50830615 16.4875648,7.61092399 15.9792581,8.0997845 C15.8355689,8.23798878 15.7124071,8.40722847 15.6081801,8.60377905 L15.253546,9.27254539 L15.1401343,8.52411267 C15.0415358,7.87343585 14.8856875,7.21574071 14.6736473,6.55707771 C14.6165656,6.37970826 14.5558128,6.20351272 14.4914939,6.02813502 L14.4086759,5.80231595 L14.6311289,5.71084062 C15.1607052,5.49307253 15.6195585,5.14323888 15.8767357,4.64065825 C16.2190513,3.97171949 16.1756429,3.14722155 16.009698,2.55109164 C16.0036458,2.52937055 15.9984139,2.52600067 16.0012007,2.52528307 C15.4709478,2.66177385 14.8281232,3.02756625 14.4900801,3.68820211 C14.3841467,3.89522071 14.3140081,4.12803278 14.2761698,4.38165138 L14.1610221,5.15345344 L13.806239,4.4584237 C13.5920758,4.0388724 13.3888628,3.69144474 13.2158452,3.42621274 L13.1781923,3.25127328 C13.2824799,2.57948317 13.2341484,1.85838552 12.9081366,1.30362801 C12.5353022,0.669136963 11.8742043,0.348842685 11.3392753,0.249829183 C11.3412073,0.250184418 11.3339213,0.255571823 11.3286873,0.279459871 C11.1958517,0.885612971 11.1978672,1.71190738 11.5758189,2.35502609 C11.902788,2.91138828 12.472153,3.23820938 13.0531873,3.38761409 L13.2004867,3.49340946 C13.7009608,4.2627172 14.2460711,5.33868664 14.6576279,6.62315266 C14.6647918,6.64581659 14.6647918,6.64581659 14.6712209,6.66670222 C14.6756449,6.68106995 14.6756449,6.68106995 14.6798445,6.69452625 L14.949502,7.55280933 L14.2756893,6.9567041 C14.111627,6.81156227 13.9388337,6.70164733 13.7567902,6.63123923 C13.1306274,6.38903765 12.4357384,6.58675638 11.9600876,6.87289958 C11.9455965,6.88162106 11.9345869,6.91746672 11.9468085,6.94862262 C12.1681178,7.51260333 12.6150396,8.1605883 13.2488553,8.40573282 C13.427967,8.47500661 13.6195302,8.50777476 13.8217555,8.50777476 C14.1370244,8.50777476 14.4586178,8.42951007 14.7615875,8.30286652 L15.0557264,8.17991434 L15.1050006,8.49488568 C15.1800275,8.97447318 15.2231186,9.44872504 15.2339496,9.91525451 C15.2384512,10.1090937 15.2368018,10.3064378 15.2293696,10.5095657 L15.2184074,10.8091688 L13.9636966,10.5322143 L13.8005546,10.4121832 C13.4695155,9.83322197 12.9710297,9.32634651 12.3261674,9.1421285 C11.7265264,8.97082289 11.0812802,9.11595119 10.3934374,9.58945864 L10.2879983,9.66204235 L10.1674715,9.61892521 C9.75844748,9.47260135 9.36333812,9.24560975 8.99112089,8.94341214 C8.99177806,8.94255508 8.9929401,8.94420533 8.9886902,8.95079211 C8.97123448,8.97784614 8.97741746,9.02113509 8.99542749,9.03576625 C9.24516927,9.23860001 9.50441431,9.4074217 9.77047369,9.54093842 L10.203425,9.75820663 L9.77550663,9.98522686 C8.59560735,10.6111896 7.42222955,10.4815557 6.34464759,9.85207166 C6.06189609,9.68689791 5.78291062,9.48317853 5.51236728,9.24553979 L5.42750524,9.06645451 C5.38772724,7.9298965 5.55322098,6.56890491 6.09574993,5.29252417 L6.34119648,4.71507432 L6.56011767,5.3030929 C6.9531042,6.35864806 7.49744456,7.39841239 8.19976853,8.24120714 C8.20222485,8.24415537 8.20124335,8.24539823 8.20042646,8.24533644 C8.21955837,8.22292691 8.22087611,8.17816591 8.20214305,8.15568982 C7.65708985,7.50161698 7.20107042,6.71049069 6.82821266,5.85662476 C6.60370276,5.34248404 6.45081195,4.90414233 6.38031737,4.65669593 C6.37305698,4.63111111 6.36940229,4.63061287 6.36251068,4.64326135 C5.71512751,5.8313865 5.43148984,7.20324346 5.39587417,8.53774128 L5.37913853,9.1648158 L4.95997048,8.69812459 C4.63803052,8.33968472 4.34350272,7.93808015 4.08659064,7.50620904 C3.52067119,6.55487747 3.18068936,5.52699141 3.15525753,4.67598901 C3.15456326,4.6527395 3.14345255,4.63532417 3.13827226,4.63176987 C3.14080891,4.63323579 3.13851685,4.63548209 3.13395338,4.64429674 C3.05186511,4.80290392 2.9260213,5.08384161 2.78571784,5.46555412 C2.55608203,6.0903061 2.3684036,6.77698334 2.25093572,7.50544472 C2.24576374,7.5375152 2.26257378,7.56470545 2.26716919,7.56564031 C2.26320426,7.56483391 2.27396936,7.55645612 2.2779782,7.53157009 C2.388387,6.84694625 2.56428726,6.19437932 2.78090099,5.59154432 L3.0635161,4.80502774 L3.25922243,5.61754153 C3.41447449,6.2621014 3.6970401,6.94295935 4.07614363,7.5802836 C4.68634881,8.60602437 5.49662454,9.44704641 6.35245168,9.94701981 C6.94223418,10.2915685 7.56632601,10.4892737 8.20961166,10.4892408 C8.90343144,10.4892006 9.59706917,10.2583191 10.2867412,9.75432079 C10.9964564,9.23569797 11.686848,9.05407354 12.3278973,9.23538936 C12.7666479,9.35939487 13.1420227,9.63888116 13.4578681,10.0141062 C13.6451347,10.2365793 13.7768273,10.4491544 13.8440383,10.5867264 C13.8491087,10.5972713 13.8537358,10.6010973 13.8543983,10.6012433 L15.15807,10.8889729 L14.9062884,11.2028208 C14.0617269,12.2555737 13.272246,13.3804751 12.7617178,14.3751538 C12.2064741,15.4569647 11.3665873,16.1782134 10.2080353,16.5684155 C9.30503664,16.8725303 8.24620781,16.9699539 6.87952656,16.878376 C6.20460308,16.8332641 5.44324329,17.091831 4.61862109,17.6568828 C4.60492439,17.6662715 4.59441506,17.7053065 4.60613101,17.733401 C4.6128125,17.749423 4.61385903,17.7497779 4.61175808,17.7512171 C5.42824051,17.1917251 6.19099523,16.925933 6.88135621,16.9722386 C9.74511879,17.1643176 11.6920407,16.554064 12.7753912,14.4432183 C13.2172185,13.5823567 13.8857873,12.6026123 14.6474192,11.6212667 L15.2402107,10.8574682 C15.2402583,10.8566458 15.2403164,10.8556425 15.2403878,10.8544106 C15.2528624,10.6788277 15.2605848,10.5004847 15.2636425,10.3192234 L15.267767,10.0747249 L15.5122969,10.0734436 C16.0766397,10.0704863 16.6159441,9.91555288 17.0073625,9.539064 C17.5242498,9.04195495 17.7286639,8.25007312 17.7499497,7.62771861 C17.7509985,7.5965823 17.7375908,7.57866109 17.7336974,7.57779116 Z M8.99112089,8.94341214 C8.99090676,8.9432383 8.99069264,8.94306443 8.99047853,8.94289053 C8.99016501,8.94263591 8.99050602,8.94236288 8.99091222,8.94242426 Z M8.20042646,8.24533644 C8.19976306,8.24528625 8.19920821,8.24437561 8.20069141,8.24281913 C8.2007117,8.24279784 8.20073197,8.24277652 8.20075221,8.24275517 Z M3.13827226,4.63176987 C3.13785211,4.63148159 3.13747097,4.6312845 3.13713756,4.63118287 C3.13794544,4.63142936 3.13854106,4.63166387 3.13894336,4.63194271 Z M17.7336974,7.57779116 C17.7336528,7.57778119 17.7336094,7.57777347 17.7335673,7.57776798 L17.7338423,7.57780367 C17.7337965,7.57779775 17.7337507,7.57779183 17.7337048,7.57778591 Z M14.5038636,3.75605692 C14.7518374,3.27145364 15.1933448,2.93846345 15.7070555,2.72221893 L16.0023063,2.59793424 L16.0511284,2.91453513 C16.1426722,3.50817741 16.1093962,4.09113532 15.8629468,4.57273482 C15.614961,5.05732369 15.1733323,5.39040534 14.6597333,5.60653678 L14.3644783,5.73078527 L14.3156826,5.41419057 C14.2241711,4.82044849 14.2574305,4.23762445 14.503866,3.75605227 Z M13.2408978,8.31067566 C12.7624468,8.12563257 12.3906293,7.70502958 12.1062798,7.18286052 L11.974039,6.94001826 L12.2289377,6.83284252 C12.7474528,6.61482558 13.2811759,6.53919468 13.7647204,6.72625996 C14.243184,6.9113079 14.6150282,7.33195198 14.8993447,7.85412628 L15.0315748,8.09697929 L14.7766648,8.2041393 C14.2582832,8.42205846 13.7244295,8.49767163 13.2409029,8.31067761 Z M11.5864962,2.28150621 C11.3149691,1.81947087 11.2499079,1.23938957 11.3078646,0.638257362 L11.3382089,0.323523524 L11.637456,0.425647876 C12.1615873,0.604518752 12.6211996,0.907066836 12.8974696,1.3771257 C13.1688016,1.83885212 13.2339545,2.41847465 13.1762118,3.01938055 L13.1458861,3.33496779 L12.8460719,3.23188356 C12.3208366,3.05129349 11.8611784,2.74887743 11.5865001,2.28151284 Z M17.0095724,9.44853222 C16.6257396,9.81767878 16.105105,9.96737355 15.5522954,9.97842782 L15.2553259,9.98436618 L15.3001618,9.69074076 C15.3911885,9.0946172 15.5970225,8.55570596 15.9770776,8.1902032 C16.3606623,7.82130618 16.8808956,7.67155723 17.4334519,7.66031196 L17.7310901,7.65425462 L17.6856032,7.94845888 C17.5931927,8.54615868 17.387478,9.08510773 17.009567,9.44853737 Z" id="Shape"></path>
        </g>
        <g id="bird" transform="translate(4.000000, 2.000000)" fill="#818181" fill-rule="nonzero" stroke="#818181" stroke-width="0.5">
            <path d="M3.81294634,18.1147682 L3.81293595,18.1147762 C3.26954515,18.5372563 2.78394763,18.9867673 2.37840035,19.4119562 L2.18461502,19.615127 L2.00519751,19.3991629 C0.924829298,18.0987285 0.460409506,16.5501609 0.38644896,15.0904835 L0.369412116,14.7542463 L0.696212848,14.8351601 C1.73593609,15.0925892 2.88091149,15.1681631 4.0479226,15.108114 C4.76592719,15.0711688 5.3474095,14.9934375 5.70098655,14.924467 C5.72724036,14.9193548 5.7452212,14.902114 5.74916745,14.8833567 C5.75263159,14.8669184 5.7449903,14.8489589 5.72634524,14.8367829 C3.19756856,13.1861153 1.96383475,10.9797391 2.08251315,8.30205463 C2.08361964,8.27715018 2.05914696,8.25165347 2.02051132,8.25008555 C1.98378854,8.24838846 1.95612953,8.27276933 1.9549816,8.29874802 C1.9018457,9.49797461 2.12405763,10.6210049 2.61506455,11.6391752 C3.12848455,12.7037844 3.93994056,13.6590834 5.03568147,14.4861208 L5.53782877,14.8651288 L4.91250118,14.9341533 C3.34770788,15.1068774 1.73976525,15.0561356 0.339404507,14.6306125 C0.317866481,14.6240701 0.29414266,14.627483 0.276558564,14.6391402 C0.261924628,14.6488416 0.254045917,14.6623681 0.253324163,14.6756126 C0.232407317,15.0613315 0.270204879,15.6832147 0.438065008,16.4294409 C0.711564419,17.6452889 1.25598143,18.7790275 2.14108792,19.7292062 C2.15294805,19.7419444 2.17175428,19.75 2.18816927,19.7500356 C2.21454938,19.7495902 2.23352577,19.7409923 2.24530187,19.7273868 C2.33135582,19.6281317 2.49316665,19.4537159 2.7121554,19.2361786 C3.07424302,18.8764909 3.47426658,18.5186451 3.90176547,18.1862678 C3.92438934,18.1686761 3.92718878,18.1427932 3.91032592,18.1229282 C3.88799222,18.0966184 3.84213123,18.0920748 3.81294634,18.1147682 Z" id="Path"></path>
            <path d="M12.75,10.5 C12.75,10.3623643 12.6376357,10.25 12.5,10.25 C12.3623643,10.25 12.25,10.3623643 12.25,10.5 C12.25,10.6376357 12.3623643,10.75 12.5,10.75 C12.6376005,10.75 12.75,10.6376005 12.75,10.5 Z" id="Path"></path>
            <path d="M18.7209364,7.57802071 C18.1425188,7.50770317 17.3818049,7.61144166 16.836604,8.10494124 C16.6834511,8.24358281 16.5525112,8.41292661 16.4418274,8.60937528 L16.0908522,9.23230852 L15.9771981,8.52639618 C15.8725559,7.87645665 15.7071374,7.21943746 15.4820506,6.56137663 C15.421448,6.3841441 15.3569458,6.20807828 15.2886551,6.03282405 L15.1976774,5.7993484 L15.4313614,5.7089073 C15.9971399,5.48993801 16.4873511,5.13818162 16.7608596,4.63512706 C17.122894,3.96927067 17.0769725,3.14834722 16.9014663,2.55495674 C16.8947978,2.53243151 16.8800018,2.52346196 16.8689241,2.52614663 C16.3013448,2.66365141 15.613682,3.03194045 15.2538823,3.69373322 C15.1417756,3.89992856 15.0676307,4.13156151 15.0276302,4.38390211 L14.9122629,5.11168953 L14.5609542,4.4639501 C14.3334829,4.04454079 14.1176265,3.69720566 13.9338382,3.43203547 L13.8926432,3.24893805 C14.0030181,2.57975969 13.9519034,1.8619986 13.6068461,1.30937153 C13.2094966,0.672937741 12.5016135,0.350150749 11.9283853,0.250289548 C11.9165663,0.248244228 11.9012795,0.258882718 11.8957494,0.282637443 C11.7552479,0.886057731 11.7573799,1.70872142 12.1573565,2.34928242 C12.5056814,2.90711832 13.1150107,3.23630514 13.7366666,3.38675219 L13.8835153,3.4875878 C14.4154666,4.25718151 14.9948718,5.33356985 15.4324344,6.61886879 C15.4400791,6.64163104 15.4400791,6.64163104 15.4469166,6.66253704 C15.4516137,6.67689443 15.4516137,6.67689443 15.456059,6.69029992 L15.7343408,7.52393116 L15.0589558,6.96158176 C14.883333,6.81535204 14.6979211,6.70434804 14.5018937,6.6329913 C13.8260093,6.38693569 13.0803216,6.58662757 12.5688376,6.87622743 C12.5509116,6.8863816 12.5408752,6.91713651 12.5519628,6.94373887 C12.7876025,7.50891548 13.2623111,8.15670151 13.9416053,8.40398105 C14.1351517,8.47443429 14.3422425,8.50777476 14.5606152,8.50777476 C14.9000017,8.50777476 15.2451907,8.42870932 15.5701039,8.30088242 L15.8575909,8.18777966 L15.9082465,8.49253374 C15.9880685,8.97275847 16.0339171,9.44767711 16.045442,9.91489196 C16.0502328,10.1090515 16.0484776,10.3067059 16.0405691,10.5101362 L16.0290953,10.8052765 L14.7178302,10.5328644 L14.5550199,10.4178938 C14.2023447,9.83737512 13.6712826,9.32913971 12.9796042,9.14317081 C12.3335898,8.96947331 11.6394721,9.11641018 10.9033474,9.59334613 L10.6876365,9.62046497 C10.2553235,9.4749071 9.83725412,9.24880246 9.44301988,8.94744981 C9.43179771,8.93887187 9.4191801,8.94100765 9.40848388,8.9566102 C9.39218271,8.98038869 9.39764874,9.01640693 9.41700511,9.03120685 C9.68322289,9.23470346 9.95975276,9.40418831 10.2437576,9.53832697 L10.7091378,9.75813117 L10.2486705,9.98804942 C9.0039403,10.6095619 7.76787883,10.4810356 6.62972466,9.85527737 C6.33031982,9.69066367 6.03470292,9.48749764 5.74789545,9.25039199 L5.65735945,9.06700029 C5.61502579,7.92857221 5.79112565,6.56554685 6.36835039,5.28742186 L6.61142732,4.7491866 L6.828665,5.29835997 C7.24600482,6.35338838 7.82409984,7.39267338 8.57036967,8.23552532 C8.58145659,8.24804972 8.59364965,8.2484818 8.60485465,8.23741481 C8.62364823,8.21885312 8.62482303,8.18188037 8.60666109,8.16137133 C8.02762538,7.50739259 7.54294232,6.7160011 7.1466241,5.8617971 C6.90790432,5.34727273 6.74530154,4.90850924 6.6702657,4.66061568 C6.66135866,4.63107456 6.63086396,4.62716181 6.61827801,4.6489026 C5.9311954,5.83571151 5.63027341,7.20555172 5.59248541,8.53815781 L5.57549721,9.13725203 L5.16172531,8.70366778 C4.81983276,8.34540463 4.50695342,7.94387252 4.23396183,7.51196578 C3.63203109,6.55961955 3.270196,5.53001369 3.24309351,4.67645494 C3.2423956,4.65445812 3.22831616,4.63567987 3.21672382,4.6323541 C3.20898227,4.630131 3.19565528,4.63590675 3.18798588,4.64984932 C3.10089166,4.80822997 2.96731335,5.08889296 2.81837988,5.47024967 C2.57463957,6.09436729 2.37544646,6.7803034 2.25079126,7.50786349 C2.2460571,7.53549232 2.26370556,7.56235951 2.27792895,7.56508282 C2.28821143,7.56705109 2.30705537,7.55324869 2.31117978,7.52915132 C2.4286387,6.84365463 2.6157383,6.19036991 2.8461269,5.5869154 L3.12678723,4.85178465 L3.32187879,5.61410133 C3.48655973,6.25758906 3.78644728,6.93767956 4.18894331,7.57452681 C4.83755123,8.60068669 5.69939577,9.4426139 6.61094292,9.94381388 C7.24099196,10.2902348 7.90856356,10.489274 8.59771414,10.4892408 C9.34099262,10.4892003 10.0833865,10.2566259 10.8197138,9.75018541 C11.5686675,9.23508295 12.2937225,9.05555969 12.9654136,9.23436684 C13.7521085,9.44363383 14.2879672,10.0427879 14.5675305,10.5813238 C14.5733516,10.5927175 14.5814998,10.5990588 14.5888963,10.6005933 L15.9697264,10.8874253 L15.6960009,11.2085557 C14.7986518,12.2613116 13.9598002,13.3862507 13.4174942,14.3806906 C12.8278945,15.4618657 11.9379872,16.1811161 10.7117975,16.5698056 C9.75621837,16.8726978 8.63502782,16.969791 7.18651579,16.8784393 C6.46215397,16.8328711 5.64764656,17.0932159 4.7676326,17.6607525 C4.75152809,17.6711423 4.741934,17.7046817 4.75242082,17.7283495 C4.76118024,17.7481187 4.77942047,17.7539398 4.78964314,17.7473488 C5.65331349,17.1903348 6.45827694,16.9263344 7.1844152,16.9721748 C10.2345782,17.1647219 12.3129568,16.5515849 13.4656841,14.4376815 C13.9352503,13.5765912 14.6456002,12.596853 15.4548444,11.6154948 L16.0736112,10.8651258 L15.8933947,11.8208705 C15.7701182,12.4746449 15.5741842,13.107259 15.3066398,13.7138686 C15.2959358,13.7381293 15.3059074,13.7718154 15.3221989,13.7818779 C15.3323213,13.7881285 15.3502679,13.7821981 15.3588243,13.7627978 C15.7617792,12.849173 16.0040578,11.8807979 16.0829752,10.8649435 C16.0827353,10.867767 16.0827353,10.867767 16.0831048,10.8611442 C16.0831473,10.8603047 16.0831473,10.8603047 16.0835784,10.8533094 C16.0968115,10.6780074 16.1050037,10.4999439 16.1082475,10.31896 L16.1126265,10.0746483 L16.3569744,10.0734432 C16.9625616,10.0704564 17.5420781,9.91376405 17.9616801,9.53390755 C18.5110295,9.03665668 18.7274053,8.24774321 18.749956,7.62719329 C18.750954,7.59930623 18.735262,7.57988364 18.7209363,7.57802116 Z M18.7209363,7.57802116 C18.7208931,7.57801554 18.7208499,7.57801008 18.7208067,7.57800478 L18.7210662,7.57803649 C18.721023,7.57803123 18.7209797,7.57802597 18.7209364,7.57802071 Z M15.3021829,3.75052583 C15.5654006,3.26639058 16.0318302,2.93529712 16.5747192,2.72021285 L16.86332,2.60587368 L16.9135124,2.91221426 C17.0111882,3.50836167 16.9756466,4.09438416 16.712553,4.57826606 C16.4493228,5.0623865 15.9827649,5.39357104 15.4399963,5.60854191 L15.1513899,5.72284836 L15.1012241,5.41651032 C15.003583,4.82026349 15.0391069,4.23437561 15.3021855,3.75052107 Z M13.9537572,8.31242736 C13.4505203,8.12924703 13.0562358,7.70946556 12.7548114,7.18850082 L12.6096034,6.93753171 L12.87921,6.83084004 C13.4243005,6.61513093 13.9842192,6.54045522 14.4897123,6.72450825 C14.9929624,6.90769341 15.3872751,7.32751584 15.6886649,7.84848617 L15.8338607,8.09946596 L15.5642442,8.20614117 C15.0192945,8.42175336 14.459236,8.49641193 13.953762,8.31242914 Z M12.2026032,2.28724986 C11.9129583,1.82337694 11.8434784,1.24033829 11.9053066,0.636772987 L11.9367436,0.329886244 L12.2304574,0.424226012 C12.7837817,0.601951741 13.2687558,0.902415704 13.5616104,1.37138211 C13.8510471,1.8349446 13.920625,2.41752227 13.8590251,3.02086014 L13.8276106,3.32854774 L13.5333473,3.23332359 C12.9788109,3.05387458 12.4937732,2.75353234 12.2026074,2.28725657 Z M17.9313132,9.45368867 C17.5271794,9.81949649 16.9803001,9.9674878 16.3987075,9.97843352 L16.0992669,9.98406907 L16.14723,9.68844095 C16.2441765,9.09089626 16.4636107,8.55017211 16.8670023,8.18504684 C17.2708755,7.8194858 17.8173333,7.6714409 18.3986597,7.66030605 L18.6988033,7.65455704 L18.6501409,7.95078537 C18.5517248,8.54988538 18.3324194,9.09064299 17.9313077,9.45369364 Z" id="Shape"></path>
        </g>
    </g>
</svg>