<?xml version="1.0" encoding="UTF-8"?>
<svg width="27px" height="27px" viewBox="0 0 27 27" version="1.1" xmlns="http://www.w3.org/2000/svg" xmlns:xlink="http://www.w3.org/1999/xlink">
    <!-- Generator: Sketch 53.2 (72643) - https://sketchapp.com -->
    <title>twitter</title>
    <desc>Created with Sketch.</desc>
    <g id="Symbols" stroke="none" stroke-width="1" fill="none" fill-rule="evenodd">
        <g id="footer" transform="translate(-706.000000, -56.000000)">
            <g id="Group-4">
                <g transform="translate(363.000000, 24.000000)">
                    <g id="Group-3" transform="translate(184.000000, 30.000000)">
                        <g id="twitter" transform="translate(159.000000, 2.000000)">
                            <rect id="Rectangle" x="0" y="0" width="27" height="27"></rect>
                            <circle id="Oval" stroke="#FFFFFF" cx="13.5" cy="13.5" r="13"></circle>
                            <path d="M18.4685684,10.7390582 C19.019487,10.3958544 19.442214,9.85165391 19.6406057,9.20338004 C19.1247872,9.5219558 18.5547925,9.75234725 17.9466455,9.87707641 C17.4613488,9.33684819 16.7677408,9 16.0001174,9 C14.5274403,9 13.3340377,10.2433194 13.3340377,11.7766142 C13.3340377,11.9942944 13.356166,12.2064134 13.4019487,12.408999 C11.1860656,12.2930088 9.22122439,11.1887188 7.90497153,9.50765564 C7.67529495,9.91918244 7.54405118,10.3958544 7.54405118,10.9043045 C7.54405118,11.8671819 8.01485003,12.7172469 8.73058637,13.2161635 C8.29336151,13.2018634 7.88208018,13.0755453 7.52192287,12.8689874 L7.52192287,12.9031489 C7.52192287,14.2489528 8.44062922,15.3715152 9.66226448,15.6257403 C9.43792921,15.6908855 9.20291131,15.723458 8.95873687,15.723458 C8.78705171,15.723458 8.61918178,15.7067745 8.45741621,15.6742019 C8.79620825,16.7769031 9.78129952,17.5808898 10.9487586,17.60234 C10.0353936,18.3475372 8.88548453,18.7908421 7.63637964,18.7908421 C7.42120092,18.7908421 7.20831132,18.7789253 7,18.7527084 C8.18043083,19.5400116 9.58214474,20 11.0883958,20 C15.9947761,20 18.6761167,15.7687419 18.6761167,12.0991622 C18.6761167,11.9784053 18.6745906,11.8584429 18.6692493,11.7400693 C19.1904091,11.3484039 19.6436579,10.8590207 20,10.3021089 C19.5215707,10.5229669 19.0072783,10.6723241 18.4685684,10.7390582 Z" id="Shape" fill="#FFFFFF"></path>
                        </g>
                    </g>
                </g>
            </g>
        </g>
    </g>
</svg>