<?xml version="1.0" encoding="UTF-8"?>
<svg width="28px" height="27px" viewBox="0 0 28 27" version="1.1" xmlns="http://www.w3.org/2000/svg" xmlns:xlink="http://www.w3.org/1999/xlink">
    <!-- Generator: Sketch 53.2 (72643) - https://sketchapp.com -->
    <title>youtube</title>
    <desc>Created with Sketch.</desc>
    <g id="Symbols" stroke="none" stroke-width="1" fill="none" fill-rule="evenodd">
        <g id="footer" transform="translate(-653.000000, -56.000000)">
            <g id="Group-4">
                <g transform="translate(363.000000, 24.000000)">
                    <g id="Group-3" transform="translate(184.000000, 30.000000)">
                        <g id="youtube" transform="translate(106.000000, 1.000000)">
                            <rect id="Rectangle" x="0" y="0" width="28" height="27"></rect>
                            <ellipse id="Oval" stroke="#FFFFFF" cx="14" cy="14.5" rx="13.5" ry="13"></ellipse>
                            <path d="M10.1344164,17.5309974 L10.1449893,14.938207 L10.626811,14.9331261 L11.1081292,14.927029 L11.102591,14.5276691 L11.0965493,14.1278012 L9.70596261,14.1222122 L8.31638281,14.1166232 L8.31638281,14.5220801 L8.31638281,14.927029 L8.78662467,14.9331261 L9.25686653,14.938207 L9.26240471,17.5096576 C9.26492206,18.9236759 9.27197066,20.0933023 9.27750884,20.108037 C9.2850609,20.1288687 9.38273426,20.1339496 9.70545914,20.1293768 L10.1238435,20.1237878 L10.1344164,17.5309974 Z M18.1552119,17.3485926 C18.1355766,17.2967673 18.162764,16.6977275 18.1889445,16.6108439 C18.2498645,16.4065911 18.3792565,16.3070052 18.5831622,16.3070052 C18.752832,16.3070052 18.8605747,16.3730571 18.9330746,16.5214198 C18.9788904,16.6154167 18.9834216,16.6555559 18.9904702,17.0030904 L18.9975188,17.3816185 L18.5821553,17.3816185 C18.2251944,17.3816185 18.1657848,17.3770457 18.1552119,17.3485926 L18.1552119,17.3485926 Z M18.9305572,20.1420791 C19.3373617,20.0267424 19.618802,19.7462759 19.7250343,19.3504727 C19.7426558,19.2828965 19.7632981,19.0903299 19.7703467,18.9231678 L19.78243,18.6193292 L19.3907296,18.6193292 L18.9985258,18.6193292 L18.9889598,18.8916662 C18.9778835,19.2010938 18.9461648,19.3072849 18.8343942,19.4063628 C18.7155751,19.5115377 18.4970687,19.519159 18.3550899,19.4226217 C18.1859237,19.3072849 18.1441356,19.1126859 18.1526946,18.4806202 L18.1587362,18.0324836 L18.9698279,18.0274027 L19.7809196,18.0213056 L19.7703467,17.3546897 C19.7572565,16.6108439 19.7421524,16.4980476 19.6182985,16.23384 C19.3821706,15.73337 18.7281619,15.4808486 18.1849167,15.6805285 C17.7750914,15.8314317 17.5329219,16.1032606 17.435752,16.5239602 C17.4015159,16.6723229 17.3974882,16.8054429 17.3974882,17.8937747 C17.3974882,19.2285308 17.4020194,19.2828965 17.5369496,19.5562497 C17.7781122,20.0424932 18.3817739,20.2965389 18.9305572,20.1420791 L18.9305572,20.1420791 Z M15.7189161,19.3819744 C15.7687597,19.3479322 15.8014853,19.3006797 15.8271623,19.2270065 C15.8598879,19.129961 15.8629088,19.0064948 15.8583775,17.8617649 C15.8538463,16.6687663 15.8513289,16.5986497 15.8130651,16.5204036 C15.7148883,16.3207237 15.4676841,16.3014162 15.2411221,16.4761996 L15.1666084,16.5331059 L15.1666084,17.8937747 L15.1666084,19.2544434 L15.2406187,19.3113497 C15.4082745,19.4404049 15.5920414,19.4673337 15.7189161,19.3819744 L15.7189161,19.3819744 Z M16.2098002,20.1502086 C16.3331506,20.1141341 16.482178,19.9662795 16.5491396,19.8153763 C16.6780282,19.5262723 16.6785317,19.519159 16.6785317,17.8937747 C16.6785317,16.5595266 16.6745039,16.394905 16.6417783,16.2506071 C16.5355459,15.788752 16.3039493,15.5870397 15.9142628,15.616509 C15.6962599,15.6337841 15.5245763,15.7211758 15.3186567,15.9218719 C15.2290388,16.0087556 15.148987,16.0803964 15.1399245,16.0803964 C15.1318689,16.0803964 15.1243169,15.6383569 15.1243169,15.0987639 L15.1243169,14.1171313 L14.7436928,14.1171313 L14.3630688,14.1171313 L14.3630688,17.1255405 L14.3630688,20.1344577 L14.7436928,20.1344577 L15.1243169,20.1344577 L15.1243169,19.9317293 C15.1243169,19.797085 15.1323724,19.7290008 15.14798,19.7290008 C15.1605668,19.7290008 15.2461568,19.8001336 15.338292,19.8875253 C15.6343329,20.1684999 15.8905997,20.2457298 16.2098002,20.1502086 L16.2098002,20.1502086 Z M12.1583696,20.130393 C12.3104178,20.0734868 12.48915,19.9484963 12.6396878,19.7940365 C12.7086633,19.7229037 12.7776388,19.6649813 12.792743,19.6649813 C12.8128818,19.6649813 12.8199304,19.7229037 12.8199304,19.8997195 L12.8199304,20.1344577 L13.2005544,20.1344577 L13.5811784,20.1344577 L13.5811784,17.9044446 L13.5811784,15.6749395 L13.2005544,15.6749395 L12.8199304,15.6749395 L12.8199304,17.3948289 L12.8199304,19.1152264 L12.6557989,19.2793399 C12.5259034,19.4099194 12.4715285,19.4495505 12.3909731,19.4719065 C12.255036,19.5100134 12.168439,19.4835927 12.1125537,19.3865472 C12.0702621,19.3143982 12.0692552,19.2808642 12.0632136,17.4939067 L12.0576754,15.6749395 L11.6770513,15.6749395 L11.2974343,15.6749395 L11.2974343,17.6061949 C11.2974343,19.7102014 11.2994481,19.7559296 11.4162534,19.9586581 C11.544135,20.180186 11.8431968,20.2497945 12.1583696,20.130393 L12.1583696,20.130393 Z M12.4815979,21.9910237 C11.9871894,21.9823862 11.4021562,21.9686677 11.1811325,21.9605382 C9.6974036,21.9066805 8.67888189,21.8492662 8.47547963,21.8076027 C8.18548036,21.7486641 7.86124508,21.5505085 7.67294695,21.3172945 C7.37187132,20.9438473 7.21076062,20.4906298 7.13272263,19.7930203 C6.95197656,18.1711926 6.95600432,16.2795683 7.14379899,14.7146468 C7.22636822,14.0287234 7.43128089,13.5333342 7.77515155,13.1878321 C7.97150521,12.9901845 8.16030682,12.8804368 8.41153882,12.8154011 C8.95629438,12.6746598 13.2186794,12.5628797 15.8115547,12.6208021 C17.3093808,12.6543361 18.9275364,12.7244527 19.3575006,12.7737376 C19.9138359,12.8377571 20.3045294,13.1283854 20.5748933,13.6796646 C20.7793025,14.0957914 20.8442502,14.4199537 20.927323,15.4188614 C20.9922707,16.2094517 21.0083818,16.7023003 20.9962985,17.6153406 C20.9827048,18.7077371 20.9137292,19.6700622 20.8105177,20.2101634 C20.701768,20.7812581 20.4449978,21.2680097 20.1122035,21.5317091 C19.8559368,21.7354537 19.5825521,21.8264021 19.1520844,21.8507905 C19.0242028,21.8584119 18.8625886,21.8685737 18.7926062,21.8741627 C18.5448985,21.8934702 17.2167421,21.9473279 16.4882197,21.9681596 C15.4057571,21.9986451 13.5116995,22.009315 12.4815979,21.9910237 Z M11.1458327,12.0805299 C11.1277077,12.0505525 11.1307285,10.2950967 11.1488535,10.04664 C11.1725166,9.72806674 11.1191487,9.47706959 10.8925868,8.83585824 C10.81908,8.62804885 10.6861637,8.22462428 10.5975528,7.9400931 C9.95663431,5.88283101 9.99036686,6.00324867 10.0517903,6.00274058 C10.4742024,5.99918394 10.9952949,6.0017244 11.0013365,6.0078215 C11.0053643,6.01188623 11.1423084,6.51388053 11.3059364,7.12409831 C11.470068,7.73380799 11.6065086,8.2413913 11.6100329,8.25256931 C11.6130537,8.26273114 11.7092167,7.90757525 11.8235046,7.46299527 C12.0626533,6.53013946 12.19708,6.01544287 12.2021147,6.01087004 C12.2126876,6.00070822 12.3315067,5.99867585 12.7206898,6.00070822 L13.1511574,6.00324867 L13.1415915,6.0728572 C13.1340394,6.12925534 12.8400124,7.12511449 12.5323916,8.13672447 C12.4991626,8.24850458 12.413069,8.5365924 12.3420796,8.77742773 C12.2710902,9.01775496 12.1855002,9.30330233 12.1512641,9.41203389 L12.0893372,9.61018953 L12.0893372,10.8458678 C12.0893372,12.0048243 12.0868199,12.0825623 12.0525838,12.0917079 C11.9750493,12.1130478 11.1594264,12.1028859 11.1458327,12.0805299 Z M16.7091866,12.1547113 C16.4967218,12.1262582 16.3723645,12.0434393 16.2872779,11.8732286 C16.1805421,11.6598302 16.1805421,11.6608464 16.1805421,9.53448391 L16.1805421,7.55038699 L16.6094993,7.55038699 L17.0379531,7.55038699 L17.0470156,9.37951604 C17.0565815,11.3661534 17.0540642,11.3199171 17.1718764,11.3498945 C17.2801226,11.3768233 17.3999487,11.3183928 17.5489761,11.1649492 L17.6919619,11.0181108 L17.6975,9.28399485 L17.7025347,7.55038699 L18.1309885,7.54428989 L18.5594423,7.53920898 L18.5594423,9.80986945 L18.5594423,12.081038 L18.5010397,12.0932322 C18.4310572,12.1079669 17.7815797,12.1069507 17.7292187,12.0917079 C17.6975,12.0830704 17.6924653,12.0536011 17.6924653,11.8757691 L17.6924653,11.669484 L17.5706254,11.7893936 C17.2906955,12.064271 16.9886129,12.19231 16.7091866,12.1547113 L16.7091866,12.1547113 Z M14.5503032,11.2873993 C14.6973167,11.174603 14.6983236,11.1649492 14.7058757,9.88811553 C14.7124208,8.89581302 14.7088965,8.72712668 14.6791917,8.59197436 C14.6389141,8.40906146 14.5684281,8.32268592 14.4304771,8.28457907 C14.2522484,8.23681848 14.0891238,8.33945294 14.0317281,8.53608431 C13.9884296,8.68749555 13.9889331,10.9383405 14.032735,11.0897517 C14.0659641,11.2035642 14.1721965,11.3280466 14.250738,11.3453217 C14.3529426,11.3671696 14.4783068,11.3427812 14.5508066,11.2873993 L14.5503032,11.2873993 Z M14.2144881,12.1536951 C13.8308432,12.1069507 13.4784135,11.8793257 13.3087438,11.5683738 C13.1360533,11.2518329 13.1199422,11.0861951 13.1300117,9.69199225 C13.1380672,8.61229802 13.141088,8.54472186 13.1833796,8.38975399 C13.2845772,8.02138772 13.4804274,7.77039057 13.7840204,7.61847124 C14.2008943,7.41066186 14.6504939,7.4375907 15.0437047,7.69468495 C15.2944332,7.85778229 15.4464815,8.09455288 15.5280437,8.44666022 C15.5637902,8.60213619 15.5673145,8.72153767 15.5673145,9.81190182 C15.5673145,11.1380204 15.5612728,11.2147422 15.4263426,11.5018138 C15.2969506,11.7787236 15.0039305,12.0226075 14.6983236,12.108475 C14.5633934,12.1455656 14.3292794,12.1679216 14.2144881,12.1536951 L14.2144881,12.1536951 Z" id="Shape" fill="#FFFFFF"></path>
                        </g>
                    </g>
                </g>
            </g>
        </g>
    </g>
</svg>